<svg height="150" viewBox="0 0 842 150" width="842" xmlns="http://www.w3.org/2000/svg"><g fill="none" fill-rule="evenodd"><g fill="#28b8eb" transform="translate(15 72)"><path d="m564.773 20.978h-135.327-16.736-135.323c6.257-2.783 19.798-6.543 17.565-20.927 11.379 23.092 38.818 16.202 45.744 4.816 7.712 19.614 52.606 12.158 55.737-3.123 9.666 19.897 39.624 19.897 49.293 0 3.132 15.281 48.026 22.737 55.738 3.123 6.926 11.386 34.363 18.276 45.743-4.816-2.234 14.384 11.308 18.144 17.566 20.927"/><path d="m287.029 20.978h-135.327-16.736-135.323c6.257-2.783 19.798-6.543 17.565-20.927 11.379 23.092 38.818 16.202 45.744 4.816 7.712 19.614 52.606 12.158 55.737-3.123 9.666 19.897 39.624 19.897 49.293 0 3.132 15.281 48.026 22.737 55.738 3.123 6.926 11.386 34.363 18.276 45.743-4.816-2.234 14.384 11.308 18.144 17.566 20.927"/><path d="m827.067 20.978h-135.327-16.736-135.323c6.257-2.783 19.798-6.543 17.565-20.927 11.379 23.092 38.818 16.202 45.744 4.816 7.712 19.614 52.606 12.158 55.737-3.123 9.666 19.897 39.624 19.897 49.293 0 3.132 15.281 48.026 22.737 55.738 3.123 6.926 11.386 34.363 18.276 45.743-4.816-2.234 14.384 11.308 18.144 17.566 20.927"/></g><g transform="translate(286 1)"><path d="m152.064 46.599h23.523v24.046h11.894c5.493 0 11.142-.978 16.344-2.741 2.555-.866 5.424-2.072 7.945-3.589-3.32-4.336-5.015-9.809-5.515-15.205-.677-7.34.803-16.893 5.771-22.637l2.472-2.86 2.947 2.368c7.418 5.96 13.657 14.289 14.757 23.783 8.933-2.627 19.42-2.006 27.294 2.538l3.23 1.864-1.7 3.319c-6.659 12.996-20.58 17.021-34.19 16.309-20.366 50.725-64.705 74.741-118.467 74.741-27.775 0-53.258-10.384-67.769-35.026l-.237-.403-2.115-4.301c-4.905-10.847-6.534-22.73-5.429-34.603l.332-3.557h20.115v-24.046h23.522v-23.523h47.047v-23.524h28.229z" fill="#3a4e55"/><path d="m228.275 55.495c1.577-12.258-7.596-21.886-13.285-26.457-6.556 7.58-7.575 27.444 2.711 35.807-5.74 5.099-17.835 9.721-30.22 9.721h-150.757c-1.204 12.928 1.065 24.832 6.249 35.023l1.715 3.136c1.086 1.843 2.272 3.622 3.554 5.334h.001c6.197.399 11.912.536 17.14.421h.003c10.273-.228 18.656-1.44 25.01-3.642.946-.329 1.977.173 2.304 1.118.326.945-.174 1.977-1.119 2.304-.844.293-1.725.567-2.635.826-.001.001-.002.001-.003.001-5.003 1.428-10.367 2.39-17.289 2.817.411.006-.428.062-.43.062-.235.014-.532.048-.768.061-2.724.153-5.664.185-8.67.185-3.287 0-6.526-.062-10.146-.246l-.092.061c12.561 14.118 32.202 22.586 56.82 22.586 52.105 0 96.3-23.096 115.87-74.951 13.884 1.424 27.228-2.116 33.298-13.964-9.668-5.58-22.102-3.801-29.261-.203" fill="#00aada"/><path d="m228.275 55.495c1.577-12.258-7.596-21.886-13.285-26.457-6.556 7.58-7.575 27.444 2.711 35.807-5.74 5.099-17.835 9.721-30.22 9.721h-141.83c-.615 19.798 6.732 34.828 19.732 43.914h.003c10.273-.228 18.656-1.44 25.01-3.642.946-.329 1.977.173 2.304 1.118.326.945-.174 1.977-1.119 2.304-.844.293-1.725.567-2.635.826-.001.001-.002.001-.003.001-5.003 1.428-10.828 2.513-17.749 2.94-.002 0-.168-.16-.17-.16 17.732 9.096 43.444 9.064 72.922-2.26 33.055-12.697 63.811-36.89 85.273-64.56-.324.146-.639.295-.944.448" fill="#27b9ec"/><path d="m37.006 90.273c.937 6.925 2.962 13.409 5.967 19.316l1.715 3.137c1.086 1.842 2.272 3.621 3.555 5.333 6.199.399 11.914.536 17.143.421 10.273-.228 18.656-1.44 25.01-3.642.946-.328 1.977.173 2.304 1.118s-.174 1.977-1.119 2.304c-.844.293-1.725.567-2.635.826-.001.001-.002.001-.003.001-5.003 1.428-10.797 2.452-17.719 2.879-.237.014-.652.017-.891.031-2.723.153-5.633.246-8.64.246-3.286 0-6.648-.063-10.267-.246 12.561 14.118 32.324 22.616 56.942 22.616 44.607 0 83.415-16.931 105.939-54.34z" fill="#088cb9"/><path d="m47.008 90.273c2.667 12.16 9.075 21.705 18.378 28.207 10.273-.228 18.656-1.44 25.01-3.642.946-.328 1.977.173 2.304 1.118s-.174 1.977-1.119 2.304c-.844.293-1.725.567-2.635.826-.001.001-.002.001-.003.001-5.003 1.428-10.92 2.452-17.841 2.879 17.73 9.095 43.368 8.964 72.844-2.358 17.833-6.852 34.995-17.051 50.392-29.335z" fill="#039cc7"/><path d="m74.265 52.218h1.61v16.99h-1.61zm-3.089 0h1.673v16.99h-1.673zm-3.089 0h1.673v16.99h-1.673zm-3.09 0h1.674v16.99h-1.674zm-3.088 0h1.673v16.99h-1.673zm-3.025 0h1.609v16.99h-1.609zm-1.698-1.699h20.386v20.388h-20.386z" fill="#00acd3"/><path d="m97.788 28.695h1.611v16.989h-1.611zm-3.088 0h1.673v16.989h-1.673zm-3.09 0h1.673v16.989h-1.673zm-3.089 0h1.673v16.989h-1.673zm-3.088 0h1.672v16.989h-1.672zm-3.025 0h1.608v16.989h-1.608zm-1.7-1.699h20.389v20.387h-20.389z" fill="#00acd3"/><path d="m97.788 52.218h1.611v16.99h-1.611zm-3.088 0h1.673v16.99h-1.673zm-3.09 0h1.673v16.99h-1.673zm-3.089 0h1.673v16.99h-1.673zm-3.088 0h1.672v16.99h-1.672zm-3.025 0h1.608v16.99h-1.608zm-1.7-1.699h20.389v20.388h-20.389z" fill="#26c2ee"/><path d="m121.312 52.218h1.609v16.99h-1.609zm-3.089 0h1.674v16.99h-1.674zm-3.089 0h1.674v16.99h-1.674zm-3.089 0h1.673v16.99h-1.673zm-3.089 0h1.673v16.99h-1.673zm-3.025 0h1.608v16.99h-1.608zm-1.699-1.699h20.388v20.388h-20.388z" fill="#00acd3"/><path d="m121.312 28.695h1.609v16.989h-1.609zm-3.089 0h1.674v16.989h-1.674zm-3.089 0h1.674v16.989h-1.674zm-3.089 0h1.673v16.989h-1.673zm-3.089 0h1.673v16.989h-1.673zm-3.025 0h1.608v16.989h-1.608zm-1.699-1.699h20.388v20.387h-20.388z" fill="#26c2ee"/><path d="m144.836 52.218h1.61v16.99h-1.61zm-3.089 0h1.673v16.99h-1.673zm-3.089 0h1.673v16.99h-1.673zm-3.09 0h1.673v16.99h-1.673zm-3.088 0h1.673v16.99h-1.673zm-3.025 0h1.609v16.99h-1.609zm-1.699-1.699h20.388v20.388h-20.388z" fill="#26c2ee"/><path d="m144.836 28.695h1.61v16.989h-1.61zm-3.089 0h1.673v16.989h-1.673zm-3.089 0h1.673v16.989h-1.673zm-3.09 0h1.673v16.989h-1.673zm-3.088 0h1.673v16.989h-1.673zm-3.025 0h1.609v16.989h-1.609zm-1.699-1.699h20.388v20.387h-20.388z" fill="#00acd3"/><path d="m144.836 5.171h1.61v16.99h-1.61zm-3.089 0h1.673v16.99h-1.673zm-3.089 0h1.673v16.99h-1.673zm-3.09 0h1.673v16.99h-1.673zm-3.088 0h1.673v16.99h-1.673zm-3.025 0h1.609v16.99h-1.609zm-1.699-1.698h20.388v20.387h-20.388z" fill="#26c2ee"/><path d="m168.359 52.218h1.609v16.99h-1.609zm-3.088 0h1.672v16.99h-1.672zm-3.091 0h1.673v16.99h-1.673zm-3.088 0h1.673v16.99h-1.673zm-3.09 0h1.673v16.99h-1.673zm-3.025 0h1.61v16.99h-1.61zm-1.698-1.699h20.388v20.388h-20.388z" fill="#00acd3"/><path d="m99.821 103.961c3.105 0 5.624 2.52 5.624 5.625s-2.519 5.623-5.624 5.623c-3.107 0-5.625-2.518-5.625-5.623s2.518-5.625 5.625-5.625" fill="#d5eef2"/><path d="m99.821 105.557c.514 0 1.005.097 1.458.272-.491.284-.823.816-.823 1.424 0 .908.736 1.643 1.644 1.643.622 0 1.162-.346 1.442-.855.197.475.306.997.306 1.545 0 2.224-1.803 4.028-4.027 4.028-2.225 0-4.029-1.804-4.029-4.028 0-2.226 1.804-4.029 4.029-4.029" fill="#3a4e55"/><path d="m.337 92.306h123.201 15.238 123.198c-5.697-1.445-18.025-3.397-15.992-10.863-10.358 11.986-35.34 8.41-41.644 2.498-7.021 10.184-47.893 6.313-50.743-1.62-8.802 10.329-36.075 10.329-44.878 0-2.852 7.933-43.722 11.804-50.744 1.62-6.305 5.912-31.284 9.488-41.643-2.498 2.033 7.466-10.295 9.418-15.993 10.863" fill="#3a4e55"/><path d="m114.771 144.492c-13.929-6.61-21.574-15.595-25.828-25.405-5.174 1.478-11.393 2.421-18.62 2.827-2.722.153-5.585.231-8.591.231-3.464 0-7.115-.102-10.947-.306 12.773 12.766 28.487 22.595 57.583 22.774 2.148 0 4.281-.042 6.403-.121" fill="#c0dbe1"/><path d="m94.117 128.138c-1.927-2.616-3.797-5.903-5.171-9.052-5.174 1.477-11.395 2.422-18.623 2.827 4.965 2.696 12.065 5.192 23.794 6.225" fill="#d5eef2"/></g><g fill="#394e54" transform="translate(0 81)"><path d="m287.386 12.311h-135.327-16.736-135.323c6.257-1.587 19.798-3.731 17.565-11.933 11.379 13.167 38.818 9.239 45.744 2.745 7.712 11.185 52.606 6.933 55.737-1.78 9.666 11.346 39.624 11.346 49.293 0 3.132 8.713 48.026 12.965 55.738 1.78 6.926 6.494 34.363 10.422 45.743-2.745-2.234 8.202 11.308 10.346 17.566 11.933"/><path d="m831.425 12.311h-135.327-16.736-135.323c6.257-1.587 19.798-3.731 17.565-11.933 11.379 13.167 38.818 9.239 45.744 2.745 7.712 11.185 52.606 6.933 55.737-1.78 9.666 11.346 39.624 11.346 49.293 0 3.132 8.713 48.026 12.965 55.738 1.78 6.926 6.494 34.363 10.422 45.743-2.745-2.234 8.202 11.308 10.346 17.566 11.933"/></g></g></svg>