<svg height="404.88pt" viewBox="0 0 190.08 404.88" width="190.08pt" xmlns="http://www.w3.org/2000/svg" xmlns:xlink="http://www.w3.org/1999/xlink"><clipPath id="a"><path d="m0 0h190v404.378906h-190zm0 0"/></clipPath><clipPath id="b"><path d="m0 0h190v402.945312h-190zm0 0"/></clipPath><filter id="c" height="100%" width="100%" x="0%" y="0%"><feColorMatrix in="SourceGraphic" type="matrix" values="0 0 0 0 1 0 0 0 0 1 0 0 0 0 1 0 0 0 1 0"/></filter><mask id="d"><g filter="url(#c)"><path d="m0 0h190.08v404.88h-190.08z" fill-opacity=".898"/></g></mask><clipPath id="e"><path d="m0 0h190v403h-190z"/></clipPath><clipPath id="f"><path d="m49 223h141v62h-141zm0 0"/></clipPath><clipPath id="g"><path d="m0 0h190v402.945312h-190zm0 0"/></clipPath><mask id="h"><g filter="url(#c)"><path d="m0 0h190.08v404.88h-190.08z" fill-opacity=".898"/></g></mask><clipPath id="i"><path d="m0 0h190v403h-190z"/></clipPath><clipPath id="j"><path d="m0 0h190v402.945312h-190zm0 0"/></clipPath><mask id="k"><g filter="url(#c)"><path d="m0 0h190.08v404.88h-190.08z" fill-opacity=".898"/></g></mask><clipPath id="l"><path d="m0 0h190v403h-190z"/></clipPath><clipPath id="m"><path d="m0 0h190v402.945312h-190zm0 0"/></clipPath><mask id="n"><g filter="url(#c)"><path d="m0 0h190.08v404.88h-190.08z" fill-opacity=".898"/></g></mask><clipPath id="o"><path d="m0 0h190v403h-190z"/></clipPath><clipPath id="p"><path d="m9.300781 328h2.597657v1.953125h-2.597657zm13.464844 0h4.234375v1.953125h-4.234375zm-8.355469 0h4.742188v1.953125h-4.742188zm-12.410156 0h4.789062v1.953125h-4.789062zm0 1.953125h25v.046875h-25zm0 0"/></clipPath><clipPath id="q"><path d="m0 0h190v402.945312h-190zm0 0"/></clipPath><mask id="r"><g filter="url(#c)"><path d="m0 0h190.08v404.88h-190.08z" fill-opacity=".898"/></g></mask><clipPath id="s"><path d="m0 0h190v403h-190z"/></clipPath><clipPath id="t"><path d="m0 0h190v402.945312h-190zm0 0"/></clipPath><mask id="u"><g filter="url(#c)"><path d="m0 0h190.08v404.88h-190.08z" fill-opacity=".898"/></g></mask><clipPath id="v"><path d="m0 0h190v403h-190z"/></clipPath><symbol id="w" overflow="visible"><path d="m4.019531 0h.859375l-1.894531-5.929688h-1.03125l-1.9023438 5.929688h.8281248l.445313-1.488281h2.246093zm-2.496093-2.152344.929687-3.097656.917969 3.097656zm0 0"/></symbol><symbol id="x" overflow="visible"/><symbol id="y" overflow="visible"><path d="m4.070312-5.929688h-3.210937v5.929688h3.277344v-.652344h-2.457031v-2.03125h1.992187v-.65625h-1.992187v-1.933594h2.296874zm0 0"/></symbol><symbol id="z" overflow="visible"><path d="m2.417969-5.929688h-1.558594v5.929688h.820313v-2.175781h.746093c1.308594 0 2.296875-.558594 2.296875-1.917969 0-1.25-.875-1.835938-2.304687-1.835938zm-.027344 3.109376h-.710937v-2.472657h.730468c.875 0 1.445313.320313 1.445313 1.207031 0 1.003907-.585938 1.265626-1.464844 1.265626zm0 0"/></symbol><symbol id="A" overflow="visible"><path d="m2.324219-6.03125c-1.09375 0-1.867188.636719-1.867188 1.546875 0 .921875.601563 1.359375 1.753907 1.714844 1.007812.308593 1.28125.566406 1.28125 1.144531 0 .714844-.574219 1.058594-1.273438 1.058594-.644531 0-1.109375-.234375-1.546875-.605469l-.457031.507813c.492187.484374 1.160156.765624 2.011718.765624 1.335938 0 2.117188-.722656 2.117188-1.753906 0-1.136718-.808594-1.503906-1.753906-1.796875-1.066406-.328125-1.300782-.570312-1.300782-1.066406 0-.570313.476563-.84375 1.070313-.84375.488281 0 .902344.152344 1.347656.515625l.449219-.5c-.5-.445312-1.015625-.6875-1.832031-.6875zm0 0"/></symbol><symbol id="B" overflow="visible"><path d="m2.933594-6.03125c-1.34375 0-2.460938 1.058594-2.460938 3.0625 0 1.996094 1.042969 3.070312 2.476563 3.070312.800781 0 1.378906-.324218 1.695312-.660156l-.410156-.527344c-.335937.25-.699219.5-1.257813.5-.921874 0-1.632812-.671874-1.632812-2.382812 0-1.789062.746094-2.390625 1.640625-2.390625.414063 0 .777344.136719 1.144531.4375l.449219-.523437c-.472656-.378907-.894531-.585938-1.644531-.585938zm0 0"/></symbol><symbol id="C" overflow="visible"><path d="m1.679688-5.929688h-.820313v5.929688h.820313zm0 0"/></symbol><symbol id="D" overflow="visible"><path d="m2.46875-4.636719c-1.230469 0-1.976562.964844-1.976562 2.410157 0 1.460937.753906 2.328124 1.976562 2.328124.523438 0 .980469-.1718745 1.386719-.496093l-.363281-.515625c-.34375.222656-.609376.34375-.988282.34375-.714844 0-1.160156-.492188-1.160156-1.679688 0-1.179687.445312-1.738281 1.160156-1.738281.378906 0 .664063.113281.972656.335937l.378907-.5c-.421875-.351562-.851563-.488281-1.386719-.488281zm0 0"/></symbol><symbol id="E" overflow="visible"><path d="m1.203125-6.710938c-.324219 0-.550781.230469-.550781.542969 0 .300781.226562.53125.550781.53125.335937 0 .5625-.230469.5625-.53125 0-.3125-.226563-.542969-.5625-.542969zm.40625 2.175782h-.792969v4.535156h.792969zm0 0"/></symbol><symbol id="F" overflow="visible"><path d="m3.535156-6.453125v2.375c-.300781-.320313-.6875-.558594-1.222656-.558594-1.109375 0-1.777344 1.007813-1.777344 2.390625 0 1.410156.609375 2.347656 1.710938 2.347656.558594 0 1.015625-.273437 1.308594-.730468l.074218.628906h.699219v-6.359375zm-1.117187 5.929687c-.652344 0-1.03125-.542968-1.03125-1.738281 0-1.179687.421875-1.746093 1.101562-1.746093.445313 0 .765625.230468 1.046875.59375v2.21875c-.300781.421874-.609375.671874-1.117187.671874zm0 0"/></symbol><symbol id="G" overflow="visible"><path d="m4.242188-2.402344c0-1.382812-.644532-2.234375-1.867188-2.234375-1.171875 0-1.882812 1.007813-1.882812 2.417969 0 1.4375.738281 2.320312 2.003906 2.320312.628906 0 1.132812-.214843 1.582031-.566406l-.34375-.472656c-.394531.273438-.730469.394531-1.179687.394531-.652344 0-1.144532-.402343-1.222657-1.453125h2.890625c.011719-.101562.019532-.25.019532-.40625zm-.785157-.179687h-2.125c.0625-1.003907.457031-1.425781 1.058594-1.425781.714844 0 1.066406.488281 1.066406 1.375zm0 0"/></symbol><symbol id="H" overflow="visible"><path d="m2.359375-5.816406c.230469 0 .496094.042968.789063.171875l.25-.574219c-.359376-.15625-.652344-.234375-1.085938-.234375-.917969 0-1.417969.542969-1.417969 1.300781v.617188h-.8085935v.613281h.8085935v3.921875h.792969v-3.921875h1.015625l.085937-.613281h-1.101562v-.628906c0-.4375.171875-.652344.671875-.652344zm0 0"/></symbol><symbol id="I" overflow="visible"><path d="m3.871094-1.058594v-2.074218c0-.945313-.5-1.503907-1.589844-1.503907-.507812 0-1.007812.101563-1.566406.308594l.195312.578125c.464844-.15625.886719-.242188 1.222656-.242188.628907 0 .949219.242188.949219.894532v.335937h-.699219c-1.265624 0-1.996093.523438-1.996093 1.496094 0 .808594.542969 1.367187 1.445312 1.367187.550781 0 1.03125-.203124 1.351563-.679687.136718.449219.429687.6289062.886718.679687l.179688-.550781c-.230469-.085937-.378906-.214843-.378906-.609375zm-1.859375.566406c-.515625 0-.78125-.28125-.78125-.816406 0-.617187.421875-.929687 1.257812-.929687h.59375v1.042969c-.261719.472656-.605469.703124-1.070312.703124zm0 0"/></symbol><symbol id="J" overflow="visible"><path d="m2.890625-4.636719c-.550781 0-.972656.25-1.28125.671875v-2.488281l-.792969.09375v6.359375h.699219l.074219-.5c.3125.378906.707031.601562 1.207031.601562 1.101563 0 1.78125-.953124 1.78125-2.371093 0-1.515625-.664063-2.367188-1.6875-2.367188zm-.285156 4.113281c-.402344 0-.765625-.25-.996094-.613281v-2.167969c.230469-.359374.558594-.703124 1.058594-.703124.636719 0 1.058593.445312 1.058593 1.738281 0 1.238281-.457031 1.746093-1.121093 1.746093zm0 0"/></symbol><symbol id="K" overflow="visible"><path d="m2.519531-4.636719c-1.289062 0-2.027343.972657-2.027343 2.375 0 1.4375.730468 2.363281 2.019531 2.363281 1.28125 0 2.023437-.96875 2.023437-2.371093 0-1.4375-.722656-2.367188-2.015625-2.367188zm0 .636719c.75 0 1.164063.550781 1.164063 1.730469 0 1.183593-.414063 1.734375-1.171875 1.734375-.757813 0-1.167969-.550782-1.167969-1.726563 0-1.1875.421875-1.738281 1.175781-1.738281zm0 0"/></symbol><symbol id="L" overflow="visible"><path d="m4.191406-4.535156h-.792968v3.234375c-.273438.457031-.644532.785156-1.136719.785156-.488281 0-.695313-.234375-.695313-.851563v-3.167968h-.792968v3.253906c0 .886719.472656 1.382812 1.265624 1.382812.644532 0 1.066407-.257812 1.410157-.808593l.0625.707031h.679687zm0 0"/></symbol><symbol id="M" overflow="visible"><path d="m2.949219-4.636719c-.589844 0-1.074219.308594-1.382813.773438l-.070312-.671875h-.679688v4.535156h.792969v-3.21875c.300781-.480469.644531-.800781 1.152344-.800781.4375 0 .714843.199219.714843.878906v3.140625h.789063v-3.253906c0-.859375-.480469-1.382813-1.316406-1.382813zm0 0"/></symbol><symbol id="N" overflow="visible"><path d="m2.804688-.75c-.222657.140625-.402344.199219-.601563.199219-.394531 0-.542969-.214844-.542969-.671875v-2.699219h.988282l.085937-.613281h-1.074219v-1.117188l-.792968.09375v1.023438h-.789063v.613281h.789063v2.734375c0 .84375.457031 1.289062 1.222656 1.289062.386718 0 .714844-.101562 1.015625-.308593zm0 0"/></symbol><symbol id="O" overflow="visible"><path d="m4.148438-4.535156h-.820313l-1.1875 3.957031-1.210937-3.957031h-.8437505l1.5234375 4.535156h.265625c-.257812.707031-.515625 1.058594-1.4375 1.214844l.085938.617187c1.257812-.136719 1.789062-.84375 2.109374-1.8046872zm0 0"/></symbol><symbol id="P" overflow="visible"><path d="m2.789062-4.636719c-.550781 0-.972656.34375-1.214843 1.023438l-.078125-.921875h-.679688v4.535156h.792969v-2.589844c.1875-.867187.515625-1.273437 1.082031-1.273437.164063 0 .257813.015625.398438.050781l.144531-.773438c-.136719-.035156-.300781-.050781-.445313-.050781zm0 0"/></symbol><symbol id="Q" overflow="visible"><path d="m2.898438-4.636719c-.515626 0-1.003907.25-1.339844.714844l-.0625-.613281h-.679688v6.367187l.792969-.09375v-2.152343c.292969.3554682.695313.515624 1.1875.515624 1.167969 0 1.78125-.996093 1.78125-2.371093 0-1.429688-.472656-2.367188-1.679687-2.367188zm-.292969 4.09375c-.410157 0-.765625-.195312-.996094-.550781v-2.210938c.242187-.359374.609375-.703124 1.09375-.703124.679687 0 1.023437.558593 1.023437 1.738281 0 1.183593-.398437 1.726562-1.121093 1.726562zm0 0"/></symbol><symbol id="R" overflow="visible"><path d="m1.722656.101562c.230469 0 .453125-.0585932.625-.1523432l-.207031-.5507808c-.085937.035156-.179687.050781-.289063.050781-.207031 0-.285156-.121094-.285156-.359375v-5.542969l-.792968.09375v5.464844c0 .644531.371093.996093.949218.996093zm0 0"/></symbol><symbol id="S" overflow="visible"/><symbol id="T" overflow="visible"><path d="m.488281-2.320312h2.964844v-.605469h-2.964844zm0 0"/></symbol><symbol id="U" overflow="visible"><path d="m1.664062-1.820312h1.65625l.109376-.484376h-1.789063v-.707031h1.941406l.117188-.488281h-2.011719c.199219-.878906.648438-1.253906 1.253906-1.253906.441406 0 .742188.109375 1.121094.335937l.28125-.496093c-.433594-.292969-.890625-.441407-1.433594-.441407-.976562 0-1.757812.65625-2.011718 1.855469h-.582032l-.121094.488281h.671876v.707031h-.550782l-.121094.484376h.695313c.207031 1.246093.898437 1.914062 1.988281 1.914062.496094 0 .859375-.125 1.214844-.296875v-.632813c-.308594.164063-.648438.324219-1.105469.324219-.78125 0-1.191406-.386719-1.324219-1.308593zm0 0"/></symbol><symbol id="V" overflow="visible"><path d="m1.773438-5.355469c-.566407 0-1.054688.207031-1.503907.625l.378907.433594c.351562-.332031.667968-.476563 1.085937-.476563.527344 0 .875.308594.875.804688 0 .617188-.433594.933594-.953125.933594h-.269531l-.085938.558594h.394531c.640626 0 1.050782.222656 1.050782.945312 0 .625-.402344 1.035156-1.066406 1.035156-.425782 0-.78125-.160156-1.128907-.519531l-.433593.402344c.402343.480469.957031.707031 1.585937.707031 1.097656 0 1.796875-.691406 1.796875-1.617188 0-.796874-.527344-1.214843-1.1875-1.277343.589844-.140625 1.023438-.542969 1.023438-1.214844 0-.707031-.550782-1.339844-1.5625-1.339844zm0 0"/></symbol><symbol id="W" overflow="visible"><path d="m2.199219-5.355469c-1.183594 0-1.765625.96875-1.765625 2.722657 0 1.75.582031 2.726562 1.765625 2.726562 1.183593 0 1.769531-.976562 1.769531-2.726562 0-1.746094-.585938-2.722657-1.769531-2.722657zm0 .574219c.65625 0 1.011719.601562 1.011719 2.148438 0 1.550781-.355469 2.152343-1.011719 2.152343-.660157 0-1.007813-.601562-1.007813-2.152343 0-1.546876.347656-2.148438 1.007813-2.148438zm0 0"/></symbol><symbol id="X" overflow="visible"><path d="m3.414062-5.277344h-2.855468v2.660156h.570312c.25-.121093.464844-.183593.75-.183593.542969 0 .960938.285156.960938 1.097656 0 .773437-.417969 1.207031-1.082032 1.207031-.457031 0-.796874-.167968-1.109374-.503906l-.445313.425781c.410156.417969.894531.667969 1.5625.667969 1.097656 0 1.832031-.734375 1.832031-1.78125 0-1.050781-.609375-1.671875-1.5-1.671875-.285156 0-.566406.0625-.84375.203125v-1.550781h2.058594zm0 0"/></symbol><symbol id="Y" overflow="visible"><path d="m6.839844-6.339844h-.171875c-.144531.238282-.296875.257813-.402344.257813-.503906 0-1.003906-.257813-1.523437-.257813-2.328126 0-4.261719 1.566406-4.261719 3.78125 0 1.414063.914062 2.675782 2.773437 2.675782.375 0 1.105469-.0585942 1.855469-.589844.277344-.199219.597656-.488282.855469-.882813l-.191406-.125c-.046876.066407-.097657.125-.164063.191407-.433594.472656-1.136719.941406-2.078125.941406-1.300781 0-1.875-.980469-1.875-2.058594 0-1.644531 1.132812-3.578125 3.066406-3.578125 1.164063 0 1.464844.757813 1.464844 1.386719 0 .238281 0 .324218-.011719.402344h.15625zm0 0"/></symbol><symbol id="Z" overflow="visible"><path d="m2.679688 0v-.101562c-.511719 0-.648438-.121094-.648438-.414063v-4.058594l-.058594-.019531-1.21875.617188v.09375l.183594-.066407c.121094-.046875.238281-.082031.304688-.082031.144531 0 .207031.101562.207031.332031v3.054688c0 .371093-.144531.515625-.648438.542969v.101562zm0 0"/></symbol><symbol id="aa" overflow="visible"><path d="m3.222656-.929688-.097656-.042968c-.222656.382812-.367188.457031-.652344.457031h-1.589844l1.121094-1.195313c.605469-.640624.871094-1.152343.871094-1.6875 0-.671874-.488281-1.195312-1.257812-1.195312-.835938 0-1.269532.554688-1.414063 1.351562l.144531.035157c.269532-.667969.507813-.882813 1-.882813.574219 0 .941406.339844.941406.957032 0 .578124-.242187 1.09375-.882812 1.765624l-1.210938 1.2851568v.0820312h2.660157zm0 0"/></symbol><symbol id="ab" overflow="visible"><path d="m-5.84375-1.960938c0 .722657.292969 1.28125.871094 1.746094l.414062-.535156c-.441406-.367188-.628906-.6875-.628906-1.167969 0-.558593.351562-.945312.953125-.945312.9375 0 1.488281.496093 3.605469 2.527343h.628906v-3.398437l-.664062-.09375v2.589844c-1.761719-1.765625-2.527344-2.453125-3.601563-2.453125-.898437 0-1.578125.671875-1.578125 1.730468zm0 0"/></symbol><symbol id="ac" overflow="visible"><path d="m-5.929688-2.417969v1.558594h5.929688v-.820313h-2.175781v-.746093c0-1.308594-.558594-2.296875-1.917969-2.296875-1.25 0-1.835938.875-1.835938 2.304687zm3.109376.027344v.710937h-2.472657v-.730468c0-.875.320313-1.445313 1.207031-1.445313 1.003907 0 1.265626.585938 1.265626 1.464844zm0 0"/></symbol><symbol id="ad" overflow="visible"><path d="m-6.03125-2.933594c0 1.34375 1.058594 2.460938 3.0625 2.460938 1.996094 0 3.070312-1.042969 3.070312-2.476563 0-.800781-.324218-1.378906-.660156-1.695312l-.527344.410156c.25.335937.5.699219.5 1.257813 0 .921874-.671874 1.632812-2.382812 1.632812-1.789062 0-2.390625-.746094-2.390625-1.640625 0-.414063.136719-.777344.4375-1.144531l-.523437-.449219c-.378907.472656-.585938.894531-.585938 1.644531zm0 0"/></symbol><symbol id="ae" overflow="visible"><path d="m2.128906-5.527344c-1 0-1.710937.582032-1.710937 1.417969 0 .84375.550781 1.246094 1.609375 1.570313.921875.285156 1.175781.519531 1.175781 1.046874 0 .65625-.53125.972657-1.167969.972657-.59375 0-1.019531-.214844-1.421875-.554688l-.417969.46875c.453126.441407 1.066407.699219 1.847657.699219 1.222656 0 1.941406-.660156 1.941406-1.609375 0-1.039063-.742187-1.378906-1.609375-1.648437-.980469-.296876-1.191406-.519532-1.191406-.976563 0-.519531.433594-.773437.976562-.773437.449219 0 .828125.140624 1.238282.472656l.410156-.457032c-.457032-.410156-.929688-.628906-1.679688-.628906zm0 0"/></symbol><symbol id="af" overflow="visible"><path d="m2.6875-5.527344c-1.226562 0-2.253906.96875-2.253906 2.804688 0 1.832031.953125 2.816406 2.273437 2.816406.730469 0 1.261719-.296875 1.550781-.605469l-.378906-.480469c-.304687.226563-.636718.457032-1.148437.457032-.84375 0-1.5-.617188-1.5-2.1875 0-1.640625.6875-2.191406 1.507812-2.191406.378907 0 .707031.125 1.046875.402343l.410156-.480469c-.433593-.347656-.820312-.535156-1.507812-.535156zm0 0"/></symbol><symbol id="ag" overflow="visible"><path d="m2.570312-.6875c-.203124.128906-.371093.183594-.550781.183594-.363281 0-.496093-.199219-.496093-.617188v-2.476562h.90625l.078124-.558594h-.984374v-1.023438l-.726563.085938v.9375h-.7265625v.558594h.7265625v2.507812c0 .773438.417969 1.183594 1.121094 1.183594.351562 0 .652343-.09375.929687-.28125zm0 0"/></symbol><symbol id="ah" overflow="visible"><path d="m2.554688-4.25c-.503907 0-.890626.316406-1.113282.9375l-.070312-.84375h-.621094v4.15625h.726562v-2.375c.171876-.796875.472657-1.167969.992188-1.167969.148438 0 .238281.015625.363281.050781l.132813-.710937c-.125-.03125-.277344-.046875-.410156-.046875zm0 0"/></symbol><symbol id="ai" overflow="visible"><path d="m2.3125-4.25c-1.183594 0-1.863281.890625-1.863281 2.175781 0 1.316407.671875 2.167969 1.855469 2.167969 1.171874 0 1.851562-.890625 1.851562-2.175781 0-1.316407-.664062-2.167969-1.84375-2.167969zm0 .582031c.683594 0 1.0625.503907 1.0625 1.585938 0 1.089843-.378906 1.59375-1.070312 1.59375-.695313 0-1.074219-.503907-1.074219-1.585938 0-1.089843.386719-1.59375 1.082031-1.59375zm0 0"/></symbol><symbol id="aj" overflow="visible"><path d="m4.921875-4.25c-.558594 0-.9375.296875-1.238281.75-.15625-.476562-.535156-.75-1.050782-.75-.542968 0-.921874.28125-1.199218.699219l-.0625-.605469h-.621094v4.15625h.726562v-2.949219c.273438-.441406.527344-.734375.976563-.734375.316406 0 .582031.183594.582031.804688v2.878906h.726563v-2.949219c.285156-.441406.527343-.734375.976562-.734375.316407 0 .585938.183594.585938.804688v2.878906h.726562v-2.980469c0-.78125-.449219-1.269531-1.128906-1.269531zm0 0"/></symbol><symbol id="ak" overflow="visible"><path d="m3.839844-4.15625h-.722656v2.964844c-.253907.417968-.59375.71875-1.042969.71875s-.640625-.214844-.640625-.78125v-2.902344h-.722656v2.980469c0 .8125.433593 1.269531 1.160156 1.269531.589844 0 .976562-.234375 1.292968-.742188l.054688.648438h.621094zm0 0"/></symbol><symbol id="al" overflow="visible"><path d="m1.878906-4.25c-.863281 0-1.5.480469-1.5 1.144531 0 .582031.355469.96875 1.253906 1.203125.804688.214844 1.007813.371094 1.007813.78125 0 .394532-.34375.632813-.890625.632813-.449219 0-.835938-.152344-1.167969-.402344l-.386719.441406c.363282.316407.871094.542969 1.570313.542969.84375 0 1.640625-.394531 1.640625-1.261719 0-.726562-.503906-1.070312-1.378906-1.292969-.671875-.171874-.890625-.332031-.890625-.671874 0-.328126.289062-.542969.765625-.542969.386718 0 .707031.117187 1.078125.355469l.308593-.457032c-.394531-.300781-.828124-.472656-1.410156-.472656zm0 0"/></symbol><symbol id="am" overflow="visible"><path d="m3.550781-.96875v-1.902344c0-.867187-.460937-1.378906-1.460937-1.378906-.464844 0-.921875.09375-1.433594.28125l.179688.53125c.425781-.144531.8125-.222656 1.121093-.222656.574219 0 .867188.222656.867188.820312v.308594h-.640625c-1.160156 0-1.828125.480469-1.828125 1.371094 0 .742187.496093 1.253906 1.324219 1.253906.503906 0 .945312-.1875 1.238281-.621094.125.410156.394531.574219.8125.621094l.164062-.503906c-.210937-.078125-.34375-.195313-.34375-.558594zm-1.707031.519531c-.472656 0-.714844-.261719-.714844-.75 0-.566406.386719-.851562 1.148438-.851562h.546875v.953125c-.238281.433594-.554688.648437-.980469.648437zm0 0"/></symbol><symbol id="an" overflow="visible"><path d="m1.105469-6.152344c-.300781 0-.507813.214844-.507813.496094 0 .277344.207032.492188.507813.492188.304687 0 .511719-.214844.511719-.492188 0-.28125-.207032-.496094-.511719-.496094zm.371093 1.996094h-.726562v4.15625h.726562zm0 0"/></symbol><symbol id="ao" overflow="visible"><path d="m2.261719-4.25c-1.125 0-1.8125.882812-1.8125 2.207031 0 1.339844.695312 2.136719 1.8125 2.136719.484375 0 .902343-.15625 1.273437-.457031l-.332031-.472657c-.316406.203126-.5625.316407-.90625.316407-.65625 0-1.066406-.449219-1.066406-1.539063 0-1.082031.410156-1.59375 1.066406-1.59375.34375 0 .605469.101563.890625.308594l.347656-.457031c-.386718-.324219-.78125-.449219-1.273437-.449219zm0 0"/></symbol><symbol id="ap" overflow="visible"><path d="m3.886719-2.199219c0-1.269531-.589844-2.050781-1.710938-2.050781-1.070312 0-1.726562.921875-1.726562 2.214844 0 1.316406.679687 2.128906 1.839843 2.128906.574219 0 1.039063-.195312 1.449219-.519531l-.316406-.433594c-.363281.253906-.667969.363281-1.078125.363281-.601562 0-1.050781-.371094-1.121094-1.332031h2.648438c.007812-.097656.015625-.230469.015625-.371094zm-.714844-.167969h-1.949219c.054688-.921874.417969-1.308593.96875-1.308593.65625 0 .980469.449219.980469 1.261719zm0 0"/></symbol><symbol id="aq" overflow="visible"><path d="m1.816406-1.988281h1.804688l.121094-.523438h-1.953126v-.773437h2.117188l.128906-.535156h-2.195312c.214844-.953126.707031-1.367188 1.371094-1.367188.480468 0 .808593.121094 1.21875.371094l.3125-.542969c-.476563-.320313-.972657-.484375-1.566407-.484375-1.066406 0-1.917969.714844-2.195312 2.023438h-.636719l-.128906.535156h.730468v.773437h-.601562l-.128906.523438h.757812c.222656 1.359375.980469 2.089843 2.167969 2.089843.542969 0 .9375-.1367182 1.324219-.324218v-.6875c-.335938.179687-.703125.351562-1.203125.351562-.851563 0-1.300781-.421875-1.445313-1.429687zm0 0"/></symbol><symbol id="ar" overflow="visible"/><symbol id="as" overflow="visible"><path d="m1.945312-7.269531c-.84375 1.195312-1.601562 2.21875-1.601562 4.257812 0 2.039063.757812 3.0625002 1.601562 4.257813l.5-.34375c-.777343-1.144532-1.273437-2.074219-1.273437-3.914063 0-1.847656.496094-2.769531 1.273437-3.914062zm0 0"/></symbol><symbol id="at" overflow="visible"><path d="m.535156-2.53125h3.234375v-.660156h-3.234375zm0 0"/></symbol><symbol id="au" overflow="visible"><path d="m.84375-7.269531-.5.34375c.773438 1.144531 1.273438 2.066406 1.273438 3.914062 0 1.839844-.5 2.769531-1.273438 3.914063l.5.34375c.84375-1.1953128 1.601562-2.21875 1.601562-4.257813 0-2.039062-.757812-3.0625-1.601562-4.257812zm0 0"/></symbol><symbol id="av" overflow="visible"><path d="m1.023438-4.257812c-.335938 0-.59375.265624-.59375.59375 0 .335937.257812.601562.59375.601562.34375 0 .601562-.265625.601562-.601562 0-.328126-.257812-.59375-.601562-.59375zm0 3.164062c-.335938 0-.59375.269531-.59375.59375 0 .335938.257812.601562.59375.601562.34375 0 .601562-.265624.601562-.601562 0-.324219-.257812-.59375-.601562-.59375zm0 0"/></symbol><symbol id="aw" overflow="visible"><path d="m2.777344-5.757812h-.695313l-1.78125 1.101562.34375.5625 1.34375-.820312v4.914062h.789063zm0 0"/></symbol><symbol id="ax" overflow="visible"><path d="m2.402344-5.84375c-1.292969 0-1.929688 1.058594-1.929688 2.96875s.636719 2.976562 1.929688 2.976562c1.289062 0 1.925781-1.066406 1.925781-2.976562 0-1.898438-.636719-2.96875-1.925781-2.96875zm0 .628906c.710937 0 1.097656.65625 1.097656 2.339844 0 1.695312-.386719 2.351562-1.097656 2.351562-.722656 0-1.101563-.65625-1.101563-2.351562 0-1.683594.378907-2.339844 1.101563-2.339844zm0 0"/></symbol><symbol id="ay" overflow="visible"><path d="m1.9375-5.84375c-.621094 0-1.15625.226562-1.644531.679688l.414062.476562c.386719-.363281.730469-.519531 1.1875-.519531.574219 0 .953125.335937.953125.878906 0 .671875-.472656 1.015625-1.039062 1.015625h-.292969l-.097656.609375h.433593c.695313 0 1.140626.242187 1.140626 1.035156 0 .679688-.4375 1.125-1.160157 1.125-.464843 0-.851562-.171875-1.230469-.566406l-.472656.4375c.4375.527344 1.042969.773437 1.730469.773437 1.195313 0 1.960937-.753906 1.960937-1.761718 0-.871094-.578124-1.324219-1.300781-1.394532.648438-.15625 1.121094-.59375 1.121094-1.324218 0-.773438-.601563-1.464844-1.703125-1.464844zm0 0"/></symbol><symbol id="az" overflow="visible"><path d="m3.726562-5.757812h-3.117187v2.902343h.621094c.273437-.128906.507812-.199219.816406-.199219.59375 0 1.050781.308594 1.050781 1.195313 0 .84375-.457031 1.316406-1.179687 1.316406-.5 0-.867188-.179687-1.210938-.550781l-.484375.464844c.449219.457031.972656.730468 1.703125.730468 1.199219 0 1.996094-.796874 1.996094-1.941406 0-1.144531-.660156-1.824218-1.632813-1.824218-.308593 0-.621093.066406-.921874.222656v-1.695313h2.246093zm0 0"/></symbol><symbol id="aA" overflow="visible"><path d="m3.5625-5.757812h-3.347656v.648437h2.546875l-2.074219 4.953125.722656.2421875 2.152344-5.2499995zm0 0"/></symbol><symbol id="aB" overflow="visible"><path d="m1.960938-5.84375c-.722657 0-1.28125.292969-1.746094.871094l.535156.414062c.367188-.441406.6875-.628906 1.167969-.628906.558593 0 .945312.351562.945312.953125 0 .9375-.496093 1.488281-2.527343 3.605469v.628906h3.398437l.09375-.664062h-2.589844c1.765625-1.761719 2.453125-2.527344 2.453125-3.601563 0-.898437-.671875-1.578125-1.730468-1.578125zm0 0"/></symbol><symbol id="aC" overflow="visible"><path d="m4.632812-9.59375h-1.164062l-2.96875 1.835938.574219.933593 2.238281-1.363281v8.1875h1.320312zm0 0"/></symbol><symbol id="aD" overflow="visible"><path d="m3.269531-9.738281c-1.203125 0-2.136719.488281-2.910156 1.449219l.886719.6875c.617187-.730469 1.148437-1.046876 1.953125-1.046876.929687 0 1.574219.589844 1.574219 1.59375 0 1.5625-.828126 2.480469-4.214844 6.007813v1.046875h5.664062l.160156-1.105469h-4.316406c2.9375-2.9375 4.085938-4.214843 4.085938-6.007812 0-1.492188-1.117188-2.625-2.882813-2.625zm0 0"/></symbol><symbol id="aE" overflow="visible"><path d="m3.226562-9.738281c-1.03125 0-1.921874.375-2.738281 1.132812l.6875.789063c.644531-.601563 1.21875-.859375 1.980469-.859375.960938 0 1.589844.558593 1.589844 1.464843 0 1.117188-.789063 1.691407-1.734375 1.691407h-.488281l-.15625 1.015625h.714843c1.164063 0 1.90625.402344 1.90625 1.722656 0 1.132812-.730469 1.878906-1.933593 1.878906-.773438 0-1.421876-.289062-2.050782-.949218l-.789062.734374c.730468.875 1.734375 1.289063 2.882812 1.289063 1.992188 0 3.269532-1.261719 3.269532-2.9375 0-1.449219-.960938-2.210937-2.164063-2.324219 1.074219-.257812 1.863281-.988281 1.863281-2.210937 0-1.289063-1.003906-2.4375-2.839844-2.4375zm0 0"/></symbol><symbol id="aF" overflow="visible"><path d="m7.199219-3.414062h-1.25v-2.578126h-1.144531l-.117188 2.578126h-2.722656l2.59375-5.863282-1.101563-.460937-2.882812 6.425781v.945312h4.101562v2.367188h1.273438v-2.367188h1.25zm0 0"/></symbol><g clip-path="url(#a)"><path d="m0 0h190v404.378906h-190zm0 0" fill="#fff"/></g><path d="m26.000002.998253h100.001549v40.000619h-100.001549zm0 0" fill="#fff" stroke="#000" transform="matrix(.716981 0 0 .716981 .358491 .358491)"/><path d="m55.207031 29.753906v2.152344h-.714843v-2.152344m.714843 4.300782v2.152343h-.714843v-2.152343m.714843 4.304687v2.148437h-.714843v-2.148437m.714843 4.300781v2.152344h-.714843v-2.152344m.714843 4.300782v2.152343h-.714843v-2.152343m.714843 4.304687v2.148437h-.714843v-2.148437m.714843 4.300781v2.152344h-.714843v-2.152344m.714843 4.300782v2.152343h-.714843v-2.152343m.714843 4.300781v2.152343h-.714843v-2.152343m.714843 4.304687v2.148438h-.714843v-2.148438m.714843 4.300782v2.152343h-.714843v-2.152343m.714843 4.300781v2.152343h-.714843v-2.152343m.714843 4.304687v2.148438h-.714843v-2.148438m.714843 4.300782v2.152343h-.714843v-2.152343m.714843 4.300781v2.152343h-.714843v-2.152343m.714843 4.300781v2.152344h-.714843v-2.152344m.714843 4.304688v2.148437h-.714843v-2.148437m.714843 4.300781v2.152343h-.714843v-2.152343m.714843 4.300781v2.152344h-.714843v-2.152344m.714843 4.304688v2.148437h-.714843v-2.148437m.714843 4.300781v2.152343h-.714843v-2.152343m.714843 4.300781v2.152344h-.714843v-2.152344m.714843 4.300781v2.152344h-.714843v-2.152344m.714843 4.304688v2.148437h-.714843v-2.148437m.714843 4.300781v2.152344h-.714843v-2.152344m.714843 4.300781v2.152344h-.714843v-2.152344m.714843 4.304688v2.148437h-.714843v-2.148437m.714843 4.300781v2.148438h-.714843v-2.148438m.714843 4.300781v2.152344h-.714843v-2.152344m.714843 4.300781v2.152344h-.714843v-2.152344m.714843 4.304688v2.148438h-.714843v-2.148438m.714843 4.300781v2.152344h-.714843v-2.152344m.714843 4.300781v2.152344h-.714843v-2.152344m.714843 4.304688v2.148438h-.714843v-2.148438m.714843 4.300781v2.148438h-.714843v-2.148438m.714843 4.300781v2.152344h-.714843v-2.152344m.714843 4.300782v2.152344h-.714843v-2.152344m.714843 4.304687v2.148438h-.714843v-2.148438m.714843 4.300781v2.152344h-.714843v-2.152344m.714843 4.300782v2.152344h-.714843v-2.152344m.714843 4.304687v2.148438h-.714843v-2.148438m.714843 4.300781v2.148438h-.714843v-2.148438m.714843 4.300782v2.152344h-.714843v-2.152344m.714843 4.300781v2.152344h-.714843v-2.152344m.714843 4.304687v2.148438h-.714843v-2.148438m.714843 4.300782v2.152344h-.714843v-2.152344m.714843 4.300781v2.152344h-.714843v-2.152344m.714843 4.304687v2.148438h-.714843v-2.148438m.714843 4.300782v2.148437h-.714843v-2.148437m.714843 4.300781v2.152344h-.714843v-2.152344m.714843 4.300781v2.152344h-.714843v-2.152344m.714843 4.304688v2.148437h-.714843v-2.148437m.714843 4.300781v2.152344h-.714843v-2.152344m.714843 4.300781v2.152344h-.714843v-2.152344m.714843 4.300782v2.152343h-.714843v-2.152343m.714843 4.304687v2.148437h-.714843v-2.148437m.714843 4.300781v2.152344h-.714843v-2.152344m.714843 4.300782v2.152343h-.714843v-2.152343m.714843 4.304687v2.148437h-.714843v-2.148437m.714843 4.300781v2.152344h-.714843v-2.152344m.714843 4.300782v2.152343h-.714843v-2.152343m.714843 4.300781v2.152343h-.714843v-2.152343m.714843 4.304687v2.148438h-.714843v-2.148438m.714843 4.300782v2.152343h-.714843v-2.152343m.714843 4.300781v2.152343h-.714843v-2.152343m.714843 4.304687v2.148438h-.714843v-2.148438m.714843 4.300782v2.152343h-.714843v-2.152343m.714843 4.300781v2.152343h-.714843v-2.152343m.714843 4.300781v2.152344h-.714843v-2.152344m.714843 4.304688v2.148437h-.714843v-2.148437m.714843 4.300781v2.152343h-.714843v-2.152343m.714843 4.300781v2.152344h-.714843v-2.152344m.714843 4.304688v2.148437h-.714843v-2.148437m.714843 4.300781v2.152343h-.714843v-2.152343m.714843 4.300781v2.152344h-.714843v-2.152344m.714843 4.300781v2.152344h-.714843v-2.152344m.714843 4.304688v2.148437h-.714843v-2.148437m.714843 4.300781v2.152344h-.714843v-2.152344m.714843 4.300781v2.152344h-.714843v-2.152344m.714843 4.304688v2.148437h-.714843v-2.148437m.714843 4.300781v2.148438h-.714843v-2.148438m.714843 4.300781v2.152344h-.714843v-2.152344m.714843 4.300781v2.152344h-.714843v-2.152344m.714843 4.304688v2.148438h-.714843v-2.148438m.714843 4.300781v2.152344h-.714843v-2.152344m.714843 4.300781v2.152344h-.714843v-2.152344m.714843 4.304688v2.148438h-.714843v-2.148438"/><use x="26.5283" xlink:href="#w" y="13.622641"/><use x="31.415228" xlink:href="#D" y="13.622641"/><use x="35.441781" xlink:href="#D" y="13.622641"/><use x="39.468334" xlink:href="#K" y="13.622641"/><use x="44.492934" xlink:href="#L" y="13.622641"/><use x="49.500325" xlink:href="#M" y="13.622641"/><use x="54.542135" xlink:href="#N" y="13.622641"/><use x="57.648086" xlink:href="#x" y="13.622641"/><use x="59.928081" xlink:href="#y" y="13.622641"/><use x="64.531098" xlink:href="#M" y="13.622641"/><use x="69.572908" xlink:href="#N" y="13.622641"/><use x="72.678859" xlink:href="#E" y="13.622641"/><use x="75.105114" xlink:href="#N" y="13.622641"/><use x="78.211066" xlink:href="#O" y="13.622641"/><use x="45.035374" xlink:href="#z" y="23.660376"/><use x="49.948121" xlink:href="#A" y="23.660376"/><use x="54.465093" xlink:href="#w" y="23.660376"/><use x="59.136936" xlink:href="#B" y="23.660376"/><path d="m71.002061 85.930105h9.997431v310.002077h-9.997431zm0 0" fill="#fff" stroke="#000" transform="matrix(.716981 0 0 .716981 .358491 .358491)"/><path d="m15.000104 85.930105h47.878704" fill="none" stroke="#000" stroke-miterlimit="10" transform="matrix(.716981 0 0 .716981 .358491 .358491)"/><path d="m15.000104 85.930105c0 .528474-.103516 1.040604-.305099 1.530941-.201583.490338-.490337.920745-.866262 1.29667s-.806333.664679-1.29667.866262c-.490337.207032-1.002467.305099-1.530941.305099-.533923 0-1.040605-.098067-1.530942-.305099-.490337-.201583-.926193-.490337-1.29667-.866262-.375925-.375925-.664679-.806332-.87171-1.29667-.201583-.490337-.299651-1.002467-.299651-1.530941 0-.528475.098068-1.040605.299651-1.530942.207031-.490337.495785-.920744.87171-1.29667.370477-.375925.806333-.664679 1.29667-.866262.490337-.207031.997019-.305099 1.530942-.305099.528474 0 1.040604.098068 1.530941.305099.490337.201583.920745.490337 1.29667.866262.375925.375926.664679.806333.866262 1.29667s.305099 1.002467.305099 1.530942zm0 0" stroke="#000" transform="matrix(.716981 0 0 .716981 .358491 .358491)"/><path d="m69.879734 85.930105-7.000926 3.497738v-6.995477zm0 0" stroke="#000" stroke-miterlimit="10" transform="matrix(.716981 0 0 .716981 .358491 .358491)"/><path d="m15.054688 50.90625h30.113281v9.320312h-30.113281zm0 0" fill="#fff"/><g fill="#333"><use x="25.900942" xlink:href="#S" y="58.075468"/><g><use x="27.984668" xlink:href="#T" y="58.075468"/><use x="31.928064" xlink:href="#U" y="58.075468"/></g><use x="36.470855" xlink:href="#V" y="58.075468"/><use x="40.406363" xlink:href="#W" y="58.075468"/><use x="14.709315" xlink:href="#Y" y="58.075468"/><use x="21.162145" xlink:href="#Z" y="59.50943"/></g><path d="m180.320312 90.648438h7.171876v143.394531h-7.171876zm0 0" fill="#fff"/><path d="m184.621094 90.289062h2.152344v.71875h-2.152344zm3.226562 1.792969v2.152344h-.714844v-2.152344zm0 4.300781v2.152344h-.714844v-2.152344zm0 4.304688v2.148438h-.714844v-2.148438zm0 4.300781v2.148438h-.714844v-2.148438zm0 4.300781v2.152344h-.714844v-2.152344zm0 4.300782v2.152344h-.714844v-2.152344zm0 4.304687v2.148438h-.714844v-2.148438zm0 4.300781v2.152344h-.714844v-2.152344zm0 4.300782v2.152344h-.714844v-2.152344zm0 4.304687v2.148438h-.714844v-2.148438zm0 4.300781v2.148438h-.714844v-2.148438zm0 4.300782v2.152344h-.714844v-2.152344zm0 4.300781v2.152344h-.714844v-2.152344zm0 4.304687v2.148438h-.714844v-2.148438zm0 4.300782v2.152344h-.714844v-2.152344zm0 4.300781v2.152344h-.714844v-2.152344zm0 4.300781v2.152344h-.714844v-2.152344zm0 4.304688v2.148437h-.714844v-2.148437zm0 4.300781v2.152344h-.714844v-2.152344zm0 4.300781v2.152344h-.714844v-2.152344zm0 4.304688v2.148437h-.714844v-2.148437zm0 4.300781v2.152344h-.714844v-2.152344zm0 4.300781v2.152344h-.714844v-2.152344zm0 4.300782v2.152343h-.714844v-2.152343zm0 4.304687v2.148437h-.714844v-2.148437zm0 4.300781v2.152344h-.714844v-2.152344zm0 4.300782v2.152343h-.714844v-2.152343zm0 4.304687v2.148437h-.714844v-2.148437zm0 4.300781v2.152344h-.714844v-2.152344zm0 4.300782v2.152343h-.714844v-2.152343zm0 4.300781v2.152343h-.714844v-2.152343zm0 4.304687v2.148438h-.714844v-2.148438zm0 4.300782v2.152343h-.714844v-2.152343zm-.355468 4.660156h-2.152344v-.714844h2.152344zm-4.304688 0h-2.148438v-.714844h2.148438zm-3.226562-1.792969v-2.148437h.71875v2.148437zm0-4.300781v-2.152344h.71875v2.152344zm0-4.300782v-2.152343h.71875v2.152343zm0-4.304687v-2.148437h.71875v2.148437zm0-4.300781v-2.152344h.71875v2.152344zm0-4.300782v-2.152343h.71875v2.152343zm0-4.300781v-2.152343h.71875v2.152343zm0-4.304687v-2.148438h.71875v2.148438zm0-4.300782v-2.152343h.71875v2.152343zm0-4.300781v-2.152343h.71875v2.152343zm0-4.304687v-2.148438h.71875v2.148438zm0-4.300782v-2.152343h.71875v2.152343zm0-4.300781v-2.152343h.71875v2.152343zm0-4.300781v-2.152344h.71875v2.152344zm0-4.304688v-2.148437h.71875v2.148437zm0-4.300781v-2.152343h.71875v2.152343zm0-4.300781v-2.152344h.71875v2.152344zm0-4.304688v-2.148437h.71875v2.148437zm0-4.300781v-2.152343h.71875v2.152343zm0-4.300781v-2.152344h.71875v2.152344zm0-4.300781v-2.152344h.71875v2.152344zm0-4.304688v-2.148437h.71875v2.148437zm0-4.300781v-2.152344h.71875v2.152344zm0-4.300781v-2.152344h.71875v2.152344zm0-4.304688v-2.148437h.71875v2.148437zm0-4.300781v-2.152344h.71875v2.152344zm0-4.300781v-2.152344h.71875v2.152344zm0-4.300781v-2.152344h.71875v2.152344zm0-4.304688v-2.148438h.71875v2.148438zm0-4.300781v-2.152344h.71875v2.152344zm0-4.300781v-2.152344h.71875v2.152344zm0-4.304688v-2.148438h.71875v2.148438zm0-4.300781v-2.148438h.71875v2.148438zm.359374-4.660157h2.152344v.71875h-2.152344zm0 0"/><use x="187.182256" xlink:href="#ab" y="168.664413"/><g><use x="187.182256" xlink:href="#ac" y="164.405555"/><use x="187.182256" xlink:href="#ad" y="159.406763"/></g><path d="m80.999492 85.930105 162.100032 38.137338" fill="none" stroke="#000" stroke-miterlimit="10" transform="matrix(.716981 0 0 .716981 .358491 .358491)"/><path d="m249.909763 125.669211-7.611124 1.8088 1.601769-6.815688zm0 0" stroke="#000" stroke-miterlimit="10" transform="matrix(.716981 0 0 .716981 .358491 .358491)"/><g clip-path="url(#b)"><g clip-path="url(#e)" mask="url(#d)"><path d="m101.09375 65.246094h36.566406v9.320312h-36.566406zm0 0" fill="#fff"/><use x="101.228767" xlink:href="#ae" y="72.415089"/><use x="105.527065" xlink:href="#ag" y="72.415089"/><use x="108.374191" xlink:href="#am" y="72.415089"/><use x="112.664602" xlink:href="#ah" y="72.415089"/><use x="115.787751" xlink:href="#ag" y="72.415089"/><use x="118.634878" xlink:href="#S" y="72.415089"/><use fill="#333" x="120.72169" xlink:href="#T" y="72.415089"/><use x="124.665086" xlink:href="#U" y="72.415089"/><use x="129.207877" xlink:href="#V" y="72.415089"/><use x="133.143385" xlink:href="#W" y="72.415089"/></g></g><g clip-path="url(#f)"><path d="m250.999401 325.928374-167.689876 56.879116" fill="none" stroke="#000" stroke-miterlimit="10" transform="matrix(.716981 0 0 .716981 .358491 .358491)"/></g><path d="m89.329776 376.019044-7.0772 7.153475 9.964741 1.367495" fill="none" stroke="#000" stroke-miterlimit="10" transform="matrix(.716981 0 0 .716981 .358491 .358491)"/><g clip-path="url(#g)"><g clip-path="url(#i)" mask="url(#h)"><path d="m96.074219 243.773438h46.605469v9.320312h-46.605469zm0 0" fill="#fff"/><use x="96.165088" xlink:href="#af" y="250.943379"/><use x="100.502814" xlink:href="#ai" y="250.943379"/><use x="105.108698" xlink:href="#aj" y="250.943379"/><use x="111.867669" xlink:href="#aj" y="250.943379"/><use x="118.62664" xlink:href="#an" y="250.943379"/><use x="120.850708" xlink:href="#ag" y="250.943379"/><use x="123.697835" xlink:href="#S" y="250.943379"/><use fill="#333" x="125.785369" xlink:href="#T" y="250.943379"/><use x="129.728765" xlink:href="#U" y="250.943379"/><use x="134.271556" xlink:href="#V" y="250.943379"/><use x="138.207064" xlink:href="#W" y="250.943379"/></g></g><path d="m125.113281 148.007812h7.167969v28.679688h-7.167969zm0 0" fill="#fff"/><path d="m129.414062 147.648438h2.152344v.714843h-2.152344zm3.226563 1.792968v2.148438h-.714844v-2.148438zm0 4.300782v2.152343h-.714844v-2.152343zm0 4.300781v2.152343h-.714844v-2.152343zm0 4.304687v2.148438h-.714844v-2.148438zm0 4.300782v2.152343h-.714844v-2.152343zm0 4.300781v2.152343h-.714844v-2.152343zm0 4.300781v1.792969h-1.074219v-.714844h.714844v.359375h-.355469v-1.4375zm-3.226563 1.792969h-2.148437v-.714844h2.148437zm-4.660156-.355469v-2.152344h.71875v2.152344zm0-4.304688v-2.148437h.71875v2.148437zm0-4.300781v-2.152343h.71875v2.152343zm0-4.300781v-2.152344h.71875v2.152344zm0-4.304688v-2.148437h.71875v2.148437zm0-4.300781v-2.152343h.71875v2.152343zm0-4.300781v-2.152344h.71875v2.152344zm.359375-3.226562h2.152344v.714843h-2.152344zm0 0"/><use x="131.974713" xlink:href="#ab" y="168.664428"/><g><use x="131.974713" xlink:href="#ac" y="164.405569"/><use x="131.974713" xlink:href="#ad" y="159.406777"/></g><path d="m80.999492 163.120077 85.62922 39.417663" fill="none" stroke="#000" stroke-miterlimit="10" transform="matrix(.716981 0 0 .716981 .358491 .358491)"/><path d="m172.981303 205.457971-7.823602.250617 2.931127-6.347143zm0 0" stroke="#000" stroke-miterlimit="10" transform="matrix(.716981 0 0 .716981 .358491 .358491)"/><g clip-path="url(#j)"><g clip-path="url(#l)" mask="url(#k)"><path d="m73.132812 121.167969h36.566407v9.324219h-36.566407zm0 0" fill="#fff"/><use x="73.255302" xlink:href="#ae" y="128.339614"/><use x="77.5536" xlink:href="#ag" y="128.339614"/><use x="80.400726" xlink:href="#am" y="128.339614"/><use x="84.691137" xlink:href="#ah" y="128.339614"/><use x="87.814286" xlink:href="#ag" y="128.339614"/><use x="90.661413" xlink:href="#S" y="128.339614"/><use fill="#333" x="92.748225" xlink:href="#T" y="128.339614"/><use x="96.691621" xlink:href="#U" y="128.339614"/><use x="101.234412" xlink:href="#X" y="128.339614"/><use x="105.185685" xlink:href="#W" y="128.339614"/></g></g><path d="m174.000115 243.927649-90.619764 60.551196" fill="none" stroke="#000" stroke-miterlimit="10" transform="matrix(.716981 0 0 .716981 .358491 .358491)"/><path d="m87.428357 296.36104-4.979646 8.738899 9.981086-1.258532" fill="none" stroke="#000" stroke-miterlimit="10" transform="matrix(.716981 0 0 .716981 .358491 .358491)"/><g clip-path="url(#m)"><g clip-path="url(#o)" mask="url(#n)"><path d="m68.113281 186.414062h46.605469v9.320313h-46.605469zm0 0" fill="#fff"/><use x="68.191623" xlink:href="#af" y="193.584892"/><use x="72.529349" xlink:href="#ai" y="193.584892"/><use x="77.135233" xlink:href="#aj" y="193.584892"/><use x="83.894204" xlink:href="#aj" y="193.584892"/><use x="90.653175" xlink:href="#an" y="193.584892"/><use x="92.877243" xlink:href="#ag" y="193.584892"/><use x="95.72437" xlink:href="#S" y="193.584892"/><use fill="#333" x="97.811904" xlink:href="#T" y="193.584892"/><use x="101.7553" xlink:href="#U" y="193.584892"/><use x="106.298091" xlink:href="#X" y="193.584892"/><use x="110.249363" xlink:href="#W" y="193.584892"/></g></g><path d="m15.000104 161.932372h48.881171" fill="none" stroke="#000" stroke-miterlimit="10" transform="matrix(.716981 0 0 .716981 .358491 .358491)"/><path d="m15.000104 161.932372c0 .528474-.103516 1.040604-.305099 1.530941-.201583.484889-.490337.920745-.866262 1.29667s-.806333.664679-1.29667.866262-1.002467.305099-1.530941.305099c-.533923 0-1.040605-.103516-1.530942-.305099s-.926193-.490337-1.29667-.866262c-.375925-.375925-.664679-.811781-.87171-1.29667-.201583-.490337-.299651-1.002467-.299651-1.530941 0-.533923.098068-1.040605.299651-1.530942.207031-.490337.495785-.926193.87171-1.302118.370477-.370477.806333-.659231 1.29667-.866262.490337-.201583.997019-.305099 1.530942-.305099.528474 0 1.040604.103516 1.530941.305099.490337.207031.920745.495785 1.29667.866262.375925.375925.664679.811781.866262 1.302118s.305099.997019.305099 1.530942zm0 0" stroke="#000" transform="matrix(.716981 0 0 .716981 .358491 .358491)"/><path d="m70.882201 161.932372-7.000926 3.497738v-7.000925zm0 0" stroke="#000" stroke-miterlimit="10" transform="matrix(.716981 0 0 .716981 .358491 .358491)"/><path d="m15.054688 105.394531h30.832031v9.324219h-30.832031zm0 0" fill="#fff"/><use x="26.60672" xlink:href="#S" y="112.56603"/><use fill="#333" x="28.690446" xlink:href="#T" y="112.56603"/><use x="32.633842" xlink:href="#U" y="112.56603"/><use x="37.176633" xlink:href="#X" y="112.56603"/><use x="41.127906" xlink:href="#W" y="112.56603"/><use x="15.415093" xlink:href="#Y" y="112.56603"/><use x="21.867923" xlink:href="#aa" y="113.999992"/><path d="m.998253 94.930517h52.504218l13.996403 14.001851v25.998768h-66.500621zm0 0" fill="#fff" stroke="#000" stroke-miterlimit="10" transform="matrix(.716981 0 0 .716981 .358491 .358491)"/><path d="m53.502471 94.930517v14.001851h13.996403" fill="none" stroke="#000" stroke-miterlimit="10" transform="matrix(.716981 0 0 .716981 .358491 .358491)"/><use x="2.150943" xlink:href="#aq" y="76.716976"/><use x="7.106707" xlink:href="#aw" y="76.716976"/><use x="10.83214" xlink:href="#ax" y="76.716976"/><use x="15.633045" xlink:href="#ax" y="76.716976"/><use x="2.150943" xlink:href="#ar" y="86.754711"/><use x="4.430938" xlink:href="#x" y="86.754711"/><use x="6.710932" xlink:href="#as" y="86.754711"/><use fill="#333" x="9.488797" xlink:href="#at" y="86.754711"/><use x="13.790683" xlink:href="#aq" y="86.754711"/><use x="18.746447" xlink:href="#ay" y="86.754711"/><use x="23.039724" xlink:href="#ax" y="86.754711"/><use x="27.840628" xlink:href="#au" y="86.754711"/><path d="m.998253 170.927335h52.504218l13.996403 14.001851v36.001648h-66.500621zm0 0" fill="#fff" stroke="#000" stroke-miterlimit="10" transform="matrix(.716981 0 0 .716981 .358491 .358491)"/><path d="m53.502471 170.927335v14.001851h13.996403" fill="none" stroke="#000" stroke-miterlimit="10" transform="matrix(.716981 0 0 .716981 .358491 .358491)"/><use x="2.150943" xlink:href="#aq" y="131.207538"/><use x="7.106707" xlink:href="#aw" y="131.207538"/><use x="10.83214" xlink:href="#ax" y="131.207538"/><use x="15.633045" xlink:href="#ax" y="131.207538"/><use x="2.150943" xlink:href="#ar" y="141.245273"/><use x="4.430938" xlink:href="#x" y="141.245273"/><use x="6.710932" xlink:href="#as" y="141.245273"/><use fill="#333" x="9.488797" xlink:href="#at" y="141.245273"/><use x="13.790683" xlink:href="#aq" y="141.245273"/><use x="18.746447" xlink:href="#ay" y="141.245273"/><use x="23.039724" xlink:href="#ax" y="141.245273"/><use x="27.839031" xlink:href="#au" y="141.245273"/><use x="2.150943" xlink:href="#ar" y="151.283008"/><use x="4.430938" xlink:href="#x" y="151.283008"/><use x="6.710932" xlink:href="#as" y="151.283008"/><use fill="#333" x="9.488797" xlink:href="#at" y="151.283008"/><use x="13.790683" xlink:href="#aq" y="151.283008"/><use x="18.746447" xlink:href="#az" y="151.283008"/><use x="23.056933" xlink:href="#ax" y="151.283008"/><use x="27.850234" xlink:href="#au" y="151.283008"/><path d="m.998253 310.929504h52.504218l13.996403 14.001851v35.996199h-66.500621zm0 0" fill="#fff" stroke="#000" stroke-miterlimit="10" transform="matrix(.716981 0 0 .716981 .358491 .358491)"/><path d="m53.502471 310.929504v14.001851h13.996403" fill="none" stroke="#000" stroke-miterlimit="10" transform="matrix(.716981 0 0 .716981 .358491 .358491)"/><use x="2.150943" xlink:href="#aq" y="231.58489"/><use x="7.106707" xlink:href="#aw" y="231.58489"/><use x="10.83214" xlink:href="#ax" y="231.58489"/><use x="15.633045" xlink:href="#ax" y="231.58489"/><use x="2.150943" xlink:href="#ar" y="241.622625"/><use x="4.430938" xlink:href="#x" y="241.622625"/><use x="6.710932" xlink:href="#as" y="241.622625"/><use fill="#333" x="9.488797" xlink:href="#at" y="241.622625"/><use x="13.790683" xlink:href="#aq" y="241.622625"/><use x="18.746447" xlink:href="#ay" y="241.622625"/><use x="23.039724" xlink:href="#ax" y="241.622625"/><use x="27.839031" xlink:href="#au" y="241.622625"/><use x="2.150943" xlink:href="#F" y="251.66036"/><use x="7.295996" xlink:href="#G" y="251.66036"/><use x="12.028064" xlink:href="#H" y="251.66036"/><use x="14.824275" xlink:href="#G" y="251.66036"/><use x="19.556344" xlink:href="#P" y="251.66036"/><use x="22.877392" xlink:href="#ar" y="251.66036"/><use fill="#333" x="25.150352" xlink:href="#at" y="251.66036"/><use x="29.452239" xlink:href="#aq" y="251.66036"/><use x="34.408003" xlink:href="#az" y="251.66036"/><use x="38.718488" xlink:href="#ax" y="251.66036"/><path d="m.998253 388.931257h52.504218l13.996403 13.996403v76.002266h-66.500621zm0 0" fill="#fff" stroke="#000" stroke-miterlimit="10" transform="matrix(.716981 0 0 .716981 .358491 .358491)"/><path d="m53.502471 388.931257v13.996403h13.996403" fill="none" stroke="#000" stroke-miterlimit="10" transform="matrix(.716981 0 0 .716981 .358491 .358491)"/><use x="2.150943" xlink:href="#aq" y="287.509414"/><use x="7.106707" xlink:href="#aw" y="287.509414"/><use x="10.83214" xlink:href="#ax" y="287.509414"/><use x="15.633045" xlink:href="#ax" y="287.509414"/><use x="2.150943" xlink:href="#I" y="297.547149"/><use x="6.831396" xlink:href="#Q" y="297.547149"/><use x="11.94203" xlink:href="#Q" y="297.547149"/><use x="17.052665" xlink:href="#R" y="297.547149"/><use x="19.573564" xlink:href="#O" y="297.547149"/><use x="23.806614" xlink:href="#ar" y="297.547149"/><use fill="#333" x="26.080187" xlink:href="#at" y="297.547149"/><use x="30.382073" xlink:href="#aq" y="297.547149"/><use x="35.337837" xlink:href="#ay" y="297.547149"/><use x="39.631114" xlink:href="#ax" y="297.547149"/><path d="m2.152344 308.300781h22.996094v.71875h-22.996094zm0 0"/><use x="2.150943" xlink:href="#F" y="307.584884"/><use x="7.295996" xlink:href="#G" y="307.584884"/><use x="12.028064" xlink:href="#H" y="307.584884"/><use x="14.824275" xlink:href="#G" y="307.584884"/><use x="19.556344" xlink:href="#P" y="307.584884"/><use x="22.877392" xlink:href="#ar" y="307.584884"/><path d="m25.148438 308.300781h4.304687v.71875h-4.304687zm0 0" fill="#333"/><use fill="#333" x="25.150352" xlink:href="#at" y="307.584884"/><path d="m29.453125 308.300781h14.058594v.71875h-14.058594zm0 0"/><use x="29.452239" xlink:href="#aq" y="307.584884"/><use x="34.408003" xlink:href="#az" y="307.584884"/><use x="38.718488" xlink:href="#ax" y="307.584884"/><use x="2.150943" xlink:href="#aq" y="317.622619"/><use x="7.106707" xlink:href="#aA" y="317.622619"/><use x="10.926774" xlink:href="#ax" y="317.622619"/><g clip-path="url(#p)"><path d="m2.152344 328.378906h23.929687v.714844h-23.929687zm0 0"/></g><use x="2.150943" xlink:href="#I" y="327.660355"/><use x="6.831396" xlink:href="#Q" y="327.660355"/><use x="11.94203" xlink:href="#Q" y="327.660355"/><use x="17.052665" xlink:href="#R" y="327.660355"/><use x="19.573564" xlink:href="#O" y="327.660355"/><use x="23.806614" xlink:href="#ar" y="327.660355"/><path d="m26.082031 328.378906h4.300781v.714844h-4.300781zm0 0" fill="#333"/><use fill="#333" x="26.080187" xlink:href="#at" y="327.660355"/><path d="m30.382812 328.378906h14.058594v.714844h-14.058594zm0 0"/><use x="30.382073" xlink:href="#aq" y="327.660355"/><use x="35.337837" xlink:href="#az" y="327.660355"/><use x="39.648323" xlink:href="#ax" y="327.660355"/><use x="2.150943" xlink:href="#aq" y="337.69809"/><use x="7.106707" xlink:href="#aB" y="337.69809"/><use x="11.365566" xlink:href="#ax" y="337.69809"/><path d="m51.265625 220.0625h-2.152344v-.714844h2.152344m-4.304687.714844h-2.148438v-.714844h2.148438m-4.300782.714844h-2.152344v-.714844h2.152344m-4.300781.714844h-2.152344v-.714844h2.152344m-4.304687.714844h-2.148438v-.714844h2.148438m-4.300782.714844h-2.148437v-.714844h2.148437m-4.300781.714844h-2.152344v-.714844h2.152344m-4.300781.714844h-2.152344v-.714844h2.152344m-4.304688.714844h-2.148437v-.714844h2.148437m-4.300781.714844h-2.152344v-.714844h2.152344"/><path d="m21.118423 301.427858-9.000412 4.500206 9.000412 4.500206" fill="none" stroke="#000" stroke-miterlimit="10" transform="matrix(.716981 0 0 .716981 .358491 .358491)"/><g clip-path="url(#q)"><g clip-path="url(#s)" mask="url(#r)"><path d="m3.585938 208.640625h46.601562v9.320313h-46.601562zm0 0" fill="#fff"/><use x="3.293632" xlink:href="#ae" y="215.811306"/><use x="7.59193" xlink:href="#ak" y="215.811306"/><use x="12.182038" xlink:href="#ao" y="215.811306"/><use x="15.873053" xlink:href="#ao" y="215.811306"/><use x="19.564068" xlink:href="#ap" y="215.811306"/><use x="23.901794" xlink:href="#al" y="215.811306"/><use x="27.584922" xlink:href="#al" y="215.811306"/><use x="31.268049" xlink:href="#S" y="215.811306"/><use fill="#333" x="33.350823" xlink:href="#T" y="215.811306"/><use x="37.294219" xlink:href="#U" y="215.811306"/><use x="41.83701" xlink:href="#X" y="215.811306"/><use x="45.788283" xlink:href="#W" y="215.811306"/></g></g><path d="m51.265625 275.988281h-2.152344v-.71875h2.152344m-4.304687.71875h-2.148438v-.71875h2.148438m-4.300782.71875h-2.152344v-.71875h2.152344m-4.300781.71875h-2.152344v-.71875h2.152344m-4.304687.71875h-2.148438v-.71875h2.148438m-4.300782.71875h-2.148437v-.71875h2.148437m-4.300781.71875h-2.152344v-.71875h2.152344m-4.300781.71875h-2.152344v-.71875h2.152344m-4.304688.71875h-2.148437v-.71875h2.148437m-4.300781.71875h-2.152344v-.71875h2.152344"/><path d="m21.118423 379.429611-9.000412 4.500206 9.000412 4.500206" fill="none" stroke="#000" stroke-miterlimit="10" transform="matrix(.716981 0 0 .716981 .358491 .358491)"/><g clip-path="url(#t)"><g clip-path="url(#v)" mask="url(#u)"><path d="m3.585938 264.566406h46.601562v9.320313h-46.601562zm0 0" fill="#fff"/><use x="3.316038" xlink:href="#ae" y="271.73583"/><use x="7.614336" xlink:href="#ak" y="271.73583"/><use x="12.204443" xlink:href="#ao" y="271.73583"/><use x="15.895458" xlink:href="#ao" y="271.73583"/><use x="19.586473" xlink:href="#ap" y="271.73583"/><use x="23.9242" xlink:href="#al" y="271.73583"/><use x="27.607327" xlink:href="#al" y="271.73583"/><use x="31.290454" xlink:href="#S" y="271.73583"/><use fill="#333" x="33.373229" xlink:href="#T" y="271.73583"/><use x="37.316625" xlink:href="#U" y="271.73583"/><use x="41.859416" xlink:href="#V" y="271.73583"/><use x="45.794924" xlink:href="#W" y="271.73583"/></g></g><path d="m115.001653 109.929387c0 .986122-.098068 1.961349-.288754 2.925678-.190687.969778-.479441 1.906867-.855366 2.816715-.375926.909848-.839022 1.770662-1.383841 2.593339-.550267.817229-1.171361 1.574528-1.868729 2.271896-.697369.697368-1.454668 1.318462-2.271896 1.863281-.817229.550268-1.683491 1.013364-2.593339 1.389289s-1.846937.659231-2.811267.849918c-.969778.196135-1.945004.288754-2.931127.288754-.980674 0-1.9559-.092619-2.925678-.288754-.96433-.190687-1.901419-.473993-2.811267-.849918s-1.77611-.839021-2.593339-1.389289c-.817229-.544819-1.574527-1.165913-2.271896-1.863281-.697368-.697368-1.318462-1.454667-1.868729-2.271896-.544819-.822677-1.007916-1.683491-1.383841-2.593339s-.664679-1.846937-.855366-2.816715c-.190687-.964329-.288754-1.939556-.288754-2.925678 0-.986123.098067-1.961349.288754-2.925679s.479441-1.901419.855366-2.811266c.375925-.915297.839022-1.776111 1.383841-2.593339.550267-.822677 1.171361-1.579976 1.868729-2.277344.697369-.697369 1.454667-1.318463 2.271896-1.863282.817229-.550267 1.683491-1.007915 2.593339-1.389289.909848-.375925 1.846937-.659231 2.811267-.849917.969778-.190687 1.945004-.288754 2.925678-.288754.986123 0 1.961349.098067 2.931127.288754.96433.190686 1.901419.473992 2.811267.849917.909848.381374 1.77611.839022 2.593339 1.389289.817228.544819 1.574527 1.165913 2.271896 1.863282.697368.697368 1.318462 1.454667 1.868729 2.277344.544819.817228 1.007915 1.678042 1.383841 2.593339.375925.909847.664679 1.846936.855366 2.811266.190686.96433.288754 1.939556.288754 2.925679zm0 0" fill="#dae8fc" stroke="#6c8ebf" transform="matrix(.716981 0 0 .716981 .358491 .358491)"/><use x="68.583722" xlink:href="#aC" y="84.603768"/><path d="m115.001653 200.930524c0 .986123-.098068 1.961349-.288754 2.925679-.190687.964329-.479441 1.901418-.855366 2.816714-.375926.909848-.839022 1.770663-1.383841 2.587891-.550267.822677-1.171361 1.579976-1.868729 2.277344-.697369.697369-1.454668 1.318462-2.271896 1.863281-.817229.550268-1.683491 1.007916-2.593339 1.389289-.909848.375925-1.846937.659231-2.811267.849918-.969778.190687-1.945004.288754-2.931127.288754-.980674 0-1.9559-.098067-2.925678-.288754-.96433-.190687-1.901419-.473993-2.811267-.849918-.909848-.381373-1.77611-.839021-2.593339-1.389289-.817229-.544819-1.574527-1.165912-2.271896-1.863281-.697368-.697368-1.318462-1.454667-1.868729-2.277344-.544819-.817228-1.007916-1.678043-1.383841-2.587891-.375925-.915296-.664679-1.852385-.855366-2.816714-.190687-.96433-.288754-1.939556-.288754-2.925679s.098067-1.961349.288754-2.925679c.190687-.969778.479441-1.906867.855366-2.816715s.839022-1.770662 1.383841-2.593339c.550267-.817228 1.171361-1.574527 1.868729-2.271895.697369-.697369 1.454667-1.318463 2.271896-1.863282.817229-.550267 1.683491-1.013363 2.593339-1.389288.909848-.375926 1.846937-.659232 2.811267-.849918.969778-.196135 1.945004-.288754 2.925678-.288754.986123 0 1.961349.092619 2.931127.288754.96433.190686 1.901419.473992 2.811267.849918.909848.375925 1.77611.839021 2.593339 1.389288.817228.544819 1.574527 1.165913 2.271896 1.863282.697368.697368 1.318462 1.454667 1.868729 2.271895.544819.822677 1.007915 1.683491 1.383841 2.593339.375925.909848.664679 1.846937.855366 2.816715.190686.96433.288754 1.939556.288754 2.925679zm0 0" fill="#dae8fc" stroke="#6c8ebf" transform="matrix(.716981 0 0 .716981 .358491 .358491)"/><use x="68.146811" xlink:href="#aD" y="149.849046"/><path d="m115.001653 320.932383c0 .980674-.098068 1.9559-.288754 2.925678-.190687.96433-.479441 1.901419-.855366 2.811267-.375926.909848-.839022 1.77611-1.383841 2.593339-.550267.817229-1.171361 1.579975-1.868729 2.271896-.697369.697368-1.454668 1.318462-2.271896 1.868729-.817229.544819-1.683491 1.007916-2.593339 1.383841s-1.846937.664679-2.811267.855366c-.969778.190686-1.945004.288754-2.931127.288754-.980674 0-1.9559-.098068-2.925678-.288754-.96433-.190687-1.901419-.479441-2.811267-.855366s-1.77611-.839022-2.593339-1.383841c-.817229-.550267-1.574527-1.171361-2.271896-1.868729-.697368-.691921-1.318462-1.454667-1.868729-2.271896-.544819-.817229-1.007916-1.683491-1.383841-2.593339s-.664679-1.846937-.855366-2.811267c-.190687-.969778-.288754-1.945004-.288754-2.925678 0-.986123.098067-1.961349.288754-2.931127.190687-.96433.479441-1.901419.855366-2.811267s.839022-1.77611 1.383841-2.593339c.550267-.817229 1.171361-1.574527 1.868729-2.271896.697369-.697368 1.454667-1.318462 2.271896-1.868729.817229-.544819 1.683491-1.007916 2.593339-1.383841s1.846937-.659231 2.811267-.855366c.969778-.190686 1.945004-.288754 2.925678-.288754.986123 0 1.961349.098068 2.931127.288754.96433.196135 1.901419.479441 2.811267.855366s1.77611.839022 2.593339 1.383841c.817228.550267 1.574527 1.171361 2.271896 1.868729.697368.697369 1.318462 1.454667 1.868729 2.271896.544819.817229 1.007915 1.683491 1.383841 2.593339.375925.909848.664679 1.846937.855366 2.811267.190686.969778.288754 1.945004.288754 2.931127zm0 0" fill="#dae8fc" stroke="#6c8ebf" transform="matrix(.716981 0 0 .716981 .358491 .358491)"/><use x="68.113203" xlink:href="#aE" y="235.886776"/><path d="m115.001653 403.930127c0 .986122-.098068 1.961349-.288754 2.925679-.190687.964329-.479441 1.906866-.855366 2.816714-.375926.909848-.839022 1.770662-1.383841 2.593339-.550267.817229-1.171361 1.574528-1.868729 2.271896-.697369.697369-1.454668 1.318462-2.271896 1.863281-.817229.550268-1.683491 1.007916-2.593339 1.389289-.909848.375925-1.846937.659231-2.811267.849918-.969778.196135-1.945004.288754-2.931127.288754-.980674 0-1.9559-.092619-2.925678-.288754-.96433-.190687-1.901419-.473993-2.811267-.849918-.909848-.381373-1.77611-.839021-2.593339-1.389289-.817229-.544819-1.574527-1.165912-2.271896-1.863281-.697368-.697368-1.318462-1.454667-1.868729-2.271896-.544819-.822677-1.007916-1.683491-1.383841-2.593339s-.664679-1.852385-.855366-2.816714c-.190687-.96433-.288754-1.939557-.288754-2.925679 0-.986123.098067-1.961349.288754-2.925679s.479441-1.906867.855366-2.816715.839022-1.770662 1.383841-2.593339c.550267-.817228 1.171361-1.574527 1.868729-2.271895.697369-.697369 1.454667-1.318463 2.271896-1.863282.817229-.550267 1.683491-1.007915 2.593339-1.389288.909848-.375926 1.846937-.659232 2.811267-.849918.969778-.196135 1.945004-.288754 2.925678-.288754.986123 0 1.961349.092619 2.931127.288754.96433.190686 1.901419.473992 2.811267.849918.909848.381373 1.77611.839021 2.593339 1.389288.817228.544819 1.574527 1.165913 2.271896 1.863282.697368.697368 1.318462 1.454667 1.868729 2.271895.544819.822677 1.007915 1.683491 1.383841 2.593339.375925.909848.664679 1.852385.855366 2.816715.190686.96433.288754 1.939556.288754 2.925679zm0 0" fill="#dae8fc" stroke="#6c8ebf" transform="matrix(.716981 0 0 .716981 .358491 .358491)"/><use x="67.877943" xlink:href="#aF" y="295.396206"/><path d="m15.054688 34.414062h78.871093v10.039063h-78.871093zm0 0" fill="#fff"/><use x="15.269456" xlink:href="#C" y="42.301884"/><use x="17.807565" xlink:href="#M" y="42.301884"/><use x="22.849374" xlink:href="#E" y="42.301884"/><use x="25.275629" xlink:href="#N" y="42.301884"/><use x="28.381581" xlink:href="#E" y="42.301884"/><use x="30.807836" xlink:href="#I" y="42.301884"/><use x="35.488288" xlink:href="#R" y="42.301884"/><use x="38.009187" xlink:href="#x" y="42.301884"/><use x="40.289182" xlink:href="#J" y="42.301884"/><use x="45.399816" xlink:href="#I" y="42.301884"/><use x="50.080269" xlink:href="#R" y="42.301884"/><use x="52.601168" xlink:href="#I" y="42.301884"/><use x="57.281621" xlink:href="#M" y="42.301884"/><use x="62.32343" xlink:href="#D" y="42.301884"/><use x="66.349983" xlink:href="#G" y="42.301884"/><use x="71.082051" xlink:href="#av" y="42.301884"/><use x="73.146949" xlink:href="#x" y="42.301884"/><use x="75.426944" xlink:href="#aq" y="42.301884"/><use x="80.382708" xlink:href="#aw" y="42.301884"/><use x="84.108141" xlink:href="#ax" y="42.301884"/><use x="88.909046" xlink:href="#ax" y="42.301884"/></svg>