<svg height="432pt" viewBox="0 0 203.03999 432" width="203.03999pt" xmlns="http://www.w3.org/2000/svg" xmlns:xlink="http://www.w3.org/1999/xlink"><clipPath id="a"><path d="m0 0h203v431.824219h-203zm0 0"/></clipPath><clipPath id="b"><path d="m177 76h26v26h-26zm0 0"/></clipPath><clipPath id="c"><path d="m0 0h203v430.386719h-203zm0 0"/></clipPath><filter id="d" height="100%" width="100%" x="0%" y="0%"><feColorMatrix in="SourceGraphic" type="matrix" values="0 0 0 0 1 0 0 0 0 1 0 0 0 0 1 0 0 0 1 0"/></filter><mask id="e"><g filter="url(#d)"><path d="m0 0h203.03999v432h-203.03999z" fill-opacity=".898"/></g></mask><clipPath id="f"><path d="m0 0h203v431h-203z"/></clipPath><clipPath id="g"><path d="m63 224h140v63h-140zm0 0"/></clipPath><clipPath id="h"><path d="m0 0h203v430.386719h-203zm0 0"/></clipPath><mask id="i"><g filter="url(#d)"><path d="m0 0h203.03999v432h-203.03999z" fill-opacity=".898"/></g></mask><clipPath id="j"><path d="m0 0h203v431h-203z"/></clipPath><clipPath id="k"><path d="m0 0h203v430.386719h-203zm0 0"/></clipPath><mask id="l"><g filter="url(#d)"><path d="m0 0h203.03999v432h-203.03999z" fill-opacity=".898"/></g></mask><clipPath id="m"><path d="m0 0h203v431h-203z"/></clipPath><clipPath id="n"><path d="m0 0h203v430.386719h-203zm0 0"/></clipPath><mask id="o"><g filter="url(#d)"><path d="m0 0h203.03999v432h-203.03999z" fill-opacity=".898"/></g></mask><clipPath id="p"><path d="m0 0h203v431h-203z"/></clipPath><clipPath id="q"><path d="m4 378h68v52.386719h-68zm0 0"/></clipPath><clipPath id="r"><path d="m22.933594 407h2.601562v2h-2.601562zm13.472656 0h3.59375v2h-3.59375zm-8.359375 0h4.742187v2h-4.742187zm-13.046875 0h5.421875v2h-5.421875zm0 0"/></clipPath><clipPath id="s"><path d="m22.933594 303h2.601562v2h-2.601562zm13.472656 0h3.59375v2h-3.59375zm-8.359375 0h4.742187v2h-4.742187zm-13.046875 0h5.421875v2h-5.421875zm0 0"/></clipPath><clipPath id="t"><path d="m0 0h203v430.386719h-203zm0 0"/></clipPath><mask id="u"><g filter="url(#d)"><path d="m0 0h203.03999v432h-203.03999z" fill-opacity=".898"/></g></mask><clipPath id="v"><path d="m0 0h203v431h-203z"/></clipPath><clipPath id="w"><path d="m0 0h203v430.386719h-203zm0 0"/></clipPath><mask id="x"><g filter="url(#d)"><path d="m0 0h203.03999v432h-203.03999z" fill-opacity=".898"/></g></mask><clipPath id="y"><path d="m0 0h203v431h-203z"/></clipPath><clipPath id="z"><path d="m0 408h21v22.386719h-21zm0 0"/></clipPath><symbol id="A" overflow="visible"/><symbol id="B" overflow="visible"><path d="m.488281-2.320312h2.96875v-.605469h-2.96875zm0 0"/></symbol><symbol id="C" overflow="visible"><path d="m1.664062-1.824219h1.65625l.113282-.480469h-1.792969v-.710937h1.941406l.117188-.488281h-2.011719c.199219-.875.648438-1.253906 1.253906-1.253906.445313 0 .742188.109374 1.121094.339843l.285156-.496093c-.433594-.292969-.890625-.445313-1.4375-.445313-.976562 0-1.757812.65625-2.011718 1.855469h-.582032l-.121094.488281h.671876v.710937h-.550782l-.121094.480469h.695313c.207031 1.25.902344 1.917969 1.988281 1.917969.5 0 .859375-.125 1.214844-.300781v-.628907c-.304688.164063-.644531.324219-1.101562.324219-.78125 0-1.191407-.386719-1.328126-1.3125zm0 0"/></symbol><symbol id="D" overflow="visible"><path d="m1.773438-5.359375c-.566407 0-1.054688.207031-1.503907.625l.378907.433594c.355468-.332031.667968-.472657 1.085937-.472657.53125 0 .878906.308594.878906.804688 0 .617188-.433593.929688-.957031.929688h-.265625l-.089844.5625h.394531c.640626 0 1.050782.21875 1.050782.945312 0 .625-.402344 1.035156-1.066406 1.035156-.425782 0-.78125-.160156-1.128907-.523437l-.433593.402343c.402343.484376.957031.710938 1.585937.710938 1.097656 0 1.800781-.695312 1.800781-1.617188 0-.796874-.527344-1.214843-1.191406-1.277343.589844-.140625 1.023438-.542969 1.023438-1.214844 0-.710937-.550782-1.34375-1.5625-1.34375zm0 0"/></symbol><symbol id="E" overflow="visible"><path d="m2.203125-5.359375c-1.183594 0-1.769531.972656-1.769531 2.722656 0 1.753907.585937 2.730469 1.769531 2.730469s1.765625-.976562 1.765625-2.730469c0-1.742187-.582031-2.722656-1.765625-2.722656zm0 .578125c.652344 0 1.007813.597656 1.007813 2.144531 0 1.554688-.355469 2.15625-1.007813 2.15625-.664063 0-1.011719-.601562-1.011719-2.15625 0-1.546875.347656-2.144531 1.011719-2.144531zm0 0"/></symbol><symbol id="F" overflow="visible"><path d="m3.417969-5.277344h-2.859375v2.65625h.570312c.25-.117187.464844-.179687.75-.179687.542969 0 .960938.285156.960938 1.097656 0 .773437-.417969 1.207031-1.082032 1.207031-.457031 0-.796874-.167968-1.109374-.507812l-.441407.429687c.410157.417969.890625.667969 1.558594.667969 1.097656 0 1.832031-.734375 1.832031-1.78125 0-1.050781-.605468-1.675781-1.5-1.675781-.28125 0-.566406.066406-.84375.207031v-1.554688h2.058594zm0 0"/></symbol><symbol id="G" overflow="visible"><path d="m6.84375-6.34375h-.171875c-.144531.242188-.300781.261719-.40625.261719-.5 0-1-.261719-1.519531-.261719-2.328125 0-4.265625 1.570312-4.265625 3.78125 0 1.417969.914062 2.679688 2.773437 2.679688.375 0 1.105469-.0585942 1.859375-.589844.277344-.203125.59375-.488282.855469-.882813l-.191406-.128906c-.050782.070313-.097656.128906-.164063.195313-.433593.472656-1.136719.941406-2.082031.941406-1.296875 0-1.875-.980469-1.875-2.058594 0-1.644531 1.136719-3.582031 3.070312-3.582031 1.164063 0 1.464844.761719 1.464844 1.386719 0 .242187 0 .328124-.011718.40625h.15625zm0 0"/></symbol><symbol id="H" overflow="visible"><path d="m2.679688 0v-.101562c-.511719 0-.644532-.121094-.644532-.414063v-4.0625l-.0625-.019531-1.21875.621094v.09375l.183594-.066407c.125-.050781.238281-.082031.308594-.082031.140625 0 .203125.101562.203125.332031v3.054688c0 .371093-.144531.515625-.648438.542969v.101562zm0 0"/></symbol><symbol id="I" overflow="visible"><path d="m3.222656-.929688-.09375-.042968c-.226562.382812-.367187.457031-.652344.457031h-1.59375l1.125-1.199219c.601563-.636718.867188-1.148437.867188-1.683594 0-.675781-.488281-1.199218-1.257812-1.199218-.835938 0-1.269532.558594-1.414063 1.355468l.144531.03125c.269532-.664062.507813-.882812 1-.882812.578125 0 .945313.339844.945313.957031 0 .578125-.246094 1.097657-.886719 1.769531l-1.210938 1.2851568v.0820312h2.660157zm0 0"/></symbol><symbol id="J" overflow="visible"><path d="m-5.84375-1.960938c0 .722657.292969 1.28125.867188 1.746094l.414062-.535156c-.4375-.367188-.628906-.6875-.628906-1.167969 0-.5625.355468-.949219.957031-.949219.9375 0 1.488281.5 3.605469 2.53125h.628906v-3.398437l-.664062-.097656v2.59375c-1.761719-1.765625-2.53125-2.453125-3.605469-2.453125-.894531 0-1.574219.671875-1.574219 1.730468zm0 0"/></symbol><symbol id="K" overflow="visible"><path d="m-5.929688-2.417969v1.558594h5.929688v-.820313h-2.179688v-.746093c0-1.308594-.558593-2.300781-1.917968-2.300781-1.246094 0-1.832032.878906-1.832032 2.308593zm3.105469.023438v.714843h-2.46875v-.730468c0-.878906.316407-1.445313 1.203125-1.445313 1.007813 0 1.265625.585938 1.265625 1.460938zm0 0"/></symbol><symbol id="L" overflow="visible"><path d="m-6.035156-2.933594c0 1.339844 1.058594 2.460938 3.066406 2.460938 1.996094 0 3.070312-1.042969 3.070312-2.480469 0-.800781-.324218-1.375-.660156-1.695313l-.527344.414063c.25.335937.5.695313.5 1.257813 0 .917968-.671874 1.632812-2.382812 1.632812-1.792969 0-2.394531-.746094-2.394531-1.644531 0-.410157.136719-.773438.441406-1.144531l-.527344-.445313c-.378906.472656-.585937.894531-.585937 1.644531zm0 0"/></symbol><symbol id="M" overflow="visible"><path d="m2.128906-5.53125c-1 0-1.710937.582031-1.710937 1.421875 0 .84375.550781 1.246094 1.609375 1.570313.921875.28125 1.175781.519531 1.175781 1.046874 0 .65625-.527344.972657-1.167969.972657-.589844 0-1.015625-.214844-1.417968-.554688l-.421876.464844c.453126.445313 1.066407.703125 1.847657.703125 1.222656 0 1.941406-.660156 1.941406-1.609375 0-1.039063-.742187-1.378906-1.609375-1.648437-.976562-.300782-1.191406-.519532-1.191406-.976563 0-.523437.433594-.773437.976562-.773437.453125 0 .832032.140624 1.242188.472656l.410156-.457032c-.460938-.410156-.933594-.632812-1.683594-.632812zm0 0"/></symbol><symbol id="N" overflow="visible"><path d="m2.691406-5.53125c-1.230468 0-2.257812.96875-2.257812 2.808594 0 1.832031.957031 2.816406 2.273437 2.816406.734375 0 1.261719-.300781 1.554688-.605469l-.378907-.484375c-.308593.230469-.640624.460938-1.152343.460938-.84375 0-1.5-.617188-1.5-2.1875 0-1.640625.6875-2.191406 1.507812-2.191406.378907 0 .710938.125 1.050781.402343l.410157-.484375c-.433594-.347656-.820313-.535156-1.507813-.535156zm0 0"/></symbol><symbol id="O" overflow="visible"><path d="m2.574219-.6875c-.207031.128906-.371094.183594-.554688.183594-.363281 0-.496093-.199219-.496093-.617188v-2.476562h.90625l.078124-.5625h-.984374v-1.023438l-.726563.085938v.9375h-.7265625v.5625h.7265625v2.507812c0 .773438.417969 1.183594 1.121094 1.183594.355469 0 .65625-.09375.929687-.28125zm0 0"/></symbol><symbol id="P" overflow="visible"><path d="m2.554688-4.253906c-.503907 0-.890626.316406-1.109376.941406l-.074218-.847656h-.621094v4.160156h.726562v-2.375c.171876-.796875.472657-1.167969.992188-1.167969.152344 0 .238281.015625.363281.046875l.136719-.710937c-.128906-.03125-.277344-.046875-.414062-.046875zm0 0"/></symbol><symbol id="Q" overflow="visible"><path d="m2.3125-4.253906c-1.183594 0-1.863281.890625-1.863281 2.179687 0 1.316407.671875 2.167969 1.855469 2.167969 1.175781 0 1.855468-.890625 1.855468-2.175781 0-1.320313-.664062-2.171875-1.847656-2.171875zm0 .585937c.6875 0 1.066406.503907 1.066406 1.585938 0 1.085937-.378906 1.59375-1.074218 1.59375-.695313 0-1.074219-.507813-1.074219-1.585938 0-1.089843.386719-1.59375 1.082031-1.59375zm0 0"/></symbol><symbol id="R" overflow="visible"><path d="m4.921875-4.253906c-.558594 0-.9375.300781-1.238281.75-.15625-.472656-.535156-.75-1.046875-.75-.546875 0-.925781.285156-1.199219.703125l-.066406-.609375h-.621094v4.160156h.726562v-2.949219c.273438-.445312.527344-.734375.976563-.734375.316406 0 .585937.179688.585937.804688v2.878906h.726563v-2.949219c.28125-.445312.527344-.734375.976563-.734375.316406 0 .582031.179688.582031.804688v2.878906h.726562v-2.984375c0-.78125-.449219-1.269531-1.128906-1.269531zm0 0"/></symbol><symbol id="S" overflow="visible"><path d="m3.84375-4.160156h-.726562v2.96875c-.253907.417968-.59375.71875-1.042969.71875s-.636719-.214844-.636719-.78125v-2.90625h-.726562v2.984375c0 .8125.433593 1.269531 1.160156 1.269531.589844 0 .976562-.234375 1.292968-.742188l.054688.648438h.625zm0 0"/></symbol><symbol id="T" overflow="visible"><path d="m1.878906-4.253906c-.859375 0-1.5.480468-1.5 1.144531 0 .585937.355469.972656 1.253906 1.207031.804688.214844 1.011719.371094 1.011719.78125 0 .394532-.347656.632813-.894531.632813-.449219 0-.835938-.152344-1.167969-.402344l-.386719.441406c.363282.316407.871094.542969 1.570313.542969.847656 0 1.644531-.394531 1.644531-1.261719 0-.726562-.507812-1.074219-1.382812-1.292969-.671875-.175781-.890625-.332031-.890625-.671874 0-.332032.292969-.542969.765625-.542969.386718 0 .710937.117187 1.082031.355469l.304687-.460938c-.394531-.296875-.828124-.472656-1.410156-.472656zm0 0"/></symbol><symbol id="U" overflow="visible"><path d="m3.550781-.96875v-1.902344c0-.867187-.457031-1.382812-1.460937-1.382812-.464844 0-.921875.09375-1.433594.285156l.179688.527344c.425781-.140625.8125-.21875 1.121093-.21875.574219 0 .867188.21875.867188.820312v.308594h-.636719c-1.160156 0-1.832031.480469-1.832031 1.371094 0 .742187.496093 1.253906 1.324219 1.253906.507812 0 .949218-.1875 1.238281-.621094.128906.410156.394531.574219.8125.621094l.167969-.503906c-.214844-.078125-.347657-.199219-.347657-.558594zm-1.703125.519531c-.476562 0-.71875-.261719-.71875-.75 0-.566406.386719-.851562 1.152344-.851562h.542969v.953125c-.234375.433594-.550781.648437-.976563.648437zm0 0"/></symbol><symbol id="V" overflow="visible"><path d="m1.105469-6.15625c-.300781 0-.503907.214844-.503907.5 0 .273438.203126.488281.503907.488281.308593 0 .511719-.214843.511719-.488281 0-.285156-.203126-.5-.511719-.5zm.371093 1.996094h-.726562v4.160156h.726562zm0 0"/></symbol><symbol id="W" overflow="visible"><path d="m2.265625-4.253906c-1.128906 0-1.816406.882812-1.816406 2.210937 0 1.339844.695312 2.136719 1.816406 2.136719.480469 0 .898437-.15625 1.269531-.457031l-.332031-.472657c-.316406.203126-.558594.316407-.90625.316407-.65625 0-1.066406-.449219-1.066406-1.539063 0-1.082031.410156-1.59375 1.066406-1.59375.347656 0 .605469.101563.890625.308594l.347656-.460938c-.386718-.320312-.78125-.449218-1.269531-.449218zm0 0"/></symbol><symbol id="X" overflow="visible"><path d="m3.890625-2.203125c0-1.269531-.59375-2.050781-1.710937-2.050781-1.074219 0-1.730469.925781-1.730469 2.21875 0 1.316406.679687 2.128906 1.839843 2.128906.574219 0 1.039063-.195312 1.449219-.519531l-.3125-.433594c-.363281.25-.671875.363281-1.082031.363281-.601562 0-1.050781-.371094-1.121094-1.335937h2.652344c.007812-.09375.015625-.226563.015625-.371094zm-.71875-.164063h-1.949219c.054688-.921874.417969-1.308593.972656-1.308593.652344 0 .976563.449219.976563 1.261719zm0 0"/></symbol><symbol id="Y" overflow="visible"><path d="m1.816406-1.988281h1.808594l.121094-.523438h-1.957032v-.777343h2.117188l.128906-.53125h-2.191406c.214844-.957032.703125-1.371094 1.367188-1.371094.480468 0 .808593.121094 1.222656.371094l.308594-.542969c-.472657-.316407-.972657-.480469-1.566407-.480469-1.066406 0-1.917969.714844-2.195312 2.023438h-.636719l-.128906.53125h.730468v.777343h-.601562l-.128906.523438h.757812c.222656 1.359375.980469 2.089843 2.167969 2.089843.542969 0 .941406-.1367182 1.328125-.324218v-.691406c-.335938.183593-.707031.355468-1.207031.355468-.851563 0-1.300781-.421875-1.445313-1.429687zm0 0"/></symbol><symbol id="Z" overflow="visible"/><symbol id="aa" overflow="visible"><path d="m1.945312-7.273438c-.84375 1.195313-1.601562 2.21875-1.601562 4.261719 0 2.039063.757812 3.0625002 1.601562 4.261719l.5-.347656c-.777343-1.144532-1.273437-2.074219-1.273437-3.914063 0-1.851562.496094-2.773437 1.273437-3.917969zm0 0"/></symbol><symbol id="ab" overflow="visible"><path d="m.535156-2.53125h3.234375v-.664062h-3.234375zm0 0"/></symbol><symbol id="ac" overflow="visible"><path d="m.84375-7.273438-.5.34375c.773438 1.144532 1.273438 2.066407 1.273438 3.917969 0 1.839844-.5 2.769531-1.273438 3.914063l.5.347656c.84375-1.1992188 1.601562-2.222656 1.601562-4.261719 0-2.042969-.757812-3.066406-1.601562-4.261719zm0 0"/></symbol><symbol id="ad" overflow="visible"><path d="m2.902344-6.945312-2 7.675781.679687.164062 1.988281-7.6875zm0 0"/></symbol><symbol id="ae" overflow="visible"><path d="m1.023438-4.261719c-.335938 0-.59375.269531-.59375.59375 0 .335938.257812.605469.59375.605469.34375 0 .601562-.269531.601562-.605469 0-.324219-.257812-.59375-.601562-.59375zm0 3.167969c-.335938 0-.59375.265625-.59375.59375 0 .335938.257812.601562.59375.601562.34375 0 .601562-.265624.601562-.601562 0-.328125-.257812-.59375-.601562-.59375zm0 0"/></symbol><symbol id="af" overflow="visible"><path d="m2.78125-5.757812h-.699219l-1.78125 1.101562.34375.558594 1.34375-.816406v4.914062h.792969zm0 0"/></symbol><symbol id="ag" overflow="visible"><path d="m2.402344-5.84375c-1.292969 0-1.929688 1.058594-1.929688 2.96875s.636719 2.976562 1.929688 2.976562c1.289062 0 1.925781-1.066406 1.925781-2.976562 0-1.902344-.636719-2.96875-1.925781-2.96875zm0 .628906c.714844 0 1.101562.652344 1.101562 2.339844 0 1.695312-.386718 2.351562-1.101562 2.351562-.722656 0-1.101563-.65625-1.101563-2.351562 0-1.6875.378907-2.339844 1.101563-2.339844zm0 0"/></symbol><symbol id="ah" overflow="visible"><path d="m1.9375-5.84375c-.621094 0-1.152344.222656-1.644531.679688l.414062.472656c.386719-.363282.730469-.515625 1.1875-.515625.574219 0 .953125.335937.953125.878906 0 .667969-.472656 1.015625-1.039062 1.015625h-.292969l-.09375.609375h.429687c.695313 0 1.144532.242187 1.144532 1.035156 0 .679688-.441406 1.125-1.164063 1.125-.464843 0-.851562-.171875-1.230469-.566406l-.472656.4375c.4375.527344 1.042969.773437 1.730469.773437 1.195313 0 1.960937-.753906 1.960937-1.761718 0-.871094-.574218-1.328125-1.296874-1.394532.644531-.15625 1.117187-.59375 1.117187-1.328124 0-.773438-.601563-1.460938-1.703125-1.460938zm0 0"/></symbol><symbol id="ai" overflow="visible"><path d="m3.5625-5.757812h-3.347656v.644531h2.546875l-2.074219 4.957031.722656.2421875 2.152344-5.2499995zm0 0"/></symbol><symbol id="aj" overflow="visible"><path d="m3.726562-5.757812h-3.117187v2.898437h.621094c.277343-.128906.507812-.195313.816406-.195313.597656 0 1.050781.308594 1.050781 1.195313 0 .84375-.453125 1.316406-1.179687 1.316406-.496094 0-.867188-.179687-1.210938-.550781l-.484375.464844c.449219.457031.972656.730468 1.707032.730468 1.195312 0 1.996093-.796874 1.996093-1.945312 0-1.144531-.664062-1.824219-1.636719-1.824219-.308593 0-.621093.070313-.921874.226563v-1.699219h2.25zm0 0"/></symbol><symbol id="ak" overflow="visible"><path d="m1.960938-5.84375c-.722657 0-1.28125.292969-1.746094.867188l.535156.414062c.367188-.4375.6875-.628906 1.167969-.628906.5625 0 .949219.355468.949219.957031 0 .9375-.5 1.488281-2.53125 3.605469v.628906h3.398437l.097656-.664062h-2.59375c1.765625-1.761719 2.453125-2.53125 2.453125-3.605469 0-.894531-.671875-1.574219-1.730468-1.574219zm0 0"/></symbol><symbol id="al" overflow="visible"/><symbol id="am" overflow="visible"><path d="m4.019531 0h.859375l-1.890625-5.929688h-1.035156l-1.9023438 5.929688h.8281248l.445313-1.488281h2.246093zm-2.496093-2.152344.929687-3.097656.921875 3.097656zm0 0"/></symbol><symbol id="an" overflow="visible"><path d="m4.070312-5.929688h-3.210937v5.929688h3.28125v-.652344h-2.460937v-2.035156h1.996093v-.652344h-1.996093v-1.9375h2.296874zm0 0"/></symbol><symbol id="ao" overflow="visible"><path d="m2.417969-5.929688h-1.558594v5.929688h.820313v-2.179688h.746093c1.308594 0 2.300781-.558593 2.300781-1.917968 0-1.246094-.878906-1.832032-2.308593-1.832032zm-.023438 3.105469h-.714843v-2.46875h.730468c.878906 0 1.445313.316407 1.445313 1.203125 0 1.007813-.585938 1.265625-1.460938 1.265625zm0 0"/></symbol><symbol id="ap" overflow="visible"><path d="m1.679688-5.929688h-.820313v5.929688h3.160156l.09375-.714844h-2.433593zm0 0"/></symbol><symbol id="aq" overflow="visible"><path d="m2.933594-6.035156c-1.339844 0-2.460938 1.058594-2.460938 3.066406 0 1.996094 1.042969 3.070312 2.480469 3.070312.800781 0 1.375-.324218 1.695313-.660156l-.414063-.527344c-.335937.25-.695313.5-1.257813.5-.917968 0-1.632812-.671874-1.632812-2.382812 0-1.792969.746094-2.394531 1.644531-2.394531.410157 0 .773438.136719 1.144531.441406l.445313-.527344c-.472656-.378906-.894531-.585937-1.644531-.585937zm0 0"/></symbol><symbol id="ar" overflow="visible"><path d="m1.679688-5.929688h-.820313v5.929688h.820313zm0 0"/></symbol><symbol id="as" overflow="visible"><path d="m3.875-1.058594v-2.074218c0-.949219-.5-1.507813-1.59375-1.507813-.507812 0-1.007812.105469-1.566406.3125l.199218.574219c.464844-.152344.886719-.238282 1.21875-.238282.628907 0 .949219.238282.949219.894532v.335937h-.699219c-1.265624 0-1.996093.523438-1.996093 1.496094 0 .808594.542969 1.367187 1.445312 1.367187.550781 0 1.035157-.203124 1.351563-.679687.140625.449219.433594.6289062.886718.679687l.183594-.550781c-.234375-.085937-.378906-.214843-.378906-.609375zm-1.859375.566406c-.519531 0-.785156-.28125-.785156-.816406 0-.621094.421875-.929687 1.257812-.929687h.59375v1.042969c-.257812.472656-.601562.703124-1.066406.703124zm0 0"/></symbol><symbol id="at" overflow="visible"><path d="m2.46875-4.640625c-1.230469 0-1.976562.964844-1.976562 2.410156 0 1.464844.757812 2.332031 1.976562 2.332031.527344 0 .984375-.1718745 1.386719-.496093l-.359375-.519531c-.34375.226562-.613282.347656-.992188.347656-.714844 0-1.160156-.492188-1.160156-1.679688 0-1.179687.445312-1.738281 1.160156-1.738281.378906 0 .664063.109375.972656.335937l.378907-.5c-.421875-.351562-.851563-.492187-1.386719-.492187zm0 0"/></symbol><symbol id="au" overflow="visible"><path d="m1.207031-6.714844c-.328125 0-.554687.234375-.554687.542969 0 .300781.226562.535156.554687.535156.332031 0 .558594-.234375.558594-.535156 0-.308594-.226563-.542969-.558594-.542969zm.402344 2.179688h-.792969v4.535156h.792969zm0 0"/></symbol><symbol id="av" overflow="visible"><path d="m2.890625-4.640625c-.550781 0-.972656.25-1.28125.671875v-2.488281l-.792969.097656v6.359375h.699219l.078125-.5c.308594.378906.703125.601562 1.203125.601562 1.101563 0 1.78125-.953124 1.78125-2.375 0-1.515624-.660156-2.367187-1.6875-2.367187zm-.28125 4.117187c-.40625 0-.765625-.25-1-.613281v-2.167969c.234375-.363281.558594-.707031 1.058594-.707031.636719 0 1.058593.449219 1.058593 1.738281 0 1.242188-.457031 1.75-1.117187 1.75zm0 0"/></symbol><symbol id="aw" overflow="visible"><path d="m4.242188-2.402344c0-1.386718-.644532-2.238281-1.867188-2.238281-1.167969 0-1.882812 1.007813-1.882812 2.417969 0 1.4375.738281 2.324218 2.003906 2.324218.628906 0 1.136718-.214843 1.585937-.566406l-.347656-.472656c-.394531.273438-.730469.394531-1.179687.394531-.652344 0-1.144532-.402343-1.21875-1.453125h2.890624c.007813-.105468.015626-.25.015626-.40625zm-.78125-.179687h-2.125c.058593-1.007813.453124-1.429688 1.058593-1.429688.710938 0 1.066407.492188 1.066407 1.378907zm0 0"/></symbol><symbol id="ax" overflow="visible"><path d="m2.902344-4.640625c-.519532 0-1.007813.25-1.34375.714844l-.0625-.609375h-.679688v6.367187l.792969-.09375v-2.152343c.292969.3554682.699219.515624 1.1875.515624 1.171875 0 1.78125-.996093 1.78125-2.375 0-1.429687-.472656-2.367187-1.675781-2.367187zm-.292969 4.097656c-.414063 0-.765625-.199219-1-.550781v-2.210938c.242187-.363281.613281-.707031 1.09375-.707031.679687 0 1.023437.558594 1.023437 1.738281 0 1.1875-.394531 1.730469-1.117187 1.730469zm0 0"/></symbol><symbol id="ay" overflow="visible"><path d="m1.722656.101562c.230469 0 .457032-.0585932.628906-.1523432l-.207031-.5507808c-.085937.035156-.183593.050781-.292969.050781-.207031 0-.285156-.121094-.285156-.363281v-5.542969l-.792968.097656v5.464844c0 .644531.371093.996093.949218.996093zm0 0"/></symbol><symbol id="az" overflow="visible"><path d="m4.148438-4.535156h-.816407l-1.1875 3.957031-1.214843-3.957031h-.8437505l1.5234375 4.535156h.265625c-.257812.707031-.515625 1.058594-1.4375 1.214844l.085938.617187c1.257812-.136719 1.792968-.84375 2.109374-1.8046872zm0 0"/></symbol><symbol id="aA" overflow="visible"><path d="m2.523438-4.640625c-1.292969 0-2.03125.972656-2.03125 2.375 0 1.4375.730468 2.367187 2.019531 2.367187 1.285156 0 2.023437-.972656 2.023437-2.375 0-1.4375-.722656-2.367187-2.011718-2.367187zm0 .636719c.746093 0 1.160156.550781 1.160156 1.730468 0 1.1875-.414063 1.738282-1.171875 1.738282-.753907 0-1.167969-.550782-1.167969-1.730469 0-1.1875.421875-1.738281 1.179688-1.738281zm0 0"/></symbol><symbol id="aB" overflow="visible"><path d="m4.191406-4.535156h-.792968v3.234375c-.273438.457031-.644532.785156-1.132813.785156-.492187 0-.699219-.234375-.699219-.851563v-3.167968h-.792968v3.253906c0 .886719.476562 1.382812 1.265624 1.382812.648438 0 1.066407-.257812 1.414063-.808593l.058594.707031h.679687zm0 0"/></symbol><symbol id="aC" overflow="visible"><path d="m2.953125-4.640625c-.59375 0-1.078125.3125-1.386719.777344l-.070312-.671875h-.679688v4.535156h.792969v-3.21875c.300781-.484375.644531-.800781 1.152344-.800781.441406 0 .714843.199219.714843.878906v3.140625h.792969v-3.253906c0-.859375-.480469-1.386719-1.316406-1.386719zm0 0"/></symbol><symbol id="aD" overflow="visible"><path d="m2.804688-.75c-.222657.140625-.402344.199219-.601563.199219-.394531 0-.542969-.214844-.542969-.671875v-2.703125h.992188l.085937-.609375h-1.078125v-1.121094l-.789062.09375v1.027344h-.792969v.609375h.792969v2.738281c0 .84375.453125 1.289062 1.21875 1.289062.390625 0 .714844-.101562 1.015625-.308593zm0 0"/></symbol><symbol id="aE" overflow="visible"><path d="m4.632812-9.597656h-1.160156l-2.96875 1.835937.570313.933594 2.238281-1.363281v8.191406h1.320312zm0 0"/></symbol><symbol id="aF" overflow="visible"><path d="m3.269531-9.742188c-1.203125 0-2.136719.488282-2.910156 1.449219l.890625.6875c.613281-.730469 1.144531-1.046875 1.949219-1.046875.933593 0 1.578125.589844 1.578125 1.59375 0 1.5625-.832032 2.480469-4.21875 6.011719v1.046875h5.667968l.15625-1.105469h-4.316406c2.941406-2.941406 4.089844-4.21875 4.089844-6.011719 0-1.492187-1.121094-2.625-2.886719-2.625zm0 0"/></symbol><symbol id="aG" overflow="visible"><path d="m3.226562-9.742188c-1.03125 0-1.921874.375-2.738281 1.132813l.6875.789063c.644531-.601563 1.21875-.859376 1.980469-.859376.960938 0 1.59375.558594 1.59375 1.464844 0 1.117188-.789062 1.691406-1.738281 1.691406h-.488281l-.15625 1.019532h.71875c1.160156 0 1.90625.402344 1.90625 1.722656 0 1.132812-.730469 1.878906-1.9375 1.878906-.773438 0-1.417969-.289062-2.050782-.949218l-.789062.734374c.730468.875 1.734375 1.289063 2.882812 1.289063 1.996094 0 3.273438-1.261719 3.273438-2.941406 0-1.449219-.960938-2.207031-2.167969-2.324219 1.078125-.257812 1.867187-.988281 1.867187-2.207031 0-1.292969-1.007812-2.441407-2.84375-2.441407zm0 0"/></symbol><symbol id="aH" overflow="visible"><path d="m7.203125-3.414062h-1.25v-2.582032h-1.148437l-.113282 2.582032h-2.726562l2.597656-5.867188-1.105469-.460938-2.882812 6.429688v.945312h4.101562v2.367188h1.277344v-2.367188h1.25zm0 0"/></symbol><symbol id="aI" overflow="visible"><path d="m2.339844-.625c-.1875.117188-.339844.164062-.503906.164062-.328126 0-.453126-.175781-.453126-.558593v-2.25h.828126l.070312-.511719h-.898438v-.929688l-.660156.078126v.851562h-.6562498v.511719h.6562498v2.28125c0 .703125.382813 1.0742185 1.019532 1.0742185.324218 0 .597656-.0859375.847656-.2578125zm0 0"/></symbol><symbol id="aJ" overflow="visible"><path d="m4.476562-3.867188c-.511718 0-.855468.273438-1.125.683594-.144531-.433594-.488281-.683594-.957031-.683594-.492187 0-.839843.257813-1.089843.640626l-.054688-.554688h-.570312v3.78125h.660156v-2.683594c.253906-.402344.480468-.667968.890625-.667968.289062 0 .53125.167968.53125.734374v2.617188h.660156v-2.683594c.257813-.402344.480469-.667968.890625-.667968.285156 0 .53125.167968.53125.734374v2.617188h.65625v-2.710938c0-.710937-.40625-1.15625-1.023438-1.15625zm0 0"/></symbol><symbol id="aK" overflow="visible"><path d="m1.433594.0859375c.195312 0 .382812-.0507813.523437-.1289063l-.171875-.4609372c-.070312.03125-.148437.042968-.242187.042968-.171875 0-.238281-.097656-.238281-.300781v-4.617187l-.660157.078125v4.554687c0 .539063.308594.8320315.789063.8320315zm0 0"/></symbol><symbol id="aL" overflow="visible"><path d="m3.457031-3.78125h-.679687l-.992188 3.300781-1.011718-3.300781h-.7031255l1.2695315 3.78125h.222656c-.214844.589844-.429688.882812-1.195312 1.011719l.070312.515625c1.046875-.113282 1.492188-.703125 1.757812-1.5039065zm0 0"/></symbol><symbol id="aM" overflow="visible"><path d="m1.003906-5.59375c-.273437 0-.457031.191406-.457031.449219 0 .253906.183594.445312.457031.445312.28125 0 .464844-.191406.464844-.445312 0-.257813-.183594-.449219-.464844-.449219zm.335938 1.8125h-.660156v3.78125h.660156zm0 0"/></symbol><symbol id="aN" overflow="visible"><path d="m3.535156-2c0-1.15625-.535156-1.867188-1.554687-1.867188-.976563 0-1.570313.839844-1.570313 2.015626 0 1.199218.617188 1.9374995 1.671875 1.9374995.523438 0 .945313-.1796875 1.316407-.4726565l-.285157-.394531c-.332031.230469-.609375.328125-.984375.328125-.542968 0-.953125-.335937-1.015625-1.210937h2.410157c.003906-.085938.011718-.207032.011718-.335938zm-.652344-.152344h-1.769531c.046875-.839844.378907-1.191406.878907-1.191406.597656 0 .890624.410156.890624 1.148438zm0 0"/></symbol><symbol id="aO" overflow="visible"><path d="m3.226562-.882812v-1.726563c0-.789063-.414062-1.257813-1.324218-1.257813-.425782 0-.839844.085938-1.308594.257813l.167969.480469c.386719-.128906.738281-.199219 1.015625-.199219.523437 0 .789062.199219.789062.746094v.28125h-.578125c-1.054687 0-1.664062.4375-1.664062 1.246093 0 .675782.449219 1.1406255 1.203125 1.1406255.460937 0 .859375-.171875 1.125-.5664065.117187.371094.359375.5234378.742187.5664065l.148438-.4570315c-.191407-.074218-.316407-.179687-.316407-.511718zm-1.546874.472656c-.429688 0-.652344-.234375-.652344-.679688 0-.515625.351562-.773437 1.046875-.773437h.492187v.867187c-.214844.394532-.5.585938-.886718.585938zm0 0"/></symbol><symbol id="aP" overflow="visible"><path d="m1.75-4.941406h-1.03125v4.941406h1.183594c1.066406 0 2.324218-.480469 2.324218-2.496094 0-2.050781-1.214843-2.445312-2.476562-2.445312zm.152344.542968c.789062 0 1.597656.230469 1.597656 1.902344 0 1.628906-.773438 1.957032-1.550781 1.957032h-.550781v-3.859376zm0 0"/></symbol><symbol id="aQ" overflow="visible"/><symbol id="aR" overflow="visible"><path d="m1.511719-1.65625h1.507812l.101563-.4375h-1.628906v-.644531h1.765624l.105469-.445313h-1.828125c.179688-.796875.589844-1.140625 1.140625-1.140625.402344 0 .675781.097657 1.019531.308594l.257813-.453125c-.394531-.265625-.8125-.402344-1.304687-.402344-.890626 0-1.601563.597656-1.832032 1.6875h-.53125l-.105468.445313h.609374v.644531h-.503906l-.105468.4375h.632812c.183594 1.132812.816406 1.7421875 1.804688 1.7421875.453124 0 .78125-.1132813 1.105468-.2734375v-.574219c-.28125.152344-.589844.296875-1.003906.296875-.710938 0-1.082031-.351562-1.207031-1.191406zm0 0"/></symbol><symbol id="aS" overflow="visible"><path d="m3.105469-4.800781h-2.597657v2.417969h.519532c.226562-.105469.421875-.164063.679687-.164063.496094 0 .875.257813.875.996094 0 .703125-.378906 1.097656-.980469 1.097656-.417968 0-.726562-.148437-1.011718-.457031l-.402344.386718c.371094.378907.808594.6093755 1.417969.6093755 1 0 1.664062-.6679685 1.664062-1.6210935s-.550781-1.519532-1.363281-1.519532c-.257812 0-.515625.054688-.765625.183594v-1.410156h1.871094zm0 0"/></symbol><symbol id="aT" overflow="visible"><path d="m2-4.871094c-1.074219 0-1.605469.882813-1.605469 2.476563 0 1.589843.53125 2.4804685 1.605469 2.4804685 1.078125 0 1.609375-.8906255 1.609375-2.4804685 0-1.585938-.53125-2.476563-1.609375-2.476563zm0 .523438c.597656 0 .917969.546875.917969 1.953125 0 1.410156-.320313 1.957031-.917969 1.957031-.601562 0-.917969-.546875-.917969-1.957031 0-1.40625.316407-1.953125.917969-1.953125zm0 0"/></symbol><g clip-path="url(#a)"><path d="m0 0h203v431.824219h-203zm0 0" fill="#fff"/></g><path d="m33.998251 85.928057h47.883682" fill="none" stroke="#000" stroke-miterlimit="10" transform="matrix(.717314 0 0 .717314 .358657 .358657)"/><path d="m33.998251 85.928057c0 .533675-.098022 1.040121-.304957 1.530231-.201489.490109-.490109.925762-.86586 1.301512-.37575.375751-.805957.664371-1.296067.86586-.490109.201489-1.002001.304957-1.53023.304957-.533674 0-1.040121-.103468-1.53023-.304957s-.925762-.490109-1.301513-.86586c-.370304-.37575-.66437-.811403-.865859-1.301512-.20149-.49011-.304957-.996556-.304957-1.530231 0-.528229.103467-1.040121.304957-1.53023.201489-.490109.495555-.920316.865859-1.296067.375751-.37575.811404-.66437 1.301513-.86586.490109-.206935.996556-.304956 1.53023-.304956.528229 0 1.040121.098021 1.53023.304956.49011.20149.920317.49011 1.296067.86586.375751.375751.664371.805958.86586 1.296067.206935.490109.304957 1.002001.304957 1.53023zm0 0" stroke="#000" transform="matrix(.717314 0 0 .717314 .358657 .358657)"/><path d="m88.879605 85.928057-6.997672 3.501559v-6.997672zm0 0" stroke="#000" stroke-miterlimit="10" transform="matrix(.717314 0 0 .717314 .358657 .358657)"/><path d="m28.691406 50.929688h30.128906v9.324218h-30.128906zm0 0" fill="#fff"/><g fill="#333"><use x="39.541959" xlink:href="#A" y="58.10247"/><g><use x="41.626654" xlink:href="#B" y="58.10247"/><use x="45.571883" xlink:href="#C" y="58.10247"/></g><use x="50.116786" xlink:href="#D" y="58.10247"/><use x="54.054124" xlink:href="#E" y="58.10247"/><use x="28.345129" xlink:href="#G" y="58.10247"/><use x="34.800958" xlink:href="#H" y="59.537099"/></g><path d="m194.035156 90.691406h7.171875v143.460938h-7.171875zm0 0" fill="#fff"/><path d="m198.335938 90.332031h2.152343v.714844h-2.152343zm3.230468 1.792969v2.152344h-.71875v-2.152344zm0 4.304688v2.152343h-.71875v-2.152343zm0 4.304687v2.148437h-.71875v-2.148437zm0 4.300781v2.152344h-.71875v-2.152344zm0 4.304688v2.152344h-.71875v-2.152344zm0 4.304687v2.152344h-.71875v-2.152344zm0 4.304688v2.152343h-.71875v-2.152343zm0 4.300781v2.152344h-.71875v-2.152344zm0 4.304688v2.152343h-.71875v-2.152343zm0 4.304687v2.152344h-.71875v-2.152344zm0 4.304687v2.152344h-.71875v-2.152344zm0 4.304688v2.152344h-.71875v-2.152344zm0 4.300781v2.152344h-.71875v-2.152344zm0 4.304688v2.152343h-.71875v-2.152343zm0 4.304687v2.152344h-.71875v-2.152344zm0 4.304688v2.152344h-.71875v-2.152344zm0 4.304687v2.152344h-.71875v-2.152344zm0 4.300781v2.152344h-.71875v-2.152344zm0 4.304688v2.152344h-.71875v-2.152344zm0 4.304688v2.152343h-.71875v-2.152343zm0 4.304687v2.152344h-.71875v-2.152344zm0 4.304687v2.152344h-.71875v-2.152344zm0 4.300782v2.152344h-.71875v-2.152344zm0 4.304687v2.152344h-.71875v-2.152344zm0 4.304688v2.152343h-.71875v-2.152343zm0 4.304687v2.152344h-.71875v-2.152344zm0 4.304688v2.148437h-.71875v-2.148437zm0 4.300781v2.152344h-.71875v-2.152344zm0 4.304687v2.152344h-.71875v-2.152344zm0 4.304688v2.152344h-.71875v-2.152344zm0 4.304688v2.152343h-.71875v-2.152343zm0 4.304687v2.148437h-.71875v-2.148437zm0 4.300781v2.152344h-.71875v-2.152344zm-.359375 4.664063h-2.152343v-.71875h2.152343zm-4.304687 0h-2.152344v-.71875h2.152344zm-3.226563-1.792969v-2.152344h.714844v2.152344zm0-4.304688v-2.152343h.714844v2.152343zm0-4.304687v-2.152344h.714844v2.152344zm0-4.300781v-2.152344h.714844v2.152344zm0-4.304688v-2.152344h.714844v2.152344zm0-4.304687v-2.152344h.714844v2.152344zm0-4.304688v-2.152343h.714844v2.152343zm0-4.304687v-2.152344h.714844v2.152344zm0-4.300782v-2.152343h.714844v2.152343zm0-4.304687v-2.152344h.714844v2.152344zm0-4.304687v-2.152344h.714844v2.152344zm0-4.304688v-2.152344h.714844v2.152344zm0-4.304688v-2.152343h.714844v2.152343zm0-4.300781v-2.152343h.714844v2.152343zm0-4.304687v-2.152344h.714844v2.152344zm0-4.304688v-2.152344h.714844v2.152344zm0-4.304687v-2.152344h.714844v2.152344zm0-4.304688v-2.152343h.714844v2.152343zm0-4.300781v-2.152344h.714844v2.152344zm0-4.304688v-2.152343h.714844v2.152343zm0-4.304687v-2.152344h.714844v2.152344zm0-4.304687v-2.152344h.714844v2.152344zm0-4.304688v-2.148438h.714844v2.148438zm0-4.300781v-2.152344h.714844v2.152344zm0-4.304688v-2.152343h.714844v2.152343zm0-4.304687v-2.152344h.714844v2.152344zm0-4.304688v-2.152344h.714844v2.152344zm0-4.304687v-2.148438h.714844v2.148438zm0-4.300781v-2.152344h.714844v2.152344zm0-4.304688v-2.152344h.714844v2.152344zm0-4.304688v-2.152343h.714844v2.152343zm0-4.304687v-2.152344h.714844v2.152344zm0-4.304687v-2.148438h.714844v2.148438zm.359375-4.660157h2.148438v.714844h-2.148438zm0 0"/><use x="200.898263" xlink:href="#J" y="168.74283"/><g><use x="200.898263" xlink:href="#K" y="164.481991"/><use x="200.898263" xlink:href="#L" y="159.480875"/></g><path d="m99.999641 85.928057 162.100938 38.141397" fill="none" stroke="#000" stroke-miterlimit="10" transform="matrix(.717314 0 0 .717314 .358657 .358657)"/><path d="m193.25 90.503906-5.457031 1.296875 1.148437-4.890625zm0 0"/><g clip-path="url(#b)"><path d="m268.907653 125.670478-7.607586 1.807959 1.601023-6.817965zm0 0" fill="none" stroke="#000" stroke-miterlimit="10" transform="matrix(.717314 0 0 .717314 .358657 .358657)"/></g><g clip-path="url(#c)"><g clip-path="url(#f)" mask="url(#e)"><path d="m114.769531 65.277344h36.582031v9.324218h-36.582031zm0 0" fill="#fff"/><use x="114.904807" xlink:href="#M" y="72.448759"/><use x="119.205104" xlink:href="#O" y="72.448759"/><use x="122.053554" xlink:href="#U" y="72.448759"/><use x="126.345959" xlink:href="#P" y="72.448759"/><use x="129.470561" xlink:href="#O" y="72.448759"/><use x="132.319012" xlink:href="#A" y="72.448759"/><use fill="#333" x="134.406794" xlink:href="#B" y="72.448759"/><use x="138.352023" xlink:href="#C" y="72.448759"/><use x="142.896926" xlink:href="#D" y="72.448759"/><use x="146.834264" xlink:href="#E" y="72.448759"/></g></g><g clip-path="url(#g)"><path d="m270.00223 325.92915-167.753532 58.508163" fill="none" stroke="#000" stroke-miterlimit="10" transform="matrix(.717314 0 0 .717314 .358657 .358657)"/></g><path d="m108.211695 377.597565-7.014009 7.210053 9.981893 1.290621" fill="none" stroke="#000" stroke-miterlimit="10" transform="matrix(.717314 0 0 .717314 .358657 .358657)"/><g clip-path="url(#h)"><g clip-path="url(#j)" mask="url(#i)"><path d="m109.75 244.605469h46.625v9.324219h-46.625zm0 0" fill="#fff"/><use x="109.838774" xlink:href="#N" y="251.777369"/><use x="114.178518" xlink:href="#Q" y="251.777369"/><use x="118.786543" xlink:href="#R" y="251.777369"/><use x="125.548656" xlink:href="#R" y="251.777369"/><use x="132.31077" xlink:href="#V" y="251.777369"/><use x="134.535872" xlink:href="#O" y="251.777369"/><use x="137.384323" xlink:href="#A" y="251.777369"/><use fill="#333" x="139.472827" xlink:href="#B" y="251.777369"/><use x="143.418056" xlink:href="#C" y="251.777369"/><use x="147.962959" xlink:href="#D" y="251.777369"/><use x="151.900297" xlink:href="#E" y="251.777369"/></g></g><path d="m140.953125 310.546875h7.171875v28.691406h-7.171875zm0 0" fill="#fff"/><path d="m145.257812 310.1875h2.148438v.71875h-2.148438zm3.226563 1.792969v2.152343h-.71875v-2.152343zm0 4.304687v2.152344h-.71875v-2.152344zm0 4.304688v2.152344h-.71875v-2.152344zm0 4.304687v2.152344h-.71875v-2.152344zm0 4.300781v2.152344h-.71875v-2.152344zm0 4.304688v2.152344h-.71875v-2.152344zm0 4.304688v1.792968h-1.078125v-.71875h.71875v.359375h-.359375v-1.433593zm-3.226563 1.792968h-2.152343v-.71875h2.152343zm-4.664062-.359375v-2.152343h.71875v2.152343zm0-4.300781v-2.152344h.71875v2.152344zm0-4.304688v-2.152343h.71875v2.152343zm0-4.304687v-2.152344h.71875v2.152344zm0-4.304687v-2.152344h.71875v2.152344zm0-4.304688v-2.152344h.71875v2.152344zm0-4.300781v-2.152344h.71875v2.152344zm.359375-3.230469h2.152344v.71875h-2.152344zm0 0"/><use x="147.458333" xlink:href="#J" y="331.21456"/><g><use x="147.458333" xlink:href="#K" y="326.953722"/><use x="147.458333" xlink:href="#L" y="321.952605"/></g><path d="m98.431291 388.777503 90.158334 40.330552" fill="none" stroke="#000" stroke-miterlimit="10" transform="matrix(.717314 0 0 .717314 .358657 .358657)"/><path d="m194.977383 431.972472-7.819967.337631 2.864417-6.387758zm0 0" stroke="#000" stroke-miterlimit="10" transform="matrix(.717314 0 0 .717314 .358657 .358657)"/><g clip-path="url(#k)"><g clip-path="url(#m)" mask="url(#l)"><path d="m87.511719 283.339844h36.582031v9.324218h-36.582031zm0 0" fill="#fff"/><use x="87.63565" xlink:href="#M" y="290.512349"/><use x="91.935947" xlink:href="#O" y="290.512349"/><use x="94.784398" xlink:href="#U" y="290.512349"/><use x="99.076803" xlink:href="#P" y="290.512349"/><use x="102.201404" xlink:href="#O" y="290.512349"/><use x="105.049855" xlink:href="#A" y="290.512349"/><use fill="#333" x="107.137637" xlink:href="#B" y="290.512349"/><use x="111.082866" xlink:href="#C" y="290.512349"/><use x="115.627769" xlink:href="#F" y="290.512349"/><use x="119.580879" xlink:href="#E" y="290.512349"/></g></g><path d="m196.001167 470.429717-94.563872 62.020613" fill="none" stroke="#000" stroke-miterlimit="10" transform="matrix(.717314 0 0 .717314 .358657 .358657)"/><path d="m105.559659 524.368972-5.059018 8.702163 9.998231-1.181708" fill="none" stroke="#000" stroke-miterlimit="10" transform="matrix(.717314 0 0 .717314 .358657 .358657)"/><g clip-path="url(#n)"><g clip-path="url(#p)" mask="url(#o)"><path d="m83.207031 349.332031h46.625v9.324219h-46.625zm0 0" fill="#fff"/><use x="83.286932" xlink:href="#N" y="356.505278"/><use x="87.626675" xlink:href="#Q" y="356.505278"/><use x="92.2347" xlink:href="#R" y="356.505278"/><use x="98.996814" xlink:href="#R" y="356.505278"/><use x="105.758928" xlink:href="#V" y="356.505278"/><use x="107.98403" xlink:href="#O" y="356.505278"/><use x="110.83248" xlink:href="#A" y="356.505278"/><use fill="#333" x="112.920984" xlink:href="#B" y="356.505278"/><use x="116.866214" xlink:href="#C" y="356.505278"/><use x="121.411117" xlink:href="#F" y="356.505278"/><use x="125.364227" xlink:href="#E" y="356.505278"/></g></g><path d="m33.998251 161.927677h48.880237" fill="none" stroke="#000" stroke-miterlimit="10" transform="matrix(.717314 0 0 .717314 .358657 .358657)"/><path d="m33.998251 161.927677c0 .533675-.098022 1.045567-.304957 1.535676-.201489.49011-.490109.920317-.86586 1.296067-.37575.375751-.805957.664371-1.296067.86586-.490109.201489-1.002001.304957-1.53023.304957-.533674 0-1.040121-.103468-1.53023-.304957s-.925762-.490109-1.301513-.86586c-.370304-.37575-.66437-.805957-.865859-1.296067-.20149-.490109-.304957-1.002001-.304957-1.535676 0-.528229.103467-1.040121.304957-1.53023.201489-.490109.495555-.920316.865859-1.296067.375751-.37575.811404-.66437 1.301513-.86586.490109-.201489.996556-.304957 1.53023-.304957.528229 0 1.040121.103468 1.53023.304957.49011.20149.920317.49011 1.296067.86586.375751.375751.664371.805958.86586 1.296067.206935.490109.304957 1.002001.304957 1.53023zm0 0" stroke="#000" transform="matrix(.717314 0 0 .717314 .358657 .358657)"/><path d="m89.881606 161.927677-7.003118 3.501559v-6.997672zm0 0" stroke="#000" stroke-miterlimit="10" transform="matrix(.717314 0 0 .717314 .358657 .358657)"/><path d="m28.691406 105.445312h30.84375v9.324219h-30.84375zm0 0" fill="#fff"/><use x="40.248065" xlink:href="#A" y="112.618367"/><use fill="#333" x="42.33276" xlink:href="#B" y="112.618367"/><use x="46.27799" xlink:href="#C" y="112.618367"/><use x="50.822893" xlink:href="#F" y="112.618367"/><use x="54.776003" xlink:href="#E" y="112.618367"/><use x="29.051235" xlink:href="#G" y="112.618367"/><use x="35.507065" xlink:href="#I" y="114.052996"/><path d="m19.997461 100.930848h52.501601l14.00079 14.00079v16.070141h-66.502391zm0 0" fill="#fff" stroke="#000" stroke-miterlimit="10" transform="matrix(.717314 0 0 .717314 .358657 .358657)"/><path d="m72.499062 100.930848v14.00079h14.00079" fill="none" stroke="#000" stroke-miterlimit="10" transform="matrix(.717314 0 0 .717314 .358657 .358657)"/><use x="15.780918" xlink:href="#Y" y="81.056532"/><use x="20.738986" xlink:href="#af" y="81.056532"/><use x="24.466151" xlink:href="#ag" y="81.056532"/><use x="29.269288" xlink:href="#ag" y="81.056532"/><use x="15.780918" xlink:href="#Z" y="91.098934"/><use x="18.061972" xlink:href="#al" y="91.098934"/><use x="20.343027" xlink:href="#aa" y="91.098934"/><use fill="#333" x="23.122183" xlink:href="#ab" y="91.098934"/><use x="27.426069" xlink:href="#Y" y="91.098934"/><use x="32.384138" xlink:href="#ah" y="91.098934"/><use x="36.67941" xlink:href="#ag" y="91.098934"/><use x="41.482547" xlink:href="#ac" y="91.098934"/><path d="m14.703125 388.425781h36.585937l10.042969 10.042969v25.824219h-46.628906zm0 0" fill="#fff"/><g clip-path="url(#q)"><path d="m19.997461 541.000015h51.004044l14.00079 14.00079v36.001253h-65.004834zm0 0" fill="none" stroke="#000" stroke-miterlimit="10" transform="matrix(.717314 0 0 .717314 .358657 .358657)"/></g><path d="m71.001505 541.000015v14.00079h14.00079" fill="none" stroke="#000" stroke-miterlimit="10" transform="matrix(.717314 0 0 .717314 .358657 .358657)"/><use x="15.780918" xlink:href="#Y" y="396.674886"/><use x="20.738986" xlink:href="#ai" y="396.674886"/><use x="24.560829" xlink:href="#ag" y="396.674886"/><g clip-path="url(#r)"><path d="m15.78125 407.433594h23.941406v.71875h-23.941406zm0 0"/></g><use x="15.780918" xlink:href="#as" y="406.717289"/><use x="20.463547" xlink:href="#ax" y="406.717289"/><use x="25.576557" xlink:href="#ax" y="406.717289"/><use x="30.689568" xlink:href="#ay" y="406.717289"/><use x="33.211639" xlink:href="#az" y="406.717289"/><use x="37.446657" xlink:href="#Z" y="406.717289"/><path d="m39.722656 407.433594h4.300782v.71875h-4.300782zm0 0" fill="#333"/><use fill="#333" x="39.721287" xlink:href="#ab" y="406.717289"/><path d="m44.023438 407.433594h14.066406v.71875h-14.066406zm0 0"/><use x="44.025174" xlink:href="#Y" y="406.717289"/><use x="48.983242" xlink:href="#aj" y="406.717289"/><use x="53.295732" xlink:href="#ag" y="406.717289"/><use x="15.780918" xlink:href="#Y" y="416.759691"/><use x="20.738986" xlink:href="#ak" y="416.759691"/><use x="24.999825" xlink:href="#ag" y="416.759691"/><path d="m19.997461 395.927654h52.501601l14.00079 14.00079v31.002137h-66.502391zm0 0" fill="#fff" stroke="#000" stroke-miterlimit="10" transform="matrix(.717314 0 0 .717314 .358657 .358657)"/><path d="m72.499062 395.927654v14.00079h14.00079" fill="none" stroke="#000" stroke-miterlimit="10" transform="matrix(.717314 0 0 .717314 .358657 .358657)"/><use x="15.780918" xlink:href="#Y" y="292.664292"/><use x="20.738986" xlink:href="#af" y="292.664292"/><use x="24.466151" xlink:href="#ag" y="292.664292"/><use x="29.269288" xlink:href="#ag" y="292.664292"/><g clip-path="url(#s)"><path d="m15.78125 303.425781h23.941406v.714844h-23.941406zm0 0"/></g><use x="15.780918" xlink:href="#as" y="302.706695"/><use x="20.463547" xlink:href="#ax" y="302.706695"/><use x="25.576557" xlink:href="#ax" y="302.706695"/><use x="30.689568" xlink:href="#ay" y="302.706695"/><use x="33.211639" xlink:href="#az" y="302.706695"/><use x="37.446657" xlink:href="#Z" y="302.706695"/><path d="m39.722656 303.425781h4.300782v.714844h-4.300782zm0 0" fill="#333"/><use fill="#333" x="39.721287" xlink:href="#ab" y="302.706695"/><path d="m44.023438 303.425781h14.054687v.714844h-14.054687zm0 0"/><use x="44.025174" xlink:href="#Y" y="302.706695"/><use x="48.983242" xlink:href="#ah" y="302.706695"/><use x="53.278515" xlink:href="#ag" y="302.706695"/><use x="15.780918" xlink:href="#Y" y="312.749097"/><use x="20.738986" xlink:href="#ai" y="312.749097"/><use x="24.560829" xlink:href="#ag" y="312.749097"/><path d="m64.917969 382.996094h-2.152344v-.71875h2.152344m-4.304688.71875h-2.152343v-.71875h2.152343m-4.304687.71875h-2.152344v-.71875h2.152344m-4.304688.71875h-2.152344v-.71875h2.152344m-4.300781.71875h-2.152344v-.71875h2.152344m-4.304687.71875h-2.152344v-.71875h2.152344m-4.304688.71875h-2.152344v-.71875h2.152344m-4.304688.71875h-2.152343v-.71875h2.152343m-4.304687.71875h-2.152344v-.71875h2.152344m-4.300781.71875h-2.152344v-.71875h2.152344"/><path d="m40.119172 528.431434-9.001675 4.498114 9.001675 4.498115" fill="none" stroke="#000" stroke-miterlimit="10" transform="matrix(.717314 0 0 .717314 .358657 .358657)"/><g clip-path="url(#t)"><g clip-path="url(#v)" mask="url(#u)"><path d="m17.214844 371.570312h46.625v9.324219h-46.625zm0 0" fill="#fff"/><use x="16.924138" xlink:href="#M" y="378.742025"/><use x="21.224434" xlink:href="#S" y="378.742025"/><use x="25.816676" xlink:href="#W" y="378.742025"/><use x="29.509407" xlink:href="#W" y="378.742025"/><use x="33.202138" xlink:href="#X" y="378.742025"/><use x="37.541882" xlink:href="#T" y="378.742025"/><use x="41.226722" xlink:href="#T" y="378.742025"/><use x="44.911561" xlink:href="#A" y="378.742025"/><use fill="#333" x="46.995304" xlink:href="#B" y="378.742025"/><use x="50.940533" xlink:href="#C" y="378.742025"/><use x="55.485437" xlink:href="#F" y="378.742025"/><use x="59.438547" xlink:href="#E" y="378.742025"/></g></g><path d="m64.199219 277.011719-2.152344-.007813.003906-.71875 2.148438.011719m-4.304688.699219-2.152343-.011719.003906-.714844 2.152344.007813m-4.308594.699218-2.152344-.007812.003906-.71875 2.152344.007812m-4.308594.699219-2.152344-.007812.003907-.71875 2.152343.011719m-4.304687.699218-2.152344-.011718v-.714844l2.152344.007812m-4.304687.699219-2.152344-.007813.003906-.71875 2.152344.007813m-4.308594.699219-2.152344-.007813.003906-.71875 2.152344.011719m-4.308594.699219-2.152343-.011719.003906-.714844 2.152344.007813m-4.308594.699219-2.148437-.007813v-.71875l2.152343.007813m-4.304687.699218-1.980469-.007812.003906-.71875 1.976563.011718"/><path d="m40.140955 380.467427-9.023458 4.459995 8.979892 4.54168" fill="none" stroke="#000" stroke-miterlimit="10" transform="matrix(.717314 0 0 .717314 .358657 .358657)"/><g clip-path="url(#w)"><g clip-path="url(#y)" mask="url(#x)"><path d="m16.5 265.40625h46.625v9.324219h-46.625zm0 0" fill="#fff"/><use x="16.229239" xlink:href="#M" y="272.579488"/><use x="20.529536" xlink:href="#S" y="272.579488"/><use x="25.121778" xlink:href="#W" y="272.579488"/><use x="28.814509" xlink:href="#W" y="272.579488"/><use x="32.50724" xlink:href="#X" y="272.579488"/><use x="36.846984" xlink:href="#T" y="272.579488"/><use x="40.531823" xlink:href="#T" y="272.579488"/><use x="44.216663" xlink:href="#A" y="272.579488"/><use fill="#333" x="46.300406" xlink:href="#B" y="272.579488"/><use x="50.245635" xlink:href="#C" y="272.579488"/><use x="54.790538" xlink:href="#D" y="272.579488"/><use x="58.727876" xlink:href="#E" y="272.579488"/></g></g><path d="m133.501336 110.929079c0 .985664-.098022 1.960437-.28862 2.929764-.190598.963882-.479218 1.900536-.854968 2.809961-.375751.909425-.838632 1.775285-1.383198 2.592133-.550011.822295-1.170816 1.579242-1.867861 2.276286-.697044.697044-1.453991 1.317849-2.27084 1.862415-.822294.550012-1.688154 1.012893-2.597579 1.388644-.909425.37575-1.846079.658924-2.80996.854968-.969328.190598-1.944101.28862-2.929765.28862s-1.960437-.098022-2.924319-.28862c-.963882-.196044-1.905981-.479218-2.815406-.854968-.909425-.375751-1.775285-.838632-2.592133-1.388644-.816849-.544566-1.579242-1.165371-2.27084-1.862415-.697045-.697044-1.323296-1.453991-1.867861-2.276286-.544566-.816848-1.007447-1.682708-1.388644-2.592133-.37575-.909425-.658924-1.846079-.849522-2.809961-.196044-.969327-.28862-1.9441-.28862-2.929764 0-.985665.092576-1.960438.28862-2.924319.190598-.969328.473772-1.905981.849522-2.815406.381197-.909425.844078-1.775285 1.388644-2.592134.544565-.822294 1.170816-1.579241 1.867861-2.276285.691598-.691599 1.453991-1.31785 2.27084-1.862416.816848-.550011 1.682708-1.007447 2.592133-1.388643.909425-.37575 1.851524-.658925 2.815406-.849523.963882-.196043 1.938655-.28862 2.924319-.28862s1.960437.092577 2.929765.28862c.963881.190598 1.900535.473773 2.80996.849523.909425.381196 1.775285.838632 2.597579 1.388643.816849.544566 1.573796 1.170817 2.27084 1.862416.697045.697044 1.31785 1.453991 1.867861 2.276285.544566.816849 1.007447 1.682709 1.383198 2.592134.37575.909425.66437 1.846078.854968 2.815406.190598.963881.28862 1.938654.28862 2.924319zm0 0" fill="#dae8fc" stroke="#6c8ebf" transform="matrix(.717314 0 0 .717314 .358657 .358657)"/><use x="82.244584" xlink:href="#aE" y="85.360419"/><path d="m86.499852 180.927582c0 .985665-.098022 1.960438-.28862 2.929765-.190598.963882-.473773 1.900535-.854969 2.815406-.37575.909425-.838631 1.769839-1.383197 2.592134-.550012.816848-1.170817 1.573795-1.867861 2.270839-.697045.697045-1.453991 1.31785-2.27084 1.867862-.822295.544566-1.682709 1.007447-2.592134 1.383197-.909425.375751-1.851524.66437-2.815406.854969-.963882.190598-1.9441.288619-2.924319.288619-.985664 0-1.960437-.098021-2.929765-.288619-.963881-.190599-1.900535-.479218-2.815405-.854969-.909425-.37575-1.76984-.838631-2.592134-1.383197-.816849-.550012-1.573796-1.170817-2.27084-1.867862-.697044-.697044-1.31785-1.453991-1.867861-2.270839-.544566-.822295-1.007447-1.682709-1.383198-2.592134-.37575-.914871-.66437-1.851524-.854968-2.815406-.190598-.969327-.28862-1.9441-.28862-2.929765 0-.980218.098022-1.960437.28862-2.924319.190598-.963881.479218-1.90598.854968-2.815405.375751-.909426.838632-1.76984 1.383198-2.592134.550011-.816849 1.170817-1.573796 1.867861-2.27084.697044-.697045 1.453991-1.31785 2.27084-1.867861.822294-.544566 1.682709-1.007447 2.592134-1.383198.91487-.381196 1.851524-.66437 2.815405-.854968.969328-.190598 1.944101-.28862 2.929765-.28862.980219 0 1.960437.098022 2.924319.28862s1.905981.473772 2.815406.854968c.909425.375751 1.769839.838632 2.592134 1.383198.816849.550011 1.573795 1.170816 2.27084 1.867861.697044.697044 1.317849 1.453991 1.867861 2.27084.544566.822294 1.007447 1.682708 1.383197 2.592134.381196.909425.664371 1.851524.854969 2.815405.190598.963882.28862 1.944101.28862 2.924319zm0 0" fill="#dae8fc" stroke="#6c8ebf" transform="matrix(.717314 0 0 .717314 .358657 .358657)"/><use x="48.093692" xlink:href="#aF" y="135.57243"/><path d="m188.998049 380.930308c0 .985665-.092576 1.960438-.28862 2.924319-.190598.969328-.473772 1.905981-.849522 2.815406-.381197.909425-.838632 1.775285-1.388644 2.592134-.544566.822294-1.170816 1.579241-1.862415 2.276285-.697044.697045-1.453991 1.31785-2.276286 1.862416-.816848.550011-1.682708 1.012892-2.592133 1.388643-.909425.37575-1.846079.658925-2.815406.849523-.963882.196043-1.938655.28862-2.924319.28862-.985665 0-1.960438-.092577-2.929765-.28862-.963882-.190598-1.900535-.473773-2.80996-.849523-.909425-.375751-1.775285-.838632-2.592134-1.388643-.822294-.544566-1.579241-1.165371-2.276285-1.862416-.697045-.697044-1.31785-1.453991-1.862416-2.276285-.550011-.816849-1.012892-1.682709-1.388643-2.592134-.37575-.909425-.658925-1.846078-.854968-2.815406-.190598-.963881-.28862-1.938654-.28862-2.924319 0-.985664.098022-1.960437.28862-2.924319.196043-.969327.479218-1.90598.854968-2.815406.375751-.909425.838632-1.775284 1.388643-2.592133.544566-.822295 1.165371-1.579242 1.862416-2.276286.697044-.697044 1.453991-1.317849 2.276285-1.862415.816849-.550012 1.682709-1.012893 2.592134-1.388643.909425-.375751 1.846078-.658925 2.80996-.854969.969327-.190598 1.9441-.28862 2.929765-.28862.985664 0 1.960437.098022 2.924319.28862.969327.196044 1.905981.479218 2.815406.854969.909425.37575 1.775285.838631 2.592133 1.388643.822295.544566 1.579242 1.165371 2.276286 1.862415.691599.697044 1.317849 1.453991 1.862415 2.276286.550012.816849 1.007447 1.682708 1.388644 2.592133.37575.909426.658924 1.846079.849522 2.815406.196044.963882.28862 1.938655.28862 2.924319zm0 0" fill="#dae8fc" stroke="#6c8ebf" transform="matrix(.717314 0 0 .717314 .358657 .358657)"/><use x="121.226141" xlink:href="#aG" y="279.035318"/><path d="m133.501336 550.927452c0 .985664-.098022 1.960437-.28862 2.929765-.190598.963881-.479218 1.900535-.854968 2.815405-.375751.909425-.838632 1.76984-1.383198 2.592134-.550011.816849-1.170816 1.573796-1.867861 2.27084-.697044.697044-1.453991 1.31785-2.27084 1.867861-.822294.544566-1.688154 1.007447-2.597579 1.383198-.909425.37575-1.846079.66437-2.80996.854968-.969328.190598-1.944101.28862-2.929765.28862s-1.960437-.098022-2.924319-.28862-1.905981-.479218-2.815406-.854968c-.909425-.375751-1.775285-.838632-2.592133-1.383198-.816849-.550011-1.579242-1.170817-2.27084-1.867861-.697045-.697044-1.323296-1.453991-1.867861-2.27084-.544566-.822294-1.007447-1.682709-1.388644-2.592134-.37575-.91487-.658924-1.851524-.849522-2.815405-.196044-.969328-.28862-1.944101-.28862-2.929765 0-.980219.092576-1.960437.28862-2.924319.190598-.963882.473772-1.905981.849522-2.815406.381197-.909425.844078-1.769839 1.388644-2.592134.544565-.816849 1.170816-1.573795 1.867861-2.27084.691598-.697044 1.453991-1.317849 2.27084-1.867861.816848-.544566 1.682708-1.007447 2.592133-1.383197.909425-.381196 1.851524-.664371 2.815406-.854969s1.938655-.28862 2.924319-.28862 1.960437.098022 2.929765.28862c.963881.190598 1.900535.473773 2.80996.854969.909425.37575 1.775285.838631 2.597579 1.383197.816849.550012 1.573796 1.170817 2.27084 1.867861.697045.697045 1.31785 1.453991 1.867861 2.27084.544566.822295 1.007447 1.682709 1.383198 2.592134.37575.909425.66437 1.851524.854968 2.815406s.28862 1.9441.28862 2.924319zm0 0" fill="#dae8fc" stroke="#6c8ebf" transform="matrix(.717314 0 0 .717314 .358657 .358657)"/><use x="81.538478" xlink:href="#aH" y="400.978773"/><path d="m44.998483.997556h100.004086v40.003813h-100.004086zm0 0" fill="#fff" stroke="#000" transform="matrix(.717314 0 0 .717314 .358657 .358657)"/><path d="m68.863281 29.769531v2.152344h-.71875v-2.152344m.71875 4.304688v2.148437h-.71875v-2.148437m.71875 4.300781v2.152344h-.71875v-2.152344m.71875 4.304688v2.152343h-.71875v-2.152343m.71875 4.304687v2.152344h-.71875v-2.152344m.71875 4.304687v2.152344h-.71875v-2.152344m.71875 4.304688v2.148438h-.71875v-2.148438m.71875 4.300781v2.152344h-.71875v-2.152344m.71875 4.304688v2.152343h-.71875v-2.152343m.71875 4.304687v2.152344h-.71875v-2.152344m.71875 4.304688v2.152344h-.71875v-2.152344m.71875 4.300781v2.152344h-.71875v-2.152344m.71875 4.304687v2.152344h-.71875v-2.152344m.71875 4.304688v2.152344h-.71875v-2.152344m.71875 4.304688v2.152343h-.71875v-2.152343m.71875 4.304687v2.152344h-.71875v-2.152344m.71875 4.300781v2.152344h-.71875v-2.152344m.71875 4.304688v2.152344h-.71875v-2.152344m.71875 4.304687v2.152344h-.71875v-2.152344m.71875 4.304688v2.152343h-.71875v-2.152343m.71875 4.304687v2.152344h-.71875v-2.152344m.71875 4.300782v2.152343h-.71875v-2.152343m.71875 4.304687v2.152344h-.71875v-2.152344m.71875 4.304687v2.152344h-.71875v-2.152344m.71875 4.304688v2.152344h-.71875v-2.152344m.71875 4.304688v2.152343h-.71875v-2.152343m.71875 4.300781v2.152343h-.71875v-2.152343m.71875 4.304687v2.152344h-.71875v-2.152344m.71875 4.304688v2.152344h-.71875v-2.152344m.71875 4.304687v2.152344h-.71875v-2.152344m.71875 4.304688v2.148437h-.71875v-2.148437m.71875 4.300781v2.152344h-.71875v-2.152344m.71875 4.304688v2.152343h-.71875v-2.152343m.71875 4.304687v2.152344h-.71875v-2.152344m.71875 4.304687v2.152344h-.71875v-2.152344m.71875 4.304688v2.148438h-.71875v-2.148438m.71875 4.300781v2.152344h-.71875v-2.152344m.71875 4.304688v2.152343h-.71875v-2.152343m.71875 4.304687v2.152344h-.71875v-2.152344m.71875 4.304688v2.152344h-.71875v-2.152344m.71875 4.304687v2.148438h-.71875v-2.148438m.71875 4.300781v2.152344h-.71875v-2.152344m.71875 4.304688v2.152344h-.71875v-2.152344m.71875 4.304688v2.152343h-.71875v-2.152343m.71875 4.304687v2.152344h-.71875v-2.152344m.71875 4.304687v2.148438h-.71875v-2.148438m.71875 4.300782v2.152344h-.71875v-2.152344m.71875 4.304687v2.152344h-.71875v-2.152344m.71875 4.304688v2.152343h-.71875v-2.152343m.71875 4.304687v2.152344h-.71875v-2.152344m.71875 4.300782v2.152343h-.71875v-2.152343m.71875 4.304687v2.152344h-.71875v-2.152344m.71875 4.304687v2.152344h-.71875v-2.152344m.71875 4.304688v2.152344h-.71875v-2.152344m.71875 4.304688v2.152343h-.71875v-2.152343m.71875 4.300781v2.152343h-.71875v-2.152343m.71875 4.304687v2.152344h-.71875v-2.152344m.71875 4.304688v2.152344h-.71875v-2.152344m.71875 4.304687v2.152344h-.71875v-2.152344m.71875 4.304688v2.152343h-.71875v-2.152343m.71875 4.300781v2.152344h-.71875v-2.152344m.71875 4.304688v2.152343h-.71875v-2.152343m.71875 4.304687v2.152344h-.71875v-2.152344m.71875 4.304687v2.152344h-.71875v-2.152344m.71875 4.304688v2.152344h-.71875v-2.152344m.71875 4.300781v2.152344h-.71875v-2.152344m.71875 4.304688v2.152343h-.71875v-2.152343m.71875 4.304687v2.152344h-.71875v-2.152344m.71875 4.304688v2.152344h-.71875v-2.152344m.71875 4.304687v2.148438h-.71875v-2.148438m.71875 4.300781v2.152344h-.71875v-2.152344m.71875 4.304688v2.152344h-.71875v-2.152344m.71875 4.304688v2.152343h-.71875v-2.152343m.71875 4.304687v2.152344h-.71875v-2.152344m.71875 4.304687v2.148438h-.71875v-2.148438m.71875 4.300782v2.152344h-.71875v-2.152344m.71875 4.304687v2.152344h-.71875v-2.152344m.71875 4.304688v2.152343h-.71875v-2.152343m.71875 4.304687v2.152344h-.71875v-2.152344m.71875 4.304688v2.148437h-.71875v-2.148437m.71875 4.300781v2.152344h-.71875v-2.152344m.71875 4.304687v2.152344h-.71875v-2.152344m.71875 4.304688v2.152344h-.71875v-2.152344m.71875 4.304688v2.152343h-.71875v-2.152343m.71875 4.304687v2.148437h-.71875v-2.148437m.71875 4.300781v2.152344h-.71875v-2.152344m.71875 4.304688v2.152344h-.71875v-2.152344"/><use x="40.169609" xlink:href="#am" y="13.628974"/><use x="45.058809" xlink:href="#at" y="13.628974"/><use x="49.087234" xlink:href="#at" y="13.628974"/><use x="53.115659" xlink:href="#aA" y="13.628974"/><use x="58.142596" xlink:href="#aB" y="13.628974"/><use x="63.152315" xlink:href="#aC" y="13.628974"/><use x="68.196468" xlink:href="#aD" y="13.628974"/><use x="71.303864" xlink:href="#al" y="13.628974"/><use x="73.584919" xlink:href="#an" y="13.628974"/><use x="78.190076" xlink:href="#aC" y="13.628974"/><use x="83.23423" xlink:href="#aD" y="13.628974"/><use x="86.341626" xlink:href="#au" y="13.628974"/><use x="88.769009" xlink:href="#aD" y="13.628974"/><use x="91.876404" xlink:href="#az" y="13.628974"/><use x="52.21825" xlink:href="#ak" y="23.671377"/><g><use x="56.479088" xlink:href="#ao" y="23.671377"/><use x="61.480205" xlink:href="#ap" y="23.671377"/></g><use x="65.766874" xlink:href="#ad" y="23.671377"/><use x="69.984676" xlink:href="#ak" y="23.671377"/><g><use x="74.245514" xlink:href="#ao" y="23.671377"/><use x="79.246631" xlink:href="#aq" y="23.671377"/></g><path d="m7.890625 29.769531v.714844h-.71875v-.714844m.71875 1.433594v.71875h-.71875v-.71875m.71875 1.433594v.71875h-.71875v-.71875m.71875 1.4375v.714843h-.71875v-.714843m.71875 1.433593v.714844h-.71875v-.714844m.71875 1.433594v.71875h-.71875v-.71875m.71875 1.433594v.71875h-.71875v-.71875m.71875 1.4375v.714844h-.71875v-.714844m.71875 1.433594v.71875h-.71875v-.71875m.71875 1.433594v.71875h-.71875v-.71875m.71875 1.433593v.71875h-.71875v-.71875m.71875 1.4375v.714844h-.71875v-.714844m.71875 1.433594v.71875h-.71875v-.71875m.71875 1.433594v.71875h-.71875v-.71875m.71875 1.433593v.71875h-.71875v-.71875m.71875 1.4375v.714844h-.71875v-.714844m.71875 1.433594v.71875h-.71875v-.71875m.71875 1.433594v.71875h-.71875v-.71875m.71875 1.4375v.714844h-.71875v-.714844m.71875 1.433594v.714844h-.71875v-.714844m.71875 1.433594v.71875h-.71875v-.71875m.71875 1.433593v.71875h-.71875v-.71875m.71875 1.4375v.714844h-.71875v-.714844m.71875 1.433594v.714844h-.71875v-.714844m.71875 1.433594v.71875h-.71875v-.71875m.71875 1.433593v.71875h-.71875v-.71875m.71875 1.4375v.714844h-.71875v-.714844m.71875 1.433594v.71875h-.71875v-.71875m.71875 1.433594v.71875h-.71875v-.71875m.71875 1.433594v.71875h-.71875v-.71875m.71875 1.4375v.714844h-.71875v-.714844m.71875 1.433594v.71875h-.71875v-.71875m.71875 1.433593v.71875h-.71875v-.71875m.71875 1.433594v.71875h-.71875v-.71875m.71875 1.4375v.714844h-.71875v-.714844m.71875 1.433594v.71875h-.71875v-.71875m.71875 1.433593v.71875h-.71875v-.71875m.71875 1.4375v.714844h-.71875v-.714844m.71875 1.433594v.714844h-.71875v-.714844m.71875 1.433594v.71875h-.71875v-.71875m.71875 1.433594v.71875h-.71875v-.71875m.71875 1.4375v.714844h-.71875v-.714844m.71875 1.433594v.71875h-.71875v-.71875m.71875 1.433593v.71875h-.71875v-.71875m.71875 1.433594v.71875h-.71875v-.71875m.71875 1.4375v.714844h-.71875v-.714844m.71875 1.433594v.71875h-.71875v-.71875m.71875 1.433593v.71875h-.71875v-.71875m.71875 1.433594v.71875h-.71875v-.71875m.71875 1.4375v.714844h-.71875v-.714844m.71875 1.433594v.71875h-.71875v-.71875m.71875 1.433594v.71875h-.71875v-.71875m.71875 1.4375v.714844h-.71875v-.714844m.71875 1.433594v.714843h-.71875v-.714843m.71875 1.433593v.71875h-.71875v-.71875m.71875 1.433594v.71875h-.71875v-.71875m.71875 1.4375v.714844h-.71875v-.714844m.71875 1.433594v.714843h-.71875v-.714843m.71875 1.433593v.71875h-.71875v-.71875m.71875 1.433594v.71875h-.71875v-.71875m.71875 1.4375v.714844h-.71875v-.714844m.71875 1.433594v.71875h-.71875v-.71875m.71875 1.433594v.71875h-.71875v-.71875m.71875 1.433594v.71875h-.71875v-.71875m.71875 1.4375v.714843h-.71875v-.714843m.71875 1.433593v.71875h-.71875v-.71875m.71875 1.433594v.71875h-.71875v-.71875m.71875 1.4375v.714844h-.71875v-.714844m.71875 1.433594v.714843h-.71875v-.714843m.71875 1.433593v.71875h-.71875v-.71875m.71875 1.433594v.71875h-.71875v-.71875m.71875 1.4375v.714844h-.71875v-.714844m.71875 1.433594v.714844h-.71875v-.714844m.71875 1.433594v.71875h-.71875v-.71875m.71875 1.433594v.71875h-.71875v-.71875m.71875 1.4375v.714843h-.71875v-.714843m.71875 1.433593v.71875h-.71875v-.71875m.71875 1.433594v.71875h-.71875v-.71875m.71875 1.433594v.71875h-.71875v-.71875m.71875 1.4375v.714843h-.71875v-.714843m.71875 1.433593v.71875h-.71875v-.71875m.71875 1.433594v.71875h-.71875v-.71875m.71875 1.433594v.71875h-.71875v-.71875m.71875 1.4375v.714844h-.71875v-.714844m.71875 1.433594v.71875h-.71875v-.71875m.71875 1.433594v.71875h-.71875v-.71875m.71875 1.4375v.714843h-.71875v-.714843m.71875 1.433593v.714844h-.71875v-.714844m.71875 1.433594v.71875h-.71875v-.71875m.71875 1.433594v.71875h-.71875v-.71875m.71875 1.4375v.714843h-.71875v-.714843m.71875 1.433593v.714844h-.71875v-.714844m.71875 1.433594v.71875h-.71875v-.71875m.71875 1.433594v.71875h-.71875v-.71875m.71875 1.4375v.714844h-.71875v-.714844m.71875 1.433594v.71875h-.71875v-.71875m.71875 1.433594v.71875h-.71875v-.71875m.71875 1.433593v.71875h-.71875v-.71875m.71875 1.4375v.714844h-.71875v-.714844m.71875 1.433594v.71875h-.71875v-.71875m.71875 1.433594v.71875h-.71875v-.71875m.71875 1.4375v.714843h-.71875v-.714843m.71875 1.433593v.714844h-.71875v-.714844m.71875 1.433594v.71875h-.71875v-.71875m.71875 1.433594v.71875h-.71875v-.71875m.71875 1.4375v.714844h-.71875v-.714844m.71875 1.433594v.714844h-.71875v-.714844m.71875 1.433594v.71875h-.71875v-.71875m.71875 1.433593v.71875h-.71875v-.71875m.71875 1.4375v.714844h-.71875v-.714844m.71875 1.433594v.71875h-.71875v-.71875m.71875 1.433594v.71875h-.71875v-.71875m.71875 1.433593v.71875h-.71875v-.71875m.71875 1.4375v.714844h-.71875v-.714844m.71875 1.433594v.71875h-.71875v-.71875m.71875 1.433594v.71875h-.71875v-.71875m.71875 1.433594v.71875h-.71875v-.71875m.71875 1.4375v.714844h-.71875v-.714844m.71875 1.433594v.71875h-.71875v-.71875m.71875 1.433593v.71875h-.71875v-.71875m.71875 1.4375v.714844h-.71875v-.714844m.71875 1.433594v.714844h-.71875v-.714844m.71875 1.433594v.71875h-.71875v-.71875m.71875 1.433593v.71875h-.71875v-.71875m.71875 1.4375v.714844h-.71875v-.714844m.71875 1.433594v.71875h-.71875v-.71875m.71875 1.433594v.71875h-.71875v-.71875m.71875 1.433594v.71875h-.71875v-.71875m.71875 1.4375v.714844h-.71875v-.714844m.71875 1.433594v.71875h-.71875v-.71875m.71875 1.433593v.71875h-.71875v-.71875m.71875 1.433594v.71875h-.71875v-.71875m.71875 1.4375v.714844h-.71875v-.714844m.71875 1.433594v.71875h-.71875v-.71875m.71875 1.433593v.71875h-.71875v-.71875m.71875 1.4375v.714844h-.71875v-.714844m.71875 1.433594v.714844h-.71875v-.714844m.71875 1.433594v.71875h-.71875v-.71875m.71875 1.433594v.71875h-.71875v-.71875m.71875 1.4375v.714844h-.71875v-.714844m.71875 1.433594v.714843h-.71875v-.714843m.71875 1.433593v.71875h-.71875v-.71875m.71875 1.433594v.71875h-.71875v-.71875m.71875 1.4375v.714844h-.71875v-.714844m.71875 1.433594v.71875h-.71875v-.71875m.71875 1.433593v.71875h-.71875v-.71875m.71875 1.433594v.71875h-.71875v-.71875m.71875 1.4375v.714844h-.71875v-.714844m.71875 1.433594v.71875h-.71875v-.71875m.71875 1.433594v.71875h-.71875v-.71875m.71875 1.433594v.71875h-.71875v-.71875m.71875 1.4375v.714843h-.71875v-.714843m.71875 1.433593v.71875h-.71875v-.71875m.71875 1.433594v.71875h-.71875v-.71875m.71875 1.4375v.714844h-.71875v-.714844m.71875 1.433594v.714843h-.71875v-.714843m.71875 1.433593v.71875h-.71875v-.71875m.71875 1.433594v.71875h-.71875v-.71875m.71875 1.4375v.714844h-.71875v-.714844m.71875 1.433594v.71875h-.71875v-.71875m.71875 1.433594v.71875h-.71875v-.71875m.71875 1.433594v.71875h-.71875v-.71875m.71875 1.4375v.714843h-.71875v-.714843m.71875 1.433593v.71875h-.71875v-.71875m.71875 1.433594v.71875h-.71875v-.71875m.71875 1.433594v.71875h-.71875v-.71875m.71875 1.4375v.714843h-.71875v-.714843m.71875 1.433593v.71875h-.71875v-.71875m.71875 1.433594v.71875h-.71875v-.71875m.71875 1.4375v.714844h-.71875v-.714844m.71875 1.433594v.714844h-.71875v-.714844m.71875 1.433594v.71875h-.71875v-.71875m.71875 1.433594v.71875h-.71875v-.71875m.71875 1.4375v.714843h-.71875v-.714843m.71875 1.433593v.714844h-.71875v-.714844m.71875 1.433594v.71875h-.71875v-.71875m.71875 1.433594v.71875h-.71875v-.71875m.71875 1.4375v.714843h-.71875v-.714843m.71875 1.433593v.71875h-.71875v-.71875m.71875 1.433594v.71875h-.71875v-.71875m.71875 1.433594v.71875h-.71875v-.71875m.71875 1.4375v.714844h-.71875v-.714844m.71875 1.433594v.71875h-.71875v-.71875m.71875 1.433594v.71875h-.71875v-.71875m.71875 1.4375v.714843h-.71875v-.714843m.71875 1.433593v.714844h-.71875v-.714844m.71875 1.433594v.71875h-.71875v-.71875m.71875 1.433594v.71875h-.71875v-.71875m.71875 1.4375v.714843h-.71875v-.714843m.71875 1.433593v.714844h-.71875v-.714844m.71875 1.433594v.71875h-.71875v-.71875m.71875 1.433594v.71875h-.71875v-.71875m.71875 1.4375v.714844h-.71875v-.714844m.71875 1.433594v.71875h-.71875v-.71875m.71875 1.433594v.71875h-.71875v-.71875m.71875 1.433593v.71875h-.71875v-.71875m.71875 1.4375v.714844h-.71875v-.714844m.71875 1.433594v.71875h-.71875v-.71875m.71875 1.433594v.71875h-.71875v-.71875m.71875 1.433593v.71875h-.71875v-.71875m.71875 1.4375v.714844h-.71875v-.714844m.71875 1.433594v.71875h-.71875v-.71875m.71875 1.433594v.71875h-.71875v-.71875m.71875 1.4375v.714844h-.71875v-.714844m.71875 1.433594v.714844h-.71875v-.714844m.71875 1.433594v.71875h-.71875v-.71875m.71875 1.433593v.71875h-.71875v-.71875m.71875 1.4375v.714844h-.71875v-.714844m.71875 1.433594v.714844h-.71875v-.714844m.71875 1.433594v.71875h-.71875v-.71875m.71875 1.433593v.71875h-.71875v-.71875m.71875 1.4375v.714844h-.71875v-.714844m.71875 1.433594v.71875h-.71875v-.71875m.71875 1.433594v.71875h-.71875v-.71875m.71875 1.433594v.71875h-.71875v-.71875m.71875 1.4375v.714844h-.71875v-.714844m.71875 1.433594v.71875h-.71875v-.71875m.71875 1.433593v.71875h-.71875v-.71875m.71875 1.4375v.714844h-.71875v-.714844m.71875 1.433594v.714844h-.71875v-.714844m.71875 1.433594v.71875h-.71875v-.71875m.71875 1.433593v.71875h-.71875v-.71875m.71875 1.4375v.714844h-.71875v-.714844m.71875 1.433594v.714844h-.71875v-.714844m.71875 1.433594v.71875h-.71875v-.71875m.71875 1.433594v.71875h-.71875v-.71875m.71875 1.4375v.714844h-.71875v-.714844m.71875 1.433594v.71875h-.71875v-.71875m.71875 1.433593v.71875h-.71875v-.71875m.71875 1.433594v.71875h-.71875v-.71875m.71875 1.4375v.714844h-.71875v-.714844m.71875 1.433594v.71875h-.71875v-.71875m.71875 1.433593v.71875h-.71875v-.71875m.71875 1.433594v.71875h-.71875v-.71875m.71875 1.4375v.714844h-.71875v-.714844m.71875 1.433594v.71875h-.71875v-.71875m.71875 1.433594v.71875h-.71875v-.71875m.71875 1.4375v.714844h-.71875v-.714844m.71875 1.433594v.714843h-.71875v-.714843m.71875 1.433593v.71875h-.71875v-.71875m.71875 1.433594v.71875h-.71875v-.71875m.71875 1.4375v.714844h-.71875v-.714844m.71875 1.433594v.71875h-.71875v-.71875m.71875 1.433593v.71875h-.71875v-.71875m.71875 1.433594v.71875h-.71875v-.71875m.71875 1.4375v.714844h-.71875v-.714844m.71875 1.433594v.71875h-.71875v-.71875m.71875 1.433594v.71875h-.71875v-.71875m.71875 1.433594v.71875h-.71875v-.71875m.71875 1.4375v.714843h-.71875v-.714843m.71875 1.433593v.71875h-.71875v-.71875m.71875 1.433594v.71875h-.71875v-.71875m.71875 1.4375v.714844h-.71875v-.714844m.71875 1.433594v.714843h-.71875v-.714843m.71875 1.433593v.71875h-.71875v-.71875m.71875 1.433594v.71875h-.71875v-.71875m.71875 1.4375v.714844h-.71875v-.714844m.71875 1.433594v.714844h-.71875v-.714844m.71875 1.433594v.71875h-.71875v-.71875m.71875 1.433594v.71875h-.71875v-.71875m.71875 1.4375v.714843h-.71875v-.714843m.71875 1.433593v.71875h-.71875v-.71875m.71875 1.433594v.71875h-.71875v-.71875m.71875 1.433594v.71875h-.71875v-.71875m.71875 1.4375v.714843h-.71875v-.714843m.71875 1.433593v.71875h-.71875v-.71875m.71875 1.433594v.71875h-.71875v-.71875m.71875 1.4375v.714844h-.71875v-.714844m.71875 1.433594v.714844h-.71875v-.714844m.71875 1.433594v.71875h-.71875v-.71875m.71875 1.433594v.71875h-.71875v-.71875m.71875 1.4375v.714843h-.71875v-.714843"/><path d="m7.53125 423.488281-2.511719-5.019531 2.511719 1.253906 2.511719-1.253906zm0 0"/><g clip-path="url(#z)"><path d="m9.999231 589.880252-3.501559-6.997672 3.501559 1.748057 3.501559-1.748057zm0 0" fill="none" stroke="#000" stroke-miterlimit="10" transform="matrix(.717314 0 0 .717314 .358657 .358657)"/></g><path d="m.71875 194.390625h15.0625v8.609375h-15.0625zm0 0" fill="#fff"/><use x=".896643" xlink:href="#aI" y="200.848044"/><use x="3.486138" xlink:href="#aM" y="200.848044"/><use x="5.508959" xlink:href="#aJ" y="200.848044"/><use x="11.656338" xlink:href="#aN" y="200.848044"/><path d="m90.00141 85.928057h9.998231v450.002049h-9.998231zm0 0" fill="#fff" stroke="#000" transform="matrix(.717314 0 0 .717314 .358657 .358657)"/><path d="m72.089844 116.15625.71875-.003906v.71875h-.71875zm1.433594-.003906h.71875v.714844l-.71875.003906zm1.433593 0 .71875-.003906v.71875h-.714843zm1.4375-.003906h.714844l.003906.714843-.71875.003907zm1.433594-.003907h.71875v.71875h-.71875zm1.433594 0h.71875v.714844h-.714844zm1.4375-.003906h.714843v.71875h-.714843zm1.433593 0 .714844-.003906.003906.71875h-.71875zm1.433594-.003906h.71875v.71875h-.71875zm1.433594 0 .71875-.003907v.71875h-.714844zm1.796875.355469v.71875h-.71875v-.71875zm0 1.433593v.71875h-.71875v-.71875zm0 1.433594v.71875h-.71875v-.71875zm0 1.4375v.714844h-.71875v-.714844zm0 1.433594v.71875h-.71875v-.71875zm0 1.433593v.71875h-.71875v-.71875zm0 1.4375v.714844h-.71875v-.714844zm0 1.433594v.714844h-.71875v-.714844zm0 1.433594v.71875h-.71875v-.71875zm0 1.433594v.71875h-.71875v-.71875zm0 1.4375v.714844h-.71875v-.714844zm0 1.433594v.714843h-.71875v-.714843zm0 1.433593v.71875h-.71875v-.71875zm0 1.433594v.71875h-.71875v-.71875zm0 1.4375v.714844h-.71875v-.714844zm0 1.433594v.71875h-.71875v-.71875zm0 1.433593v.71875h-.71875v-.71875zm0 1.433594v.71875h-.71875v-.71875zm0 1.4375v.714844h-.71875v-.714844zm0 1.433594v.71875h-.71875v-.71875zm0 1.433594v.71875h-.71875v-.71875zm0 1.433594v.71875h-.71875v-.71875zm0 1.4375v.714843h-.71875v-.714843zm0 1.433593v.71875h-.71875v-.71875zm0 1.433594v.71875h-.71875v-.71875zm0 1.4375v.714844h-.71875v-.714844zm0 1.433594v.714843h-.71875v-.714843zm0 1.433593v.71875h-.71875v-.71875zm0 1.433594v.71875h-.71875v-.71875zm0 1.4375v.714844h-.71875v-.714844zm0 1.433594v.714844h-.71875v-.714844zm0 1.433594v.71875h-.71875v-.71875zm0 1.433594v.71875h-.71875v-.71875zm0 1.4375v.714843h-.71875v-.714843zm0 1.433593v.71875h-.71875v-.71875zm0 1.433594v.71875h-.71875v-.71875zm0 1.433594v.71875h-.71875v-.71875zm0 1.4375v.714843h-.71875v-.714843zm0 1.433593v.71875h-.71875v-.71875zm0 1.433594v.71875h-.71875v-.71875zm0 1.4375v.714844h-.71875v-.714844zm0 1.433594v.714844h-.71875v-.714844zm-.359375 1.792969h-.71875v-.71875h.71875zm-1.4375 0h-.714844v-.71875h.714844zm-1.433594 0h-.714844v-.71875h.714844zm-1.433594 0h-.71875v-.71875h.71875zm-1.433593 0h-.71875v-.71875h.71875zm-1.4375 0h-.714844v-.71875h.714844zm-1.433594 0h-.71875v-.71875h.71875zm-1.433594 0h-.71875v-.71875h.71875zm-1.433593 0h-.71875v-.71875h.71875zm-1.4375 0h-.714844v-.71875h.714844zm-1.433594 0h-.71875v-.71875h.71875zm-1.433594 0h-.71875v-.71875h.71875zm-1.433594 0h-.71875v-.71875h.71875zm-1.4375 0h-.714844v-.71875h.714844zm-1.433594 0h-.71875v-.71875h.71875zm-1.433593 0h-.71875v-.71875h.71875zm-1.4375 0h-.714844v-.71875h.714844zm-1.433594 0h-.714844v-.71875h.714844zm-1.433594 0h-.71875v-.71875h.71875zm-1.433593 0h-.71875v-.71875h.71875zm-1.4375 0h-.714844v-.71875h.714844zm-1.433594 0h-.714844v-.71875h.714844zm-1.433594 0h-.71875v-.71875h.71875zm-1.433594 0h-.71875v-.71875h.71875zm-1.4375 0h-.714844v-.71875h.714844zm-1.074218-.359375v.71875h-.71875v-.71875zm0 1.433594v.71875h-.71875v-.71875zm0 1.4375v.714843h-.71875v-.714843zm0 1.433593v.714844h-.71875v-.714844zm0 1.433594v.71875h-.71875v-.71875zm0 1.433594v.71875h-.71875v-.71875zm0 1.4375v.714843h-.71875v-.714843zm0 1.433593v.71875h-.71875v-.71875zm0 1.433594v.71875h-.71875v-.71875zm0 1.433594v.71875h-.71875v-.71875zm0 1.4375v.714844h-.71875v-.714844zm0 1.433594v.71875h-.71875v-.71875zm0 1.433594v.71875h-.71875v-.71875zm0 1.433593v.71875h-.71875v-.71875zm0 1.4375v.714844h-.71875v-.714844zm0 1.433594v.71875h-.71875v-.71875zm0 1.433594v.71875h-.71875v-.71875zm0 1.4375v.714843h-.71875v-.714843zm0 1.433593v.714844h-.71875v-.714844zm0 1.433594v.71875h-.71875v-.71875zm0 1.433594v.71875h-.71875v-.71875zm0 1.4375v.714844h-.71875v-.714844zm0 1.433594v.71875h-.71875v-.71875zm0 1.433594v.71875h-.71875v-.71875zm0 1.433593v.71875h-.71875v-.71875zm0 1.4375v.714844h-.71875v-.714844zm0 1.433594v.71875h-.71875v-.71875zm0 1.433594v.71875h-.71875v-.71875zm0 1.433593v.71875h-.71875v-.71875zm0 1.4375v.714844h-.71875v-.714844zm0 1.433594v.71875h-.71875v-.71875zm0 1.433594v.71875h-.71875v-.71875zm0 1.4375v.714844h-.71875v-.714844zm0 1.433594v.714844h-.71875v-.714844zm0 1.433594v.71875h-.71875v-.71875zm0 1.433593v.71875h-.71875v-.71875zm0 1.4375v.714844h-.71875v-.714844zm0 1.433594v.714844h-.71875v-.714844zm0 1.433594v.71875h-.71875v-.71875zm0 1.433593v.71875h-.71875v-.71875zm0 1.4375v.714844h-.71875v-.714844zm0 1.433594v.71875h-.71875v-.71875zm0 1.433594v.71875h-.71875v-.71875zm0 1.433594v.71875h-.71875v-.71875zm0 1.4375v.714844h-.71875v-.714844zm0 1.433594v.71875h-.71875v-.71875zm0 1.433593v.71875h-.71875v-.71875zm0 1.433594v.71875h-.71875v-.71875zm0 1.4375v.714844h-.71875v-.714844zm0 1.433594v.71875h-.71875v-.71875zm0 1.433593v.71875h-.71875v-.71875zm0 1.4375v.714844h-.71875v-.714844zm0 1.433594v.714844h-.71875v-.714844zm0 1.433594v.71875h-.71875v-.71875zm0 1.433594v.71875h-.71875v-.71875zm0 1.4375v.714844h-.71875v-.714844zm0 1.433594v.71875h-.71875v-.71875zm0 1.433593v.71875h-.71875v-.71875zm0 1.433594v.71875h-.71875v-.71875zm0 1.4375v.714844h-.71875v-.714844zm0 1.433594v.71875h-.71875v-.71875zm0 1.433593v.71875h-.71875v-.71875zm0 1.433594v.71875h-.71875v-.71875zm0 1.4375v.714844h-.71875v-.714844zm0 1.433594v.71875h-.71875v-.71875zm0 1.433594v.71875h-.71875v-.71875zm0 1.4375v.714844h-.71875v-.714844zm0 1.433594v.714843h-.71875v-.714843zm0 1.433593v.71875h-.71875v-.71875zm0 1.433594v.71875h-.71875v-.71875zm0 1.4375v.714844h-.71875v-.714844zm0 1.433594v.644531h-.359376v-.359375h.070313l.003906.71875h-.433593v-1.003906zm.429687.285156h.71875v.71875h-.71875zm1.433594 0h.71875v.714844h-.71875zm1.4375 0 .714843-.003906v.71875h-.714843zm1.433593-.003906h.714844l.003906.71875h-.71875zm1.433594 0h.71875v.714843l-.71875.003907zm1.433594 0 .5625-.003907v.71875h-.5625zm0 0"/><path d="m88.879605 388.777503-6.992227 3.51245-.005445-6.997672zm0 0" stroke="#000" stroke-miterlimit="10" transform="matrix(.717314 0 0 .717314 .358657 .358657)"/><path d="m88.945312 111.902344h35.867188v9.324218h-35.867188zm0 0" fill="#fff"/><use x="88.946991" xlink:href="#aP" y="119.074197"/><use x="93.566487" xlink:href="#aN" y="119.074197"/><use x="97.511716" xlink:href="#aK" y="119.074197"/><use x="99.613442" xlink:href="#aO" y="119.074197"/><use x="103.443888" xlink:href="#aL" y="119.074197"/><use x="106.973073" xlink:href="#aQ" y="119.074197"/><use fill="#333" x="108.863675" xlink:href="#B" y="119.074197"/><use x="112.808904" xlink:href="#aR" y="119.074197"/><use x="116.940631" xlink:href="#aS" y="119.074197"/><use x="120.534373" xlink:href="#aT" y="119.074197"/><path d="m19.997461 445.929697h52.501601l14.00079 14.000789v21.069256h-66.502391zm0 0" fill="#fff" stroke="#000" stroke-miterlimit="10" transform="matrix(.717314 0 0 .717314 .358657 .358657)"/><path d="m72.499062 445.929697v14.000789h14.00079" fill="none" stroke="#000" stroke-miterlimit="10" transform="matrix(.717314 0 0 .717314 .358657 .358657)"/><use x="15.780918" xlink:href="#Y" y="328.530014"/><use x="20.738986" xlink:href="#ai" y="328.530014"/><use x="24.560829" xlink:href="#ag" y="328.530014"/><use x="15.780918" xlink:href="#Z" y="338.572417"/><use x="18.061972" xlink:href="#al" y="338.572417"/><use x="20.343027" xlink:href="#aa" y="338.572417"/><use fill="#333" x="23.122183" xlink:href="#ab" y="338.572417"/><use x="27.426069" xlink:href="#Y" y="338.572417"/><use x="32.384138" xlink:href="#aj" y="338.572417"/><use x="36.696627" xlink:href="#ag" y="338.572417"/><use x="41.499764" xlink:href="#ac" y="338.572417"/><path d="m28.691406 34.429688h78.90625v10.042968h-78.90625zm0 0" fill="#fff"/><use x="28.90553" xlink:href="#ar" y="42.321552"/><use x="31.444819" xlink:href="#aC" y="42.321552"/><use x="36.488972" xlink:href="#au" y="42.321552"/><use x="38.916355" xlink:href="#aD" y="42.321552"/><use x="42.023751" xlink:href="#au" y="42.321552"/><use x="44.451134" xlink:href="#as" y="42.321552"/><use x="49.133763" xlink:href="#ay" y="42.321552"/><use x="51.655834" xlink:href="#al" y="42.321552"/><use x="53.936889" xlink:href="#av" y="42.321552"/><use x="59.049899" xlink:href="#as" y="42.321552"/><use x="63.732528" xlink:href="#ay" y="42.321552"/><use x="66.254599" xlink:href="#as" y="42.321552"/><use x="70.937228" xlink:href="#aC" y="42.321552"/><use x="75.981381" xlink:href="#at" y="42.321552"/><use x="80.009806" xlink:href="#aw" y="42.321552"/><use x="84.744075" xlink:href="#ae" y="42.321552"/><use x="86.809933" xlink:href="#al" y="42.321552"/><use x="89.090988" xlink:href="#Y" y="42.321552"/><use x="94.049056" xlink:href="#af" y="42.321552"/><use x="97.776221" xlink:href="#ag" y="42.321552"/><use x="102.579358" xlink:href="#ag" y="42.321552"/></svg>