<svg height="125.040001pt" viewBox="0 0 144.959991 125.040001" width="144.959991pt" xmlns="http://www.w3.org/2000/svg" xmlns:xlink="http://www.w3.org/1999/xlink"><clipPath id="a"><path d="m0 0h144.960938v125h-144.960938zm0 0"/></clipPath><clipPath id="b"><path d="m0 0h144.960938v77h-144.960938zm0 0"/></clipPath><clipPath id="c"><path d="m32 75h81v47.855469h-81zm0 0"/></clipPath><symbol id="d" overflow="visible"><path d="m4.269531 0h.96875l-1.207031-6.890625h-1.191406l-3.160156 6.890625h.96875l.761718-1.730469h2.589844zm-2.53125-2.5 1.582031-3.601562.558594 3.601562zm0 0"/></symbol><symbol id="e" overflow="visible"><path d="m5.621094-6.890625h-4.882813l-.117187.8125h1.9375l-.847656 6.078125h.9375l.851562-6.078125h1.898438zm0 0"/></symbol><symbol id="f" overflow="visible"><path d="m3.191406-5.390625c-1.953125 0-2.671875 1.980469-2.671875 3.359375 0 1.351562.71875 2.152344 1.96875 2.152344.582031 0 1.132813-.1796878 1.652344-.550782l-.371094-.640624c-.417969.261718-.757812.410156-1.21875.410156-.671875 0-1.070312-.378906-1.070312-1.300782 0-1.089843.390625-2.667968 1.71875-2.667968.410156 0 .710937.109375 1.03125.390625l.488281-.570313c-.429688-.410156-.9375-.582031-1.527344-.582031zm0 0"/></symbol><symbol id="g" overflow="visible"><path d="m3.308594-5.390625c-2.046875 0-2.808594 2.050781-2.808594 3.492187 0 1.207032.578125 2.019532 1.679688 2.019532.621093 0 1.160156-.351563 1.570312-.882813.070312.570313.398438.8125002.929688.882813l.261718-.632813c-.210937-.078125-.339844-.1875-.339844-.476562 0-.0625.007813-.132813.019532-.210938l.570312-3.742187c-.703125-.339844-1.25-.449219-1.882812-.449219zm.019531.730469c.371094 0 .59375.039062.890625.171875l-.4375 2.910156c-.410156.546875-.820312.96875-1.382812.96875-.589844 0-.917969-.402344-.917969-1.28125 0-1.179687.507812-2.769531 1.847656-2.769531zm0 0"/></symbol><symbol id="h" overflow="visible"><path d="m2.078125-7.800781c-.359375 0-.628906.242187-.679687.582031-.046876.367188.179687.667969.582031.667969.371093 0 .628906-.238281.679687-.570313.050782-.378906-.171875-.679687-.582031-.679687zm.140625 2.53125h-.910156l-.738282 5.269531h.910157zm0 0"/></symbol><symbol id="i" overflow="visible"><path d="m3.25-5.390625c-2.058594 0-2.730469 2.03125-2.730469 3.332031 0 1.339844.710938 2.179688 2.019531 2.179688 2.070313 0 2.722657-2.0625 2.722657-3.332032 0-1.339843-.703125-2.179687-2.011719-2.179687zm-.03125.742187c.703125 0 1.082031.417969 1.082031 1.339844 0 1.007813-.359375 2.6875-1.730469 2.6875-.710937 0-1.089843-.417968-1.089843-1.339844 0-1.007812.371093-2.6875 1.738281-2.6875zm0 0"/></symbol><symbol id="j" overflow="visible"><path d="m5.191406-5.269531h-.910156l-.480469 3.429687c-.410156.609375-.941406 1.238282-1.601562 1.238282-.46875 0-.648438-.238282-.550781-.957032l.523437-3.710937h-.910156l-.53125 3.75c-.140625 1.03125.328125 1.640625 1.269531 1.640625.730469 0 1.25-.421875 1.738281-1.089844l-.066406.96875h.777344zm0 0"/></symbol><symbol id="k" overflow="visible"><path d="m3.839844-5.390625c-.761719 0-1.339844.460937-1.828125 1.152344l.078125-1.03125h-.78125l-.738282 5.269531h.910157l.429687-3.160156c.417969-.75 1.011719-1.460938 1.679688-1.460938.398437 0 .660156.199219.558594.941406l-.519532 3.679688h.910156l.519532-3.699219c.152344-1.050781-.339844-1.691406-1.21875-1.691406zm0 0"/></symbol><symbol id="l" overflow="visible"><path d="m2.171875-4.558594h1.136719l.203125-.710937h-1.242188l.179688-1.300781-.71875.082031-.332031 1.21875h-.949219l-.097657.710937h.910157l-.441407 3.148438c-.140624.980468.320313 1.53125 1.230469 1.53125.417969 0 .808594-.1093752 1.1875-.351563l-.296875-.660156c-.28125.160156-.5.242187-.742187.242187-.429688 0-.550781-.210937-.46875-.742187zm0 0"/></symbol><symbol id="m" overflow="visible"><path d="m3.558594-5.390625c-.578125 0-1.128906.378906-1.527344 1.199219l.058594-1.078125h-.78125l-.738282 5.269531h.910157l.398437-2.789062c.371094-1.070313.832032-1.691407 1.511719-1.691407.167969 0 .28125.011719.429687.050781l.269532-.890624c-.160156-.039063-.339844-.070313-.53125-.070313zm0 0"/></symbol><symbol id="n" overflow="visible"><path d="m2.628906-5.390625c-1.367187 0-1.988281.800781-1.988281 1.5 0 .71875.398437 1.128906 1.410156 1.441406.839844.257813 1.109375.4375 1.109375.96875 0 .351563-.261718.859375-1.191406.859375-.589844 0-1.078125-.21875-1.457031-.558594l-.5312502.539063c.4101562.402344 1.0312502.761719 1.9492192.761719 1.101562 0 2.191406-.519532 2.191406-1.691406 0-.828126-.5-1.269532-1.492188-1.578126-.707031-.222656-1.058594-.382812-1.058594-.800781 0-.441406.410157-.710937 1.050782-.710937.457031 0 .898437.160156 1.300781.46875l.4375-.546875c-.449219-.402344-1-.652344-1.730469-.652344zm0 0"/></symbol><symbol id="o" overflow="visible"><path d="m2.964844-6.007812c-1.472656 0-2.492188 1.121093-2.492188 3.066406 0 1.980468 1.019532 3.042968 2.492188 3.042968 1.484375 0 2.496094-1.097656 2.496094-3.050781 0-1.988281-1.011719-3.058593-2.496094-3.058593zm0 .667968c1.011718 0 1.628906.695313 1.628906 2.390625 0 1.714844-.632812 2.382813-1.628906 2.382813-.960938 0-1.628906-.667969-1.628906-2.375 0-1.703125.644531-2.398438 1.628906-2.398438zm0 0"/></symbol><symbol id="p" overflow="visible"><path d="m2.089844-5.90625h-1.234375v5.90625h1.414062c1.277344 0 2.777344-.574219 2.777344-2.984375 0-2.449219-1.445313-2.921875-2.957031-2.921875zm.179687.652344c.945313 0 1.914063.273437 1.914063 2.269531 0 1.945313-.925782 2.339844-1.851563 2.339844h-.660156v-4.609375zm0 0"/></symbol><symbol id="q" overflow="visible"><path d="m2.921875-6.007812c-1.335937 0-2.449219 1.054687-2.449219 3.050781 0 1.988281 1.035156 3.058593 2.46875 3.058593.796875 0 1.371094-.324218 1.6875-.660156l-.410156-.519531c-.335938.246094-.695312.496094-1.253906.496094-.917969 0-1.628906-.667969-1.628906-2.375 0-1.78125.746093-2.382813 1.636718-2.382813.414063 0 .773438.136719 1.140625.4375l.445313-.523437c-.46875-.378907-.890625-.582031-1.636719-.582031zm0 0"/></symbol><symbol id="r" overflow="visible"><path d="m3.460938-3.121094c.578124-.117187 1.109374-.566406 1.109374-1.292968 0-1.027344-.859374-1.492188-2.316406-1.492188h-1.398437v5.90625h1.628906c1.371094 0 2.339844-.429688 2.339844-1.679688 0-1.003906-.675781-1.320312-1.363281-1.441406zm-1.121094-2.140625c.875 0 1.398437.179688 1.398437.90625 0 .625-.515625.953125-1.175781.953125h-.890625v-1.859375zm.144531 4.609375h-.8125v-2.125h.96875c.710937 0 1.328125.265625 1.328125 1.097656 0 .855469-.625 1.027344-1.484375 1.027344zm0 0"/></symbol><symbol id="s" overflow="visible"><path d="m2.886719-4.621094c-.511719 0-1 .25-1.335938.710938l-.058593-.605469h-.679688v6.339844l.789062-.09375v-2.140625c.292969.3515622.695313.511718 1.183594.511718 1.167969 0 1.773438-.992187 1.773438-2.363281 0-1.425781-.46875-2.359375-1.671875-2.359375zm-.289063 4.082032c-.410156 0-.761718-.199219-.996094-.550782v-2.203125c.242188-.359375.609376-.703125 1.089844-.703125.675782 0 1.019532.558594 1.019532 1.734375 0 1.183594-.394532 1.722657-1.113282 1.722657zm0 0"/></symbol><symbol id="t" overflow="visible"><path d="m2.941406-4.621094c-.59375 0-1.074218.308594-1.382812.773438l-.066406-.667969h-.679688v4.515625h.789062v-3.207031c.300782-.480469.644532-.796875 1.148438-.796875.4375 0 .710938.199218.710938.875v3.128906h.789062v-3.238281c0-.859375-.480469-1.382813-1.308594-1.382813zm0 0"/></symbol><symbol id="u" overflow="visible"><path d="m2.511719-4.621094c-1.285157 0-2.023438.96875-2.023438 2.367188 0 1.429687.730469 2.355468 2.015625 2.355468 1.277344 0 2.011719-.96875 2.011719-2.363281 0-1.433593-.71875-2.359375-2.003906-2.359375zm0 .636719c.746093 0 1.15625.546875 1.15625 1.722656 0 1.183594-.410157 1.730469-1.164063 1.730469s-1.167968-.546875-1.167968-1.722656c0-1.183594.421874-1.730469 1.175781-1.730469zm0 0"/></symbol><symbol id="v" overflow="visible"><path d="m2.039062-4.621094c-.933593 0-1.628906.523438-1.628906 1.242188 0 .636718.386719 1.054687 1.363282 1.3125.875.230468 1.097656.402344 1.097656.847656 0 .429688-.375.6875-.96875.6875-.488282 0-.90625-.164062-1.269532-.4375l-.417968.480469c.394531.34375.941406.589843 1.707031.589843.914063 0 1.78125-.425781 1.78125-1.371093 0-.789063-.550781-1.164063-1.5-1.40625-.730469-.1875-.96875-.359375-.96875-.726563 0-.359375.316406-.59375.832031-.59375.417969 0 .769532.128906 1.171875.386719l.335938-.496094c-.429688-.324219-.898438-.515625-1.535157-.515625zm0 0"/></symbol><symbol id="w" overflow="visible"><path d="m2.792969-.746094c-.222657.136719-.402344.199219-.597657.199219-.394531 0-.542968-.214844-.542968-.671875v-2.691406h.988281l.085937-.605469h-1.074218v-1.117187l-.785156.09375v1.023437h-.789063v.605469h.789063v2.726562c0 .839844.453124 1.285156 1.214843 1.285156.386719 0 .710938-.101562 1.011719-.308593zm0 0"/></symbol><symbol id="x" overflow="visible"><path d="m2.777344-4.621094c-.546875 0-.96875.34375-1.207032 1.019532l-.078124-.914063h-.679688v4.515625h.789062v-2.578125c.191407-.867187.515626-1.269531 1.082032-1.269531.164062 0 .257812.015625.394531.050781l.144531-.773437c-.136718-.03125-.300781-.050782-.445312-.050782zm0 0"/></symbol><symbol id="y" overflow="visible"><path d="m5.972656-4.515625h-.753906l-.820312 3.96875-.851563-3.96875h-.882813l-.890624 3.96875-.8125-3.96875h-.789063l1.054687 4.515625h1.042969l.816407-3.804688.789062 3.804688h1.070312zm0 0"/></symbol><symbol id="z" overflow="visible"><path d="m1.714844.101562c.230468 0 .453125-.0585932.625-.1523432l-.207032-.5507808c-.085937.035156-.179687.054687-.289062.054687-.207031 0-.285156-.121094-.285156-.363281v-5.519532l-.789063.09375v5.445313c0 .640625.371094.992187.945313.992187zm0 0"/></symbol><symbol id="A" overflow="visible"><path d="m4.226562-2.390625c0-1.378906-.644531-2.230469-1.859374-2.230469-1.167969 0-1.878907 1.003906-1.878907 2.410156 0 1.429688.738281 2.3125 1.996094 2.3125.628906 0 1.132813-.214843 1.578125-.5625l-.34375-.472656c-.394531.273438-.726562.394532-1.171875.394532-.652344 0-1.140625-.402344-1.21875-1.449219h2.878906c.011719-.101563.019531-.25.019531-.402344zm-.78125-.179687h-2.117187c.058594-1.003907.453125-1.425782 1.054687-1.425782.710938 0 1.0625.492188 1.0625 1.375zm0 0"/></symbol><symbol id="B" overflow="visible"><path d="m1.199219-6.6875c-.324219 0-.546875.234375-.546875.542969 0 .296875.222656.53125.546875.53125.335937 0 .558593-.234375.558593-.53125 0-.308594-.222656-.542969-.558593-.542969zm.402343 2.171875h-.789062v4.515625h.789062zm0 0"/></symbol><symbol id="C" overflow="visible"><path d="m6.867188-5.90625h-.746094l-.988282 5.195312-1.164062-5.195312h-.867188l-1.140624 5.195312-.949219-5.195312h-.796875l1.199218 5.90625h1.019532l1.097656-4.945312 1.089844 4.945312h1.042968zm0 0"/></symbol><symbol id="D" overflow="visible"><path d="m2.941406-4.621094c-.566406 0-1.011718.285156-1.339844.730469v-2.519531l-.789062.085937v6.324219h.789062v-3.214844c.300782-.472656.652344-.789062 1.140626-.789062.429687 0 .71875.199218.71875.875v3.128906h.789062v-3.238281c0-.851563-.488281-1.382813-1.308594-1.382813zm0 0"/></symbol><symbol id="E" overflow="visible"><path d="m3.523438-6.429688v2.367188c-.300782-.316406-.6875-.558594-1.21875-.558594-1.105469 0-1.773438 1.003906-1.773438 2.382813 0 1.40625.609375 2.339843 1.707031 2.339843.554688 0 1.011719-.273437 1.300781-.726562l.078126.625h.695312v-6.335938zm-1.113282 5.90625c-.652344 0-1.03125-.539062-1.03125-1.730468 0-1.175782.421875-1.742188 1.097656-1.742188.445313 0 .761719.234375 1.046876.59375v2.210938c-.300782.421875-.609376.667968-1.113282.667968zm0 0"/></symbol><symbol id="F" overflow="visible"><path d="m3.855469-1.054688v-2.066406c0-.941406-.496094-1.5-1.585938-1.5-.503906 0-1 .105469-1.558593.308594l.199218.574219c.460938-.152344.882813-.238281 1.214844-.238281.625 0 .945312.238281.945312.890624v.335938h-.695312c-1.261719 0-1.988281.519531-1.988281 1.488281 0 .808594.539062 1.363281 1.4375 1.363281.550781 0 1.03125-.203124 1.347656-.675781.136719.445313.429687.6250002.882813.675781l.179687-.546874c-.230469-.085938-.378906-.214844-.378906-.609376zm-1.851563.566407c-.511718 0-.777344-.28125-.777344-.816407 0-.617187.417969-.925781 1.25-.925781h.59375v1.039063c-.257812.472656-.601562.703125-1.066406.703125zm0 0"/></symbol><symbol id="G" overflow="visible"><path d="m1.601562-6.429688-.789062.09375v6.335938h.789062zm2.597657 1.914063h-.882813l-1.664062 2.046875 1.792968 2.46875h.941407l-1.847657-2.519531zm0 0"/></symbol><g clip-path="url(#a)"><path d="m0 0h145v125h-145zm0 0" fill="#fff"/></g><g clip-path="url(#b)"><path d="m15.99922.998438h170.00158c.984375 0 1.957813.098437 2.925782.289843.967968.191407 1.903125.475782 2.810937.853126.913282.377343 1.777344.836718 2.597657 1.389062.814844.546875 1.575 1.164844 2.269531 1.864844.7.694531 1.317969 1.454688 1.864844 2.269532.552344.820312 1.011719 1.684375 1.389063 2.592187.377344.913282.661719 1.848438.853125 2.816407s.289844 1.941406.289844 2.925781v70.000007c0 .984376-.098438 1.963282-.289844 2.925782-.191406.967969-.475781 1.903125-.853125 2.816407-.377344.907812-.836719 1.771875-1.389063 2.592187-.546875.820313-1.164844 1.575-1.864844 2.275001-.694531.694531-1.454687 1.317968-2.269531 1.864843-.820313.546876-1.684375 1.006251-2.597657 1.383594-.907812.377344-1.842969.661719-2.810937.853125-.967969.191407-1.941407.289844-2.925782.289844h-170.00158c-.984375 0-1.957812-.098437-2.925781-.289844-.967969-.191406-1.903125-.475781-2.816407-.853125-.907812-.377343-1.771875-.836718-2.592187-1.383594-.814844-.546875-1.575001-1.170312-2.269532-1.864843-.7-.700001-1.317969-1.454688-1.864844-2.275001-.552344-.820312-1.011719-1.684375-1.389062-2.592187-.377344-.913282-.661719-1.848438-.853126-2.816407-.191406-.9625-.289843-1.941406-.289843-2.925782v-70.000007c0-.984375.098437-1.957812.289843-2.925781.191407-.967969.475782-1.903125.853126-2.816407.377343-.907812.836718-1.771875 1.389062-2.592187.546875-.814844 1.164844-1.575001 1.864844-2.269532.694531-.7 1.454688-1.317969 2.269532-1.864844.820312-.552344 1.684375-1.011719 2.592187-1.389062.913282-.377344 1.848438-.661719 2.816407-.853126.967969-.191406 1.941406-.289843 2.925781-.289843zm0 0" fill="none" stroke="#000" transform="matrix(.714286 0 0 .714286 .357143 .357143)"/></g><use x="54.263387" xlink:href="#d" y="12.857142"/><use x="59.883373" xlink:href="#f" y="12.857142"/><use x="64.503353" xlink:href="#f" y="12.857142"/><use x="69.123332" xlink:href="#i" y="12.857142"/><use x="74.903328" xlink:href="#j" y="12.857142"/><use x="80.663324" xlink:href="#k" y="12.857142"/><use x="86.46332" xlink:href="#l" y="12.857142"/><g stroke="#000" transform="matrix(.714286 0 0 .714286 .357143 .357143)"><path d="m26.001565 61.001569h36.629691" fill="none" stroke-miterlimit="10"/><path d="m26.001565 61.001569c0 .459375-.04375.913281-.136719 1.361719-.0875.453906-.224218.891406-.399218 1.317968-.175.421094-.388282.825782-.645313 1.208594-.257031.382813-.546875.732813-.869531 1.060938-.328125.322656-.678125.6125-1.060938.869531-.382812.257032-.7875.470313-1.208594.645313-.426562.175-.864062.311719-1.317969.399219-.448437.092968-.902343.136718-1.361719.136718-.459375 0-.91875-.04375-1.367187-.136718-.448438-.0875-.885938-.224219-1.3125-.399219-.426563-.175-.83125-.388281-1.208594-.645313-.382813-.257031-.738282-.546875-1.060938-.869531-.328125-.328125-.617969-.678125-.875-1.060938-.251562-.382812-.470312-.7875-.645312-1.208594-.175-.426562-.30625-.864062-.399219-1.317968-.0875-.448438-.13125-.902344-.13125-1.361719s.04375-.91875.13125-1.367188c.092969-.448437.224219-.885938.399219-1.3125.175-.426563.39375-.83125.645312-1.208594.257031-.382812.546875-.738281.875-1.060938.322656-.328125.678125-.617968 1.060938-.875.377344-.251562.782031-.470312 1.208594-.645312.426562-.175.864062-.30625 1.3125-.399219.448437-.0875.907812-.13125 1.367187-.13125.459376 0 .913282.04375 1.361719.13125.453907.092969.891407.224219 1.317969.399219.421094.175.825782.39375 1.208594.645312.382813.257032.732813.546875 1.060938.875.322656.322657.6125.678126.869531 1.060938.257031.377344.470313.782031.645313 1.208594.175.426562.311718.864063.399218 1.3125.092969.448438.136719.907813.136719 1.367188zm0 0"/><path d="m67.881257 61.001569-7.000001 3.5 1.75-3.5-1.75-3.500001zm0 0" stroke-miterlimit="10"/></g><use x="19.999998" xlink:href="#o" y="40.714282"/><use x="25.931416" xlink:href="#s" y="40.714282"/><use x="31.022837" xlink:href="#A" y="40.714282"/><use x="35.737116" xlink:href="#t" y="40.714282"/><path d="m83.997665 50.999224c10.002345-13.332814 18.73047-15.028127 26.184377-5.091407" fill="none" stroke="#000" stroke-miterlimit="10" transform="matrix(.714286 0 0 .714286 .357143 .357143)"/><path d="m113.332043 50.107818-7.000001-3.500001 3.85-.7 1.750001-3.5zm0 0" stroke="#000" stroke-miterlimit="10" transform="matrix(.714286 0 0 .714286 .357143 .357143)"/><use x="56.863834" xlink:href="#p" y="26.428569"/><use x="62.383831" xlink:href="#A" y="26.428569"/><use x="67.098109" xlink:href="#s" y="26.428569"/><use x="72.189531" xlink:href="#u" y="26.428569"/><use x="77.195241" xlink:href="#v" y="26.428569"/><use x="81.19809" xlink:href="#B" y="26.428569"/><use x="83.615224" xlink:href="#w" y="26.428569"/><path d="m83.997665 70.998445c10.002345 13.332814 18.73047 15.033595 26.184377 5.091406" fill="none" stroke="#000" stroke-miterlimit="10" transform="matrix(.714286 0 0 .714286 .357143 .357143)"/><path d="m113.332043 71.889851-1.4 7.700001-1.750001-3.500001-3.85-.7zm0 0" stroke="#000" stroke-miterlimit="10" transform="matrix(.714286 0 0 .714286 .357143 .357143)"/><use x="53.504459" xlink:href="#C" y="67.14285"/><use x="60.584449" xlink:href="#B" y="67.14285"/><use x="63.001583" xlink:href="#w" y="67.14285"/><use x="66.095858" xlink:href="#D" y="67.14285"/><use x="71.118713" xlink:href="#E" y="67.14285"/><use x="76.244423" xlink:href="#x" y="67.14285"/><use x="79.381553" xlink:href="#F" y="67.14285"/><use x="83.915833" xlink:href="#y" y="67.14285"/><path d="m129.000013 61.001569h33.627347" fill="none" stroke="#000" stroke-miterlimit="10" transform="matrix(.714286 0 0 .714286 .357143 .357143)"/><path d="m167.877361 61.001569-7.000001 3.5 1.75-3.5-1.75-3.500001zm0 0" stroke="#000" stroke-miterlimit="10" transform="matrix(.714286 0 0 .714286 .357143 .357143)"/><use x="97.142847" xlink:href="#q" y="40.714282"/><use x="101.942837" xlink:href="#z" y="40.714282"/><use x="104.368537" xlink:href="#u" y="40.714282"/><use x="109.374248" xlink:href="#v" y="40.714282"/><use x="113.377096" xlink:href="#A" y="40.714282"/><path d="m188.997675 61.001569c0 .65625-.060156 1.307031-.191406 1.946875-.125781.645312-.317187 1.274219-.56875 1.875781-.251562.607032-.557813 1.186719-.924219 1.733594-.360937.541407-.776562 1.05-1.241406 1.514844s-.967969.875-1.514844 1.241407c-.546875.366406-1.121094.672656-1.728125.924218-.607032.251563-1.235938.442969-1.875782.56875-.645312.13125-1.296094.191407-1.952344.191407s-1.307031-.060157-1.952344-.191407c-.645312-.125781-1.26875-.317187-1.875781-.56875-.607031-.251562-1.18125-.557812-1.728125-.924218-.546875-.366407-1.05-.776563-1.514844-1.241407s-.880469-.973437-1.246875-1.514844c-.360938-.546875-.672657-1.126562-.924219-1.733594-.246094-.601562-.4375-1.230469-.56875-1.875781-.125781-.639844-.191406-1.290625-.191406-1.946875s.065625-1.307032.191406-1.952344c.13125-.645313.322656-1.26875.56875-1.875782.251562-.607031.563281-1.18125.924219-1.728125.366406-.546875.782031-1.05 1.246875-1.514844s.967969-.880469 1.514844-1.246875c.546875-.360937 1.121094-.672656 1.728125-.924219.607031-.251562 1.230469-.4375 1.875781-.56875.645313-.125781 1.296094-.191406 1.952344-.191406s1.307032.065625 1.952344.191406c.639844.13125 1.26875.317188 1.875782.56875.607031.251563 1.18125.563282 1.728125.924219.546875.366406 1.05.782031 1.514844 1.246875s.880469.967969 1.241406 1.514844c.366406.546875.672657 1.121094.924219 1.728125.251563.607032.442969 1.230469.56875 1.875782.13125.645312.191406 1.296094.191406 1.952344zm0 0" fill="#fff" stroke="#000" transform="matrix(.714286 0 0 .714286 .357143 .357143)"/><path d="m183.999237 61.001569c0 .661719-.125781 1.301562-.377343 1.914062-.257032.6125-.617969 1.148438-1.088282 1.618751-.464844.470312-1.00625.83125-1.61875 1.082812-.6125.257031-1.252344.382813-1.914063.382813-.661718 0-1.301562-.125782-1.914062-.382813-.6125-.251562-1.153907-.6125-1.624219-1.082812-.464844-.470313-.825782-1.006251-1.082813-1.618751-.251562-.6125-.377344-1.252343-.377344-1.914062 0-.667188.125782-1.301563.377344-1.914063.257031-.6125.617969-1.153906 1.082813-1.624219.470312-.470312 1.011719-.83125 1.624219-1.082813.6125-.251562 1.252344-.382812 1.914062-.382812.661719 0 1.301563.13125 1.914063.382812.6125.251563 1.153906.612501 1.61875 1.082813.470313.470313.83125 1.011719 1.088282 1.624219.251562.6125.377343 1.246875.377343 1.914063zm0 0" stroke="#000" transform="matrix(.714286 0 0 .714286 .357143 .357143)"/><path d="m71.999226 50.999224h53.998443c.399219 0 .782031.076562 1.148438.229687.371875.153125.694531.366407.973437.650782.284375.278906.497657.607031.650782.973437.153125.366407.229687.749219.229687 1.148438v14.000001c0 .39375-.076562.776563-.229687 1.148438-.153125.366406-.366407.689063-.650782.973438-.278906.278906-.601562.497656-.973437.650781-.366407.147656-.749219.224219-1.148438.224219h-53.998443c-.399219 0-.782031-.076563-1.148438-.224219-.366406-.153125-.689062-.371875-.973437-.650781-.278906-.284375-.497656-.607032-.650781-.973438-.153125-.371875-.224219-.754688-.224219-1.148438v-14.000001c0-.399219.071094-.782031.224219-1.148438.153125-.366406.371875-.694531.650781-.973437.284375-.284375.607031-.497657.973437-.650782.366407-.153125.749219-.229687 1.148438-.229687zm0 0" fill="#fff" stroke="#000" transform="matrix(.714286 0 0 .714286 .357143 .357143)"/><use x="55.87053" xlink:href="#u" y="47.142852"/><use x="60.876241" xlink:href="#s" y="47.142852"/><use x="65.967662" xlink:href="#A" y="47.142852"/><use x="70.681941" xlink:href="#t" y="47.142852"/><use x="75.704796" xlink:href="#A" y="47.142852"/><use x="80.419074" xlink:href="#E" y="47.142852"/><g clip-path="url(#c)"><path d="m60.000787 111.002355h81.998446c.590625 0 1.175781.054687 1.755469.169531s1.142969.284375 1.689844.514063c.546875.224219 1.066406.503125 1.553125.83125.492188.328125.946094.7 1.367188 1.121094.415625.415625.7875.869531 1.115625 1.361719.333594.492187.607031 1.011718.836719 1.553125.224218.546875.39375 1.110156.508594 1.689844.114843.579687.175 1.164844.175 1.755469v42.000004c0 .590625-.060157 1.175781-.175 1.755469-.114844.579687-.284376 1.142969-.508594 1.689844-.229688.546875-.503125 1.066406-.836719 1.558594-.328125.486718-.7.946093-1.115625 1.361719-.421094.415625-.875.792968-1.367188 1.121093-.486719.328125-1.00625.601563-1.553125.83125-.546875.224219-1.110156.393751-1.689844.508594-.579688.114844-1.164844.175-1.755469.175h-81.998446c-.590625 0-1.175781-.060156-1.755469-.175-.579687-.114843-1.142968-.284375-1.689843-.508594-.546876-.229687-1.066407-.503125-1.553126-.83125-.492187-.328125-.946094-.705468-1.367187-1.121093-.415625-.415626-.7875-.875001-1.121094-1.361719-.328125-.492188-.601563-1.011719-.83125-1.558594-.224219-.546875-.39375-1.110157-.508594-1.689844-.114844-.579688-.175-1.164844-.175-1.755469v-42.000004c0-.590625.060156-1.175782.175-1.755469.114844-.579688.284375-1.142969.508594-1.689844.229687-.541407.503125-1.060938.83125-1.553125.333594-.492188.705469-.946094 1.121094-1.361719.421093-.421094.875-.792969 1.367187-1.121094.486719-.328125 1.00625-.607031 1.553126-.83125.546875-.229688 1.110156-.399219 1.689843-.514063.579688-.114844 1.164844-.169531 1.755469-.169531zm0 0" fill="none" stroke="#000" transform="matrix(.714286 0 0 .714286 .357143 .357143)"/></g><use x="45.915174" xlink:href="#e" y="91.428562"/><use x="50.22516" xlink:href="#m" y="91.428562"/><use x="53.935149" xlink:href="#g" y="91.428562"/><use x="59.62514" xlink:href="#k" y="91.428562"/><use x="65.425136" xlink:href="#n" y="91.428562"/><use x="70.035132" xlink:href="#g" y="91.428562"/><use x="75.725123" xlink:href="#f" y="91.428562"/><use x="80.445113" xlink:href="#l" y="91.428562"/><use x="83.995102" xlink:href="#h" y="91.428562"/><use x="86.785095" xlink:href="#i" y="91.428562"/><use x="92.565091" xlink:href="#k" y="91.428562"/><path d="m76.002351 151.000797h38.625786" fill="none" stroke="#000" stroke-miterlimit="10" transform="matrix(.714286 0 0 .714286 .357143 .357143)"/><path d="m76.002351 151.000797c0 .459375-.049218.913281-.136718 1.367187-.0875.448438-.224219.885938-.399219 1.3125-.175.421094-.388281.825782-.645313 1.208594-.257031.382813-.546875.738281-.869531 1.060938-.328125.322656-.678125.6125-1.060938.869531-.382812.257031-.7875.470313-1.214062.645313-.421094.180468-.858594.311718-1.3125.399218-.448438.092969-.902344.136719-1.361719.136719s-.91875-.04375-1.367188-.136719c-.453906-.0875-.891406-.21875-1.3125-.399218-.426563-.175-.83125-.388282-1.214063-.645313-.377343-.257031-.732812-.546875-1.060937-.869531-.322657-.322657-.6125-.678125-.869532-1.060938-.251562-.382812-.470312-.7875-.645312-1.208594-.175-.426562-.30625-.864062-.399219-1.3125-.0875-.453906-.13125-.907812-.13125-1.367187 0-.459376.04375-.913282.13125-1.367188.092969-.448438.224219-.885938.399219-1.3125.175-.426563.39375-.825782.645312-1.208594.257032-.382813.546875-.738281.869532-1.060938.328125-.328125.683594-.617969 1.060937-.869531.382813-.257031.7875-.475781 1.214063-.650781.421094-.175.858594-.30625 1.3125-.399219.448438-.0875.907813-.13125 1.367188-.13125s.913281.04375 1.361719.13125c.453906.092969.891406.224219 1.3125.399219.426562.175.83125.39375 1.214062.650781.382813.251562.732813.541406 1.060938.869531.322656.322657.6125.678125.869531 1.060938.257032.382812.470313.782031.645313 1.208594.175.426562.311719.864062.399219 1.3125.0875.453906.136718.907812.136718 1.367188zm0 0" stroke="#000" transform="matrix(.714286 0 0 .714286 .357143 .357143)"/><path d="m119.878137 151.000797-7.000001 3.5 1.750001-3.5-1.750001-3.500001zm0 0" stroke="#000" stroke-miterlimit="10" transform="matrix(.714286 0 0 .714286 .357143 .357143)"/><use x="56.428566" xlink:href="#r" y="104.999989"/><use x="61.639987" xlink:href="#u" y="104.999989"/><use x="66.645697" xlink:href="#u" y="104.999989"/><use x="71.651408" xlink:href="#G" y="104.999989"/><path d="m140.998452 151.000797c0 .65625-.060156 1.307031-.191407 1.952343-.125781.639844-.317187 1.268751-.56875 1.875782-.251562.607031-.557812 1.18125-.924218 1.728125-.366407.546875-.776563 1.05-1.241407 1.514844s-.973437.880469-1.514844 1.241406c-.546875.366407-1.126562.672657-1.733594.924219-.601562.251563-1.230468.442969-1.875781.56875-.639844.13125-1.290625.191407-1.946875.191407s-1.307032-.060157-1.952344-.191407c-.645313-.125781-1.26875-.317187-1.875782-.56875-.607031-.251562-1.18125-.557812-1.728125-.924219-.546875-.360937-1.05-.776562-1.514844-1.241406-.464843-.464844-.880469-.967969-1.246875-1.514844-.360937-.546875-.672656-1.121094-.924219-1.728125-.251562-.607031-.4375-1.235938-.56875-1.875782-.125781-.645312-.191406-1.296093-.191406-1.952343 0-.656251.065625-1.307032.191406-1.952344.13125-.645313.317188-1.268751.56875-1.875782.251563-.607031.563282-1.18125.924219-1.728125.366406-.546875.782032-1.05 1.246875-1.514844.464844-.464844.967969-.880469 1.514844-1.246875.546875-.360938 1.121094-.672656 1.728125-.924219.607032-.246094 1.230469-.4375 1.875782-.56875.645312-.125781 1.296094-.191406 1.952344-.191406s1.307031.065625 1.946875.191406c.645313.13125 1.274219.322656 1.875781.56875.607032.251563 1.186719.563281 1.733594.924219.541407.366406 1.05.782031 1.514844 1.246875s.875.967969 1.241407 1.514844c.366406.546875.672656 1.121094.924218 1.728125.251563.607031.442969 1.230469.56875 1.875782.131251.645312.191407 1.296093.191407 1.952344zm0 0" fill="#fff" stroke="#000" transform="matrix(.714286 0 0 .714286 .357143 .357143)"/><path d="m136.000014 151.000797c0 .661718-.125781 1.301562-.382813 1.914062-.251562.6125-.6125 1.153907-1.082812 1.61875-.470313.470313-1.00625.83125-1.618751 1.088282-.6125.251562-1.252343.377344-1.914062.377344-.667188 0-1.301563-.125782-1.914063-.377344-.6125-.257032-1.153906-.617969-1.624219-1.088282-.470312-.464843-.83125-1.00625-1.082812-1.61875-.251563-.6125-.382813-1.252344-.382813-1.914062 0-.661719.13125-1.301563.382813-1.914063.251562-.6125.6125-1.153907 1.082812-1.624219.470313-.464844 1.011719-.825781 1.624219-1.082813.6125-.251562 1.246875-.377343 1.914063-.377343.661719 0 1.301562.125781 1.914062.377343.612501.257032 1.148438.617969 1.618751 1.082813.470312.470312.83125 1.011719 1.082812 1.624219.257032.6125.382813 1.252344.382813 1.914063zm0 0" stroke="#000" transform="matrix(.714286 0 0 .714286 .357143 .357143)"/></svg>